<svg id="Layer_1" data-name="Layer 1" xmlns="http://www.w3.org/2000/svg" viewBox="0 0 1000 500"><defs><style>.cls-1{fill:#e8e9ea;}.cls-2{fill:#444;}</style></defs><path class="cls-1" d="M464,403c-14-63.68,16.74-91.43,95-81,27.31-51,69.52-63.57,128-34,52.18-46.4,97.6-43.08,136,12,81.32-16.8,114.74,13.38,112,79,43.62,26.11,51.09,55.36,31,87,36.56,22.27,30.93,44.25-11,66,8.17,49.08-19.07,71.91-77,72-7.33,53.14-46.22,76-108,77-31.61,28.7-68.35,37-112,18-35,32-75,6-133.85,9.85C502,707,471,733,439,719c28.9-22.63,48.65-46.11,51.67-71.17C475.31,622,473.28,596.74,485,572c-44.55-22.58-52.66-52.5-28-89C409.28,452.56,408.75,425.68,464,403Z" transform="translate(0 -250)"/><g id="KrgTef"><path class="cls-2" d="M689.77,713.55a67.44,67.44,0,0,1-26.51-8.06c-2.81-1.48-4.42-1.43-7,.44-12.59,9.32-28.11,12-44.53,12.27-17,.23-33.62-2.41-50.34-4.35-16.47-1.91-32.92-4-49.5-.45-8.89,1.92-17.1,5.15-25.2,8.53-12.73,5.3-25.7,6.47-39.35,2.7a52.06,52.06,0,0,0-10.95-1.79c-4.11-.24-4.7-1.28-2.65-4.13.28-.38.7-.64.37-1.13-2.49-3.77.56-5.75,3.71-7.83,21.38-14.16,36.28-31.85,44.19-53.36a20.45,20.45,0,0,0-1.66-18c-3.07-5.39-7.33-10.32-9.61-16-6.35-15.85-3.46-30.76,7.06-44.87.78-1,1.65-2,2.68-3.32A79.89,79.89,0,0,1,452.92,559c-11-9.51-18.18-20.53-19.45-33.77l.06-2.1c-1.34-8.73,1.23-17,5.18-24.94a76,76,0,0,1,6.55-10.47c1.19-1.64,1.65-2.29-.91-3.38C426,476.6,415,464.44,412.23,447.8c-3.5-21.05,9.6-41.54,37.46-48.67,2.86-.73,3.64-1.06,2.32-3.66-19.47-38.37,11.86-81.42,62.83-86,12-1.08,24.14-.38,35.58,3.51,2.26.77,3.22.94,4.18-1.48,10-25.41,30.9-41.58,63.31-47,24.57-4.1,46.46,1.6,65.81,14.07,2.76,1.77,3.5,1.39,5.31-.75,17.31-20.46,41.45-30,71.8-27.41,32,2.75,53.44,17.17,64.52,41.62.83,1.84,1.5,1.6,3.14.95a66.33,66.33,0,0,1,20.69-4.52c26.68-1.54,49.49,5.65,68.53,20.76,10.5,8.2,18.11,18.94,23.37,31.76a67.87,67.87,0,0,1,1.9,30.09c-.5,3.28.24,5.06,4.2,6.74,9,3.8,17,8.76,22.72,15.78h0c8,6.7,12.41,15,15.26,23.81,4.91,15.15,2.89,29.85-5.84,43.82-1.6,2.57-1.26,3.68,1.64,5.49,14,8.73,20.51,20.56,18.74,34.74-2.07,16.63-13,28.23-32.66,34-2.4.7-2.57,1.38-1.91,3.31,11.43,33.7-15.53,66.62-58.38,71.27a65.83,65.83,0,0,1-17.4-.21c-2.73-.43-3.13.08-3.19,2.19-1.06,34-29.08,62.14-69.59,70.13-8.82,1.74-17.85,1.89-26.82,2.22-11.52.43-21.54,3.13-29.87,10-9.91,8.13-20.94,15-35,18-8.49,1.81-17,3.06-25.84,2.23Zm12.5-8.14c3.64.56,7-.66,10.51-1.08,15-1.79,27-8.09,37.15-17a54.42,54.42,0,0,1,26.42-12.61c8.7-1.63,17.62-1.43,26.39-2.42,16.75-1.87,32-6.59,44.1-16.4,18.25-14.78,25.37-32.73,22.11-53.44-.87-5.49,4.13-10.91,11.89-8.14a47.38,47.38,0,0,0,13.34,2.33c40.86,2.23,68.86-31.57,50.9-61.4-3.72-6.18-.29-10.92,8.25-11.42,14.07-.82,27.44-10.94,29.37-22.24,2-11.88-6-22.85-20.19-27.09-5.88-1.76-8.89-7.39-4.47-11.9a42.16,42.16,0,0,0,12.17-26.4c1.91-21.56-13.41-41.37-38-49.77-5.83-2-7.07-3.81-6.3-8.87,1-6.34,3-12.57,3-19-.27-14.75-5.73-28.42-18.61-40.53-7.9-5.64-15.93-11.12-25.76-14.5-19.9-6.83-39.51-7.54-58.66,1.84-4.45,2.18-8.47.68-9.66-3.44-6.86-23.72-30.16-40.65-59.29-42.29-23.22-1.32-50.11,9.69-62.31,30.66-2.54,4.37-6.94,5-11.19,1.6-16.27-13.06-35.7-18.14-58.39-15.79-29.37,3.05-54.14,22.85-57.58,46.39-1,6.79-6.26,9-13.63,5.76a73.4,73.4,0,0,0-42.22-5.18c-46.62,7.74-60.76,48.16-39.78,75.71,4.6,6,1.33,10.84-7.46,11-19.22.4-36.29,13.6-37.69,29.17-1.55,17.2,11.14,32.06,32.08,37.55,7,1.85,8.66,6,4.15,10.76a107.94,107.94,0,0,0-9.87,12.83c-2.48,3.56-2.46,7.78-5.24,11.17a15.76,15.76,0,0,0-.61,7.93,8.77,8.77,0,0,1,.33,1.65c.29,10.9,5.16,20.29,14,28.42s19.89,13.42,33,15.82c3.08.57,5.63,1.55,6.55,4.45a4.89,4.89,0,0,1-2.11,6.06c-17.73,12.48-22.84,34.68-8.32,52.57,8.89,10.95,9.51,22.5,4,34.73-5.82,12.81-14.43,24.17-25.06,34.64a158.2,158.2,0,0,1-27.22,21c1.63.33,2.8.5,3.93.8,14.94,3.9,28.83,1.92,42.12-4.57a104.6,104.6,0,0,1,17-6.13c18.56-5.32,37.39-3.71,56.26-1.58,14.81,1.67,29.6,3.66,44.61,3.56,18.77-.12,36-3.47,48.54-16.06,2.31-2.32,5.25-1.76,7.73-.14,10.66,6.93,23,10.07,36.41,10.88Zm-252-296.06-.3-.08-.05.35a1,1,0,0,0,.31-.06C450.3,409.53,450.28,409.42,450.29,409.35Zm-2.16,1.37c0,.08,0,.19.06.22a.9.9,0,0,0,.34.05l-.09-.37Z" transform="translate(0 -250)"/><path class="cls-2" d="M230.12,620.16c6.16-11.57,12.75-22.88,25.3-28.65a75,75,0,0,1,22.92-6.22c7.7-.88,15.38-2.24,23.09-2.4,6.34-.13,12.49-1.7,18.78-1.6,9.82.16,19.49-2,29.28-1.82,3.86.07,7.67-.36,11.49-.27,7.91.2,15.5,3.94,17.39,13.37a13.77,13.77,0,0,0,9.33,11c16.9,6,26.18,18.71,31.71,35a205.12,205.12,0,0,1,10.45,58.07,39.79,39.79,0,0,1-.48,6.71c-.79,5.86-2.69,7.67-8.61,8.32a22.33,22.33,0,0,1,2.65,2c1.21,1.26,2.14,2.78.95,4.49a3.37,3.37,0,0,1-4.78,1c-2.7-1.59-5.28-3.39-7.85-5.19a4.39,4.39,0,0,0-4-.83c-9.64,2.68-17.38-.31-23.54-8-3.64-4.56-6.7-9.57-10.74-13.82-8.61-9-20.48-10.12-29.6-2.64-.59.49-1.93.86-1.13,2,.65.92,1.39-.07,2-.38,16-8,33.7,3.91,32.87,22-.39,8.58-3.68,14.12-12.64,20.83,8,.69,60.12,4,67.71,4.68,3.38,2,3.38,6.08-.67,8.1-10.85-.67-67.66-4.27-78.51-5-23.27-1.49-46.53-3.12-69.81-4.46-19.33-1.11-38.68-1.89-58-2.81l-2.19-.26-6.13-.19c-9.3-.06-18.6-.07-27.9-.16q-42.43-.45-84.74,2.87Q68.14,738.82,32,744.8c-.66.11-27.6,5.1-28.27,5.14-1.35.68-6.74-4.72-1.35-6.75,9.06-2.2,44.67-8.62,53.86-10.05,16-2.49,32.18-3.84,48.3-5.45,8.21-.81,16.48-1,24.72-1.37,21.84-1.06,43.69-1.44,65.56-1.26a7.12,7.12,0,0,0,1.19-.2c-6.12-6.63-7.95-14.42-5.35-22.52,3.3-10.29,14.51-18.26,26.92-15.15,10.81,2.7,18.35,15,15.71,25.47a30.42,30.42,0,0,1-4.09,9.79l-2.63,3c18.55.8,36.93,1.46,55.3,2.43s36.67,2.27,55.6,3.46c-2.69-3.14-5.4-5.52-6.39-9.05l-.25-.68c-.34-3.72-2.47-3.61-5.66-3.53-21.45.54-42.9.35-64.35-.22-6.39-.16-12.79-.37-19.18-.51-2.85-.07-4-1.1-4.09-4.28-.43-12.42-5.25-22.48-17.06-27.91-14.54-6.68-30.41,4.37-34.62,18.2a24.4,24.4,0,0,0-.65,9.35c.25,2.83-1.12,4.32-3.74,4.55-4.36.39-8.74.64-13.11.77a3.67,3.67,0,0,1-4-3c-3-15-5.52-30.07-2.28-45.38,4.22-19.91,18-32.08,38.38-34.29a103.31,103.31,0,0,0,16.23-2.61c5-1.36,7.57-5.2,10.57-8.71.58-.67,1.06-1.43,1.58-2.15Zm15,90c1.21-.18,5.12.11,6.33.07,7.08-.25,14.15-.54,21.22-.6,2.21,0,3.05-.51,3.15-2.89.43-11.11,1.12-22.22,1.6-33.33.31-7.18.4-14.38.57-21.56,0-1.21.33-2.37-1.69-2.47-5-.26-10-.78-15-1.26-9.89-.94-19.77-1.93-29.66-2.89-2.61-.26-5.1-.66-5.25-4.12a41.86,41.86,0,0,1-8.55,3c-6.65,1.43-13.4.84-20.11,1.14-12,.54-20.76,6.87-25.08,18.33,1.28-.05,1.56-1.17,2.19-1.87,1.58-1.75,3.08-3.58,4.77-5.22a2.94,2.94,0,0,1,4.26,0,2.41,2.41,0,0,1,.37,3.59,29,29,0,0,0-6.07,17.12c-.12,2.51-1.16,4.77-4,5.66s-4.21-.92-5.79-3.59c-.43,10,1.1,18.87,2.38,27.84.48,3.31,2.26,2.74,4.3,3,2.44.26,2.92-1,3.2-3.06,2.22-16.49,17-32.59,38-30,12.23,1.51,25.2,13.31,27.87,25.66Zm173.92-16.3a22.77,22.77,0,0,0,0-2.33c-1-11.45-4.78-22.27-7.66-33.3-.41-1.54-1.41-1.39-2.53-1.42-12.83-.31-25.66-.86-38.47-1.74s-25.52-1.42-38.27-2.17c-1.66-.1-2.49.06-2.89,2.06-2,10.12-3.87,20.27-5.16,30.5-.88,7-1.47,14.07-2.12,21.11-.06.72-1.77,1.85.26,2.27,1.41.3,1.55-.83,1.79-1.86a35.63,35.63,0,0,1,17.13-23.53c9.7-5.79,19.89-8.15,30.58-2.25,4.61,2.54,8.09,6.35,11.55,10.19,3,3.33,5.67,7,9.28,9.72,3.41,2.62,7.05,3.72,11.3,2.36,3.3-1,6.64-2,10-2.8C418.77,699.47,419.49,698.5,419.08,693.82Zm-87.92-48.49c10-.19,19.53,1.33,29.18,1.28,15.16-.09,30.31.75,45.47,1.22,1.85,0,3-.1,2.11-2.57-2.21-6.35-4.38-12.65-8-18.41-4.56-7.25-11.81-10.86-19-14.56-6.76-3.48-11.57-8.36-13.25-16-.73-3.3-3-4.84-6.25-5.09-4.49-.34-9,.15-13.45.37-2.21.11-3,1.16-3.53,3.11-2.63,9.85-5.42,19.66-8,29.51C334.61,631.14,333,638.1,331.16,645.33Zm8-52.67-17.22,1.39-34.56,2.8c-1.28.1-2.31.13-2.32,2-.14,13.93-.38,27.86-.64,41.79,0,1.37.2,1.94,1.76,2q18.32.95,36.63,2.09c1.47.09,2.24-.16,2.58-1.77A371.26,371.26,0,0,1,339.13,592.66Zm-54.85,86.83H284c0,9.1.06,18.19,0,27.29,0,2,.34,2.72,2.51,2.65,7.62-.27,15.25-.32,22.88-.46,1.68,0,3.86.52,4.9-.32,1.2-1,.05-3.25.35-4.94.09-.55.08-1.12.18-1.67,2.95-15.75,4.7-31.7,8-47.37.4-1.86,0-2.33-1.78-2.43q-17.3-1-34.58-2.19c-1.74-.11-2.26.36-2.24,2.17C284.33,661.31,284.28,670.4,284.28,679.49Zm-54-40.69c11.83.25,23.41,2.27,35.12,2.48,3.59.06,7.17.44,10.76.66,1.22.07,2.07-.06,2.11-1.74q.51-20.22,1.2-40.45c.05-1.61-.57-1.88-2-1.66-13.56,2.09-25,7.47-32.12,20C241.15,625.47,237.32,633.18,230.27,638.8ZM351.87,725a13.64,13.64,0,0,0,13.69-13.31,12.13,12.13,0,0,0-12.09-12.27c-8.24,0-15,6.17-14.91,13.7C338.61,719.72,344.45,724.94,351.87,725ZM211.63,721.8c4.1-.39,8.33-1.36,11-5.82a13.48,13.48,0,0,0-2.19-16.33c-4.75-4.49-10.49-4.7-15.78-.67-3.32,2.54-5.1,6.19-7.15,9.65a2.6,2.6,0,0,0-.08,1.62C198.52,717.06,204.2,721.86,211.63,721.8Z" transform="translate(0 -250)"/><path class="cls-2" d="M791.38,740.29c-14.88,1.19-29.76,2.45-44.65,3.57q-20,1.5-39.94,2.7c-4.58.27-9.18.47-13.76.63-26.24.91-52.47,2.11-78.73,2.29-.34,0-.68-.05-1-.07l-12.14.18c-14.82.54-29.63.35-44.45.19-21.88-.23-43.77-.52-65.64-1.21-18.57-.59-40.52-1.75-59.08-2.68-2.7-2-2.7-6.75.67-8.1,10,.47,20.68,1,30.65,1.52,6.39.32,12.81.42,19.15,1.13,8.19.91,16.43.91,24.61,1.19,25.78.89,51.59,1,77.38,1.36,7.18.1,14.37,0,21.55,0l10.2-.24,1.19,0h3.53c10.77-.34,21.55-.58,32.32-1,11-.48,22-1.34,33-1.73,14.57-.51,29.07-2,43.61-3.06,20.68-1.44,41.33-3.35,62-5l41.83-3.46a68,68,0,0,0,14-.64c7.9-1,15.87-1.27,23.82-1.85,2-.15,3.71.12,4,2.52.22,2.21-.75,3.79-3.06,4-11.82,1.24-23.59,3-35.48,3.53Z" transform="translate(0 -250)"/><path class="cls-2" d="M450.29,409.35c0,.07,0,.18,0,.21a1,1,0,0,1-.31.06l.05-.35Z" transform="translate(0 -250)"/><path class="cls-2" d="M448.13,410.72l.31-.1.09.37a.9.9,0,0,1-.34-.05C448.14,410.91,448.15,410.8,448.13,410.72Z" transform="translate(0 -250)"/><path class="cls-2" d="M571.94,512.07" transform="translate(0 -250)"/><path class="cls-2" d="M264,655.27c1.16,0,1.94,0,2.72,0,3.41.28,5.56,2.19,5.41,4.75-.14,2.27-2.69,3.88-6,3.49a19.49,19.49,0,0,1-7.69-2.23c-1.1-.65-2-1.49-1.83-2.94s1.2-2,2.43-2.47C260.79,655.17,262.59,655.44,264,655.27Z" transform="translate(0 -250)"/><path class="cls-2" d="M405.85,671.23c-.07-1.77.12-3.34,2.15-3.66,1.83-.29,2.82.6,3.35,2.43a53.69,53.69,0,0,1,2.11,9.77c.18,2-.14,4.06-2.51,4.47s-2.92-1.53-3.6-3.24C406.08,677.82,406.28,674.43,405.85,671.23Z" transform="translate(0 -250)"/><path class="cls-2" d="M367.5,624.5c4.27-.76,5.39,1.38,5.5,4.42.12,3.2-2.83,7.65-5.16,7.94-2,.26-2.64-1.18-1.85-4.55-2.57.52-5.05,1.21-7.63,1.06-1.7-.1-3.41-.18-4.19-2.1s.3-3.16,1.6-4.34c3.15-2.86,6.27-5.74,9.4-8.62,1.66-1.54,3.48-2.89,5.46-.7s.25,3.83-1.37,5.31Z" transform="translate(0 -250)"/><path class="cls-2" d="M310.7,621.46c3-.58,4.92-1,6.89-1.35a2.9,2.9,0,0,1,3.28,1.09,2.81,2.81,0,0,1-.37,3.71c-1.66,1.82-3.39,3.58-5.15,5.31-1.2,1.19-2.5,2.61-4.34,1.32s-.11-2.76.32-4.42c-3.3.69-6.42,1.39-9.56,2-1.64.3-3.51.73-4.39-1.33-.82-1.91.38-3.17,1.8-4.23q10-7.46,19.95-14.9c1.26-.94,2.68-2.14,4-.26,1.13,1.59-.05,2.62-1.24,3.61C318.4,614.9,314.94,617.87,310.7,621.46Z" transform="translate(0 -250)"/><path class="cls-2" d="M313.71,664.36c-3.62-.23-6.36-.8-8.75-2.41a2.91,2.91,0,0,1-1.57-3.09,2.67,2.67,0,0,1,2.28-2.23c3.06-.14,6.07-1.34,9.19-.49,2.46.66,3.09,2.48,2.82,4.65C317.35,663.51,315.64,664.66,313.71,664.36Z" transform="translate(0 -250)"/><path class="cls-2" d="M265.83,626.76c1.8-.32,3-.48,4.18-.76a3.69,3.69,0,0,1,2.62,0,2.64,2.64,0,0,1,1.23,4c-1.22,2.14-.83,5.55-4.3,6a1.72,1.72,0,0,1-1.9-1.56c.34-3.22-1.69-2.12-3.32-2.11-2.12,0-4.24-.26-6.35-.36a2.53,2.53,0,0,1-2.44-1.93,2.58,2.58,0,0,1,.95-3c3.12-2.55,6.27-5.05,9.44-7.54a2.26,2.26,0,0,1,3.52.35,2.37,2.37,0,0,1-.36,3.56C268.11,624.3,267.24,625.31,265.83,626.76Z" transform="translate(0 -250)"/><path class="cls-2" d="M351.46,721c-4.14-.21-8-4.17-7.88-8.06a8,8,0,0,1,8.35-7.38c3.37.26,6.05,2.91,6,5.92C357.77,718.4,355.87,721.2,351.46,721Z" transform="translate(0 -250)"/><path class="cls-2" d="M202.51,710.13c.09-4.46,3.25-8.22,7.33-8.72,3.12-.38,6.26,1.88,7.27,5.24,1.36,4.53-5.28,11.67-9.88,10.62C204.12,716.55,202.43,714,202.51,710.13Z" transform="translate(0 -250)"/></g></svg>