<svg id="Layer_1" data-name="Layer 1" xmlns="http://www.w3.org/2000/svg" viewBox="0 0 400 803"><defs><style>.cls-1,.cls-2,.cls-5{fill:none;}.cls-1,.cls-2,.cls-4{stroke:#444;}.cls-1,.cls-2,.cls-4,.cls-5{stroke-linecap:round;stroke-miterlimit:10;}.cls-1{stroke-width:3px;}.cls-2{stroke-width:12px;}.cls-3,.cls-4{fill:#444;}.cls-4{stroke-width:5px;}.cls-5{stroke:#222;stroke-width:6px;}.cls-6{fill:#222;}</style></defs><path class="cls-1" d="M305,180V160a60,60,0,0,1,59.93-60H634.58a60,60,0,0,1,59.93,60v20" transform="translate(-300 -98.5)"/><line class="cls-1" x1="4.99" y1="715.5" x2="4.99" y2="89.5"/><path class="cls-1" d="M694.51,820v20a60,60,0,0,1-59.93,60H364.92A60,60,0,0,1,305,840V820" transform="translate(-300 -98.5)"/><line class="cls-1" x1="394.51" y1="89.5" x2="394.51" y2="715.5"/><rect class="cls-2" x="19.98" y="16.5" width="359.55" height="770" rx="50"/><path class="cls-3" d="M396,193.5h0a4,4,0,0,1,4,4v94a4,4,0,0,1-4,4h0a0,0,0,0,1,0,0v-102A0,0,0,0,1,396,193.5Z"/><path class="cls-3" d="M300,210h0a4,4,0,0,1,4,4v32a4,4,0,0,1-4,4h0a0,0,0,0,1,0,0V210A0,0,0,0,1,300,210Z" transform="translate(304 361.5) rotate(180)"/><path class="cls-3" d="M300,273h0a4,4,0,0,1,4,4v57a4,4,0,0,1-4,4h0a0,0,0,0,1,0,0V273A0,0,0,0,1,300,273Z" transform="translate(304 512.5) rotate(180)"/><path class="cls-3" d="M300,350h0a4,4,0,0,1,4,4v57a4,4,0,0,1-4,4h0a0,0,0,0,1,0,0V350A0,0,0,0,1,300,350Z" transform="translate(304 666.5) rotate(180)"/><line class="cls-4" x1="139.83" y1="769.5" x2="259.68" y2="769.5"/><path class="cls-3" d="M102.75,21.5h194a0,0,0,0,1,0,0v16a15,15,0,0,1-15,15h-164a15,15,0,0,1-15-15v-16A0,0,0,0,1,102.75,21.5Z"/><line class="cls-5" x1="176.28" y1="34.5" x2="223.22" y2="34.5"/><rect class="cls-6" x="235.21" y="28" width="12.98" height="13" rx="6.49"/></svg>