<svg id="Layer_1" data-name="Layer 1" xmlns="http://www.w3.org/2000/svg" viewBox="0 0 800 420"><defs><style>.cls-1{fill:#464e5e;}.cls-2{fill:#e6eaf0;}.cls-3{fill:#d6dae1;}.cls-4{fill:#888;}</style></defs><path class="cls-1" d="M777.5,290h-555c-12.43,0-22.5,10.48-22.5,23.4V672.57a7.47,7.47,0,0,0,7.5,7.43h585a7.47,7.47,0,0,0,7.5-7.43V313.4C800,300.48,789.93,290,777.5,290Zm0,358.8h-555V321.2h555Z" transform="translate(-100 -290)"/><circle class="cls-2" cx="400" cy="16.23" r="5.23"/><path class="cls-2" d="M2,388H798a2,2,0,0,1,2,2v16a0,0,0,0,1,0,0H0a0,0,0,0,1,0,0V390A2,2,0,0,1,2,388Z"/><path class="cls-3" d="M850.61,710H149.39A93.41,93.41,0,0,1,100,696H900A93.41,93.41,0,0,1,850.61,710Z" transform="translate(-100 -290)"/><path class="cls-4" d="M330,388H470a0,0,0,0,1,0,0v0a6,6,0,0,1-6,6H336a6,6,0,0,1-6-6v0A0,0,0,0,1,330,388Z"/></svg>