<svg id="Layer_1" data-name="Layer 1" xmlns="http://www.w3.org/2000/svg" viewBox="0 0 680 900"><defs><style>.cls-1{fill:#dadee0;}.cls-2{fill:#c3cbd2;}.cls-3{fill:#aab2b9;}.cls-4{fill:#fc4634;}.cls-5{font-size:190px;fill:#fff;stroke:#fff;stroke-miterlimit:10;stroke-width:5px;font-family:Nunito-Regular, Nunito;}</style></defs><path class="cls-1" d="M840,250V910a40,40,0,0,1-40,40H200a40,40,0,0,1-40-40V90a40,40,0,0,1,40-40H640Z" transform="translate(-160 -50)"/><polygon class="cls-2" points="488 190 680 200 680 382 488 190"/><path class="cls-3" d="M840,250H670a30,30,0,0,1-30-30V50Z" transform="translate(-160 -50)"/><path class="cls-4" d="M0,620H680a0,0,0,0,1,0,0V880a20,20,0,0,1-20,20H20A20,20,0,0,1,0,880V620A0,0,0,0,1,0,620Z"/><path class="cls-2" d="M400.63,460h33.65a7.72,7.72,0,0,0,7.72-7.72V327.72a7.72,7.72,0,0,1,7.72-7.72H594.28a7.72,7.72,0,0,1,7.72,7.72V452.28a7.72,7.72,0,0,0,7.72,7.72h33.65a7.72,7.72,0,0,1,5.45,13.18L527.46,594.54a7.71,7.71,0,0,1-10.92,0L395.18,473.18A7.72,7.72,0,0,1,400.63,460Z" transform="translate(-160 -50)"/><path class="cls-4" d="M378.63,440h33.65a7.72,7.72,0,0,0,7.72-7.72V307.72a7.72,7.72,0,0,1,7.72-7.72H572.28a7.72,7.72,0,0,1,7.72,7.72V432.28a7.72,7.72,0,0,0,7.72,7.72h33.65a7.72,7.72,0,0,1,5.45,13.18L505.46,574.54a7.71,7.71,0,0,1-10.92,0L373.18,453.18A7.72,7.72,0,0,1,378.63,440Z" transform="translate(-160 -50)"/><text class="cls-5" transform="translate(157.32 814.67)">PDF</text></svg>