<svg id="Layer_1" data-name="Layer 1" xmlns="http://www.w3.org/2000/svg" viewBox="0 0 980.91 844.47"><defs><style>.cls-1{fill:#444;}</style></defs><path class="cls-1" d="M991,465.1c0,21.63.35,45.35-.16,69-.22,10.53-1.81,21.08-3.47,31.51-1.2,7.59-3.37,15.05-5.4,22.48-2.5,9.12-5,18.26-8.07,27.19a287.82,287.82,0,0,1-11,28.06c-6.32,13.54-13.1,26.88-20.21,40a298.32,298.32,0,0,1-17.49,28.9c-8,11.35-16.67,22.16-25.34,33-6.48,8.09-13.45,15.78-20.11,23.73-3.1,3.69-6,7.51-8.9,11.39-.51.69-.38,2-.33,2.94.64,12,1.16,24,2,36,.51,7,1.35,13.94,2.5,20.83,1.59,9.55,2.94,19.21,5.6,28.48,3.89,13.56,8.84,26.82,13.36,40.2.57,1.69,1.5,3.27,1.92,5a25.11,25.11,0,0,1,.33,4.53,24.64,24.64,0,0,1-5-.5c-7.24-2.25-14.62-4.23-21.59-7.15a258.28,258.28,0,0,1-28.44-13.45c-13.69-7.8-26.95-16.38-40.25-24.87-7.42-4.74-14.1-10.85-22-14.57-4.21-2-10.4-1.16-15.32,0-5.59,1.32-10.76,4.42-16.1,6.77-12.28,5.4-24.4,11.18-36.86,16.12-13.4,5.32-27.07,10-40.73,14.69-8.61,2.95-17.33,5.64-26.12,8-11.71,3.1-23.5,5.9-35.32,8.51-8.8,1.95-17.74,3.26-26.57,5.07-24.07,5-48.44,5.72-72.87,5.42-14-.17-27.94-.76-41.89-1.5-9.7-.52-19.38-1.5-29-2.47-8.4-.85-16.8-1.75-25.14-3q-15.66-2.4-31.21-5.5-11.58-2.31-23-5.49c-11.84-3.31-23.66-6.73-35.35-10.53-9.69-3.15-19.34-6.57-28.73-10.5-13.5-5.66-26.92-11.56-40.07-18-11-5.35-21.74-11.18-32.14-17.54-11.7-7.17-23.23-14.72-34.21-22.93-13.34-10-26.28-20.55-38.92-31.4-8.19-7-15.6-15-23.24-22.6-6.89-6.91-13.91-13.73-20.34-21.06-7.11-8.11-13.79-16.62-20.31-25.22C79.82,717.06,74.34,709.18,69,701.2a212.91,212.91,0,0,1-12.61-20.65c-7.42-14.5-14.84-29-21.24-44a331.62,331.62,0,0,1-12.55-36.21c-3.26-11-5.65-22.31-8.06-33.56A103.31,103.31,0,0,1,12.09,549c-.88-24.65-1.93-49.31-1.89-74a274.28,274.28,0,0,1,3.49-40,232.78,232.78,0,0,1,8-34.35c4.75-15.21,10.05-30.33,16.22-45A366.88,366.88,0,0,1,56.8,317.7c6.63-11.74,14.1-23.05,21.8-34.13a276.43,276.43,0,0,1,21.16-27.34C113.09,241.43,126.83,227,141,213c8.74-8.61,18.43-16.31,28.09-23.9,10.64-8.35,21.49-16.46,32.7-24s22.83-14.87,34.73-21.42c12.71-7,25.84-13.27,39-19.31,10.76-4.92,21.79-9.33,32.9-13.44s22.55-7.7,33.9-11.36q9.38-3,18.93-5.48c7.63-2,15.3-3.85,23-5.51,8.43-1.82,16.87-3.64,25.38-5,8.72-1.35,17.53-2.17,26.31-3.06,7.81-.78,15.64-1.76,23.47-1.94,18.79-.42,37.59-.66,56.38-.5,15.21.12,30.44.68,45.63,1.51,8.9.49,17.79,1.66,26.62,3,9.07,1.36,18.13,3,27.08,5q16.61,3.78,33,8.49c11.61,3.38,23.17,7,34.54,11.1s22.61,8.9,33.83,13.55c7.76,3.22,15.5,6.51,23,10.18,7.94,3.86,15.66,8.17,23.41,12.39,6.72,3.66,13.55,7.18,20,11.28q16.2,10.27,32,21.24c7.55,5.23,15,10.69,22,16.55q14.76,12.27,28.84,25.34c8.24,7.67,16.38,15.53,23.83,24,9,10.18,17.64,20.74,25.66,31.7,8.43,11.51,16.37,23.43,23.73,35.65a320.88,320.88,0,0,1,16.86,32.2c6.16,13.42,11.69,27.14,17,40.92a246.82,246.82,0,0,1,8,25.12c2.59,9.67,4.65,19.48,6.8,29.25a87.89,87.89,0,0,1,1.26,9.19C989.62,451.45,990.18,457.22,991,465.1ZM485.9,495.41l1.31-.32c-2.19-12.58-3.86-25.28-6.71-37.71-3-13-10.62-23.53-20.59-32.05a74.81,74.81,0,0,0-48.86-18.11c-18.17-.18-36.37,1.18-54.51,2.42-6.56.45-13,2.63-19.53,3.76-1.44.25-5,3.21-4.11-2,.06-.39-.62-1.23-1.09-1.35-4-1.07-8-2.55-12-2.87-5.68-.45-9.47,3.57-10,8.4-.93,7.8-.42,15.79-.21,23.7.36,14,1.21,27.91,1.4,41.87.25,19,0,38,.08,57q.15,36.31.49,72.63c.07,7.67,5.38,12.83,13.09,12.75,8.29-.09,16.58-.39,24.88-.46,16.17-.13,32.07-2.27,47.35-7.59,10.4-3.61,21.07-7.09,30.6-12.44,20.23-11.36,34.93-28.47,44.38-49.52a237.8,237.8,0,0,0,12.43-36.16C486.09,510.36,485.43,502.74,485.9,495.41Zm72.1,20.8h.5c0-7.75,0-15.5.06-23.25,0-.66.77-1.84,1.24-1.88,6.46-.45,12.94-.72,19.41-1.09,14.36-.81,28.73-1.67,43.09-2.48,9.29-.53,18.58-1.1,27.88-1.48a12.6,12.6,0,0,0,11.36-10.28c1.27-9.36-7.34-14.8-14.52-14.27q-21.85,1.62-43.72,3-20.89,1.33-41.81,2.42a3.12,3.12,0,0,1-2.38-1.87c-.44-2.83-.35-5.74-.63-8.6a120.55,120.55,0,0,0-1.53-12c-1.12-5.48.62-8.72,5.4-8.9,10-.37,20-.57,30-1.05,6-.29,12-.94,18-1.46,9.36-.82,18.78-1.28,28.06-2.62a145.78,145.78,0,0,0,23.32-5.18c6.79-2.17,9.28-7.38,7.71-13-1-3.49-8-8-12.24-7.67-11.53.8-23.06,1.71-34.59,2.47-13.59.9-27.19,1.8-40.8,2.49-13.12.65-26.26.88-39.38,1.6-6.37.34-15,6.17-14,14.6.79,6.62,1.91,13.21,2.43,19.85,1,12.85,2.27,25.72,2.43,38.6.2,17.15-.33,34.31-.93,51.46-.53,15-1.62,30-2.44,45-.52,9.63-1.15,19.25-1.45,28.89-.2,6.67,6.35,14.4,11.66,14,13.14-.94,26.26-2.12,39.4-3,16.3-1.11,32.63-1.85,48.92-3.1,10.69-.82,21.39-1.9,32-3.68,2.75-.46,6.68-3.69,7.08-6.15.66-4,.27-10-2.25-12.18-3.41-2.95-9.2-3.86-14.08-4.23-6.24-.46-12.59.44-18.9.82q-20.26,1.22-40.55,2.49c-8.37.51-16.75,1-25.13,1.52-2.93.19-5.84.67-8.76.77-.78,0-2.31-.95-2.29-1.4.71-12.69,1.92-25.36,2.31-38.06C558.32,543.64,558,529.92,558,516.21Z" transform="translate(-10.2 -78.03)"/><path class="cls-1" d="M337,552.25c0-13.25.06-26.5,0-39.74q-.18-33.83-.51-67.63a16.15,16.15,0,0,0-.38-2.15c-.4-2.87-.67-5.42,3.52-5.78,7.38-.63,14.71-1.89,22.1-2.39,13.14-.88,26.35-2.34,39.44-1.75a99.9,99.9,0,0,1,29.39,6c11.1,4.06,18.33,12.9,23.09,24,5,11.63,5.91,23.84,5,35.88a139.61,139.61,0,0,1-6.92,33.73c-5.25,15.73-14.09,29.91-27.16,40.31-7.71,6.14-17,10.63-26.1,14.57-7.18,3.1-15.16,4.46-22.88,6.15a188.89,188.89,0,0,1-18.94,3c-5.69.64-11.43.83-17.16.94a3.46,3.46,0,0,1-2.41-2.38C337,580.75,337,566.5,337,552.25Z" transform="translate(-10.2 -78.03)"/></svg>