<svg id="Layer_1" data-name="Layer 1" xmlns="http://www.w3.org/2000/svg" viewBox="0 0 982.74 845.84"><defs><style>.cls-1{fill:#444;}</style></defs><path class="cls-1" d="M429.74,79c30.47-.35,60.93-.89,91.4-.94,14.54,0,29.1.67,43.63,1.5a227.56,227.56,0,0,1,24.64,3c9.24,1.56,18.4,3.67,27.58,5.64,7,1.51,14.17,2.88,21.1,4.85,9.46,2.7,18.77,5.94,28.16,8.88,4.64,1.45,9.45,2.44,14,4.18,12.92,5,25.81,10,38.55,15.41,10.65,4.52,21.28,9.22,31.54,14.57,13,6.75,25.86,13.79,38.27,21.54,12.13,7.57,23.82,15.91,35.32,24.43,10.12,7.5,20.1,15.26,29.41,23.72,10.71,9.73,20.82,20.16,30.8,30.66,8.72,9.16,17.41,18.44,25.19,28.4a371,371,0,0,1,23.09,33.34c8.19,13.29,15.76,27,23,40.84a252.1,252.1,0,0,1,12,27.47c4.61,12.17,8.9,24.48,12.68,36.93a187.31,187.31,0,0,1,6.28,27.24c2,14.14,3.84,28.39,4.47,42.65.85,19.35,1,38.76.48,58.12a224.8,224.8,0,0,1-4,36.29,346.64,346.64,0,0,1-10.16,38.72c-4,12.56-8.73,24.91-13.72,37.11A286.49,286.49,0,0,1,950,672.07c-6.77,12.46-13.89,24.79-21.64,36.66-7.34,11.24-15.28,22.14-23.7,32.6-9,11.24-18.71,22-28.5,32.57-6.28,6.79-6.84,14.1-4.88,22.62,1.19,5.14.71,10.64,1.21,16,1.08,11.52,1.94,23.08,3.59,34.53a179.41,179.41,0,0,0,5.51,25.53c3.3,11.07,7.55,21.86,11.28,32.82,1.39,4.06,2.51,8.22,3.56,12.39.1.43-1.28,1.82-1.7,1.71-7.59-2-15.36-3.48-22.65-6.27a222,222,0,0,1-29-13.06c-12.45-7-24.32-15-36.36-22.63-9-5.74-18-11.54-26.83-17.55-7.77-5.28-14.53-1.14-21.48,1.78-8.31,3.49-16.59,7.07-24.92,10.53-12.69,5.28-25.35,10.68-38.15,15.67-9.49,3.71-19.1,7.16-28.83,10.18-13.13,4.07-26.38,7.81-39.68,11.32-8.38,2.21-16.91,3.9-25.42,5.53-9.67,1.85-19.35,3.73-29.1,4.95-11.22,1.4-22.51,2.47-33.8,3-15.28.71-30.61,1.2-45.9,1-13.61-.21-27.21-1.39-40.8-2.42-9.67-.74-19.35-1.64-28.94-3-11.07-1.6-22.05-3.76-33.05-5.78-8-1.46-16-2.72-23.86-4.72-13.21-3.37-26.4-6.9-39.39-11-12.06-3.84-24-8.26-35.71-13-10.46-4.21-20.69-9-30.88-13.88-8.41-4-16.81-8.1-24.87-12.76-12.35-7.14-25-14-36.45-22.43-17.87-13.2-35.32-27.06-52-41.72A460.37,460.37,0,0,1,108.54,755a453.17,453.17,0,0,1-31.4-39.28A400.49,400.49,0,0,1,52.4,676.39,373.9,373.9,0,0,1,33.67,637c-5.26-12.86-9.37-26.21-13.59-39.48a159.19,159.19,0,0,1-5.47-22.15c-2.07-12.4-4.42-24.87-4.9-37.38q-1.35-35.4-.5-70.87c.33-13.3,2.24-26.65,4.47-39.8a211.61,211.61,0,0,1,8-31.19c4.79-14.47,10-28.86,16-42.84a324.38,324.38,0,0,1,17.95-35.07c7.77-13.3,16.11-26.32,25-38.9a319.62,319.62,0,0,1,23-28.46c11-12.32,22.22-24.49,34.07-36a361,361,0,0,1,30.6-26.25q20.7-16,42.37-30.78c8.33-5.69,17.31-10.48,26.25-15.21,12.62-6.68,25.37-13.14,38.26-19.27,7.57-3.6,15.46-6.53,23.31-9.5,11.62-4.39,23.24-8.8,35-12.71,8.44-2.8,17.1-4.94,25.74-7.07,11.46-2.84,22.93-5.68,34.51-8C404.26,84,415,82.69,425.58,81a35.53,35.53,0,0,0,4.11-1.18ZM310,590h1c0,5.83-.05,11.66,0,17.49.12,11.62,3.63,16.77,16.43,16.39,14.59-.43,29.19-1.5,43.7-3a108,108,0,0,0,24.26-5.05,234.88,234.88,0,0,0,33.43-14.2c12.43-6.62,22.29-16.92,30-28.49,7.37-11.05,14.13-22.87,18.77-35.25,4-10.79,5.77-22.76,6.63-34.35,1.08-14.45,1.52-29.29-4.32-43.09-3.83-9.05-7.46-18.63-13.41-26.22-13.31-16.95-32.41-24.58-53.29-25.89-16.34-1-32.87.29-49.26,1.35-8.66.57-17.19,2.92-25.81,4.25-2.32.36-6.3.76-6.87-.3-2.53-4.64-6.62-7.09-12.57-6.1-4.94.82-9.74,5.93-9.68,10.51.11,10,.32,19.89.48,29.84.17,10.46.46,20.92.48,31.38Q310.07,534.61,310,590Zm249-74h1c0-1.92-.08-3.84,0-5.75a7.87,7.87,0,0,1,.81-2.17,9.07,9.07,0,0,1,1.66,1c3.53,3.24,7.1,6.43,10.51,9.79q22.9,22.56,45.72,45.21c8.78,8.71,17.46,17.52,26.26,26.21,3.74,3.7,7.58,7.31,11.55,10.76,10,8.68,20.13,17.14,30,25.9,3.52,3.12,9.49,4.39,13,2.48,9.31-5.1,6.75-14.34,1.65-19.79-5.75-6.14-11.92-11.89-18.06-17.65-7-6.57-14.26-12.89-21.28-19.45q-15-14.06-29.8-28.32c-5.75-5.57-11.19-11.46-16.86-17.11-6.75-6.73-13.7-13.26-20.39-20s-13.52-14-20.06-21.18c-.79-.87-.91-3.79-.2-4.37,10.86-8.85,21.5-18.05,33-26,12.75-8.79,26.36-16.31,39.51-24.52a90.92,90.92,0,0,0,11.16-8c4.1-3.52,4.35-8.8,1.19-13.66-1.84-2.85-10.08-5.11-13.32-3.56-7.06,3.4-14.45,6.3-21.05,10.44a396.94,396.94,0,0,0-33.87,23.24c-9.4,7.36-17.71,16.11-26.52,24.21-1.33,1.21-2.81,2.25-4.22,3.37a41.51,41.51,0,0,1-.9-5.37q-.84-21.13-1.51-42.28c-.22-6.92-7.33-12.77-13.77-11.2-7.13,1.75-9.4,5-9.72,14.82-.45,13.91-.81,27.83-1,41.75-.28,19.95-.39,39.91-.52,59.87q-.3,42.93-.48,85.86c0,5.81,5,10.28,11.39,10.6,6.92.34,12-3.18,12.52-9.23,1-12.43,2.19-24.87,2.45-37.33C559.3,555,559,535.45,559,516Z" transform="translate(-8.88 -78.09)"/><path class="cls-1" d="M336,549c0-15.67.07-31.33,0-47s-.29-31.25-.5-46.88a134.17,134.17,0,0,0-.56-13.61c-.45-3.81,1.63-4.3,4.47-4.52,14.82-1.15,29.64-2.36,44.46-3.47,5.8-.44,11.66-1.35,17.4-.89,12.76,1,25.68,2.22,36.42,10.33a45.85,45.85,0,0,1,15.26,19.12c7.77,18.54,6.55,37.77,3.21,56.53-3.25,18.26-12.12,34.5-24.85,48.48-9.44,10.37-20.36,18.25-33.89,21.8-12.15,3.19-24.49,5.69-36.84,8a217.88,217.88,0,0,1-21.83,2.47,3.62,3.62,0,0,1-2.61-2.39C336,581,336,565,336,549Z" transform="translate(-8.88 -78.09)"/></svg>