<svg id="Layer_1" data-name="Layer 1" xmlns="http://www.w3.org/2000/svg" viewBox="0 0 981.1 844.96"><defs><style>.cls-1{fill:#444;}</style></defs><path class="cls-1" d="M993.5,462.42c0,20.84.41,42-.15,63.09a306.85,306.85,0,0,1-3.55,39c-1.7,10.89-4.78,21.62-7.9,32.22-3.22,10.9-6.81,21.73-11,32.29-4.76,12-9.94,23.84-15.73,35.36-5.43,10.8-11.58,21.29-18,31.55-7.07,11.31-14.47,22.44-22.32,33.22-6.38,8.74-13.57,16.9-20.52,25.22s-14.64,16.5-21.16,25.34c-1.77,2.39-.78,7-.6,10.58s1.1,6.88,1.38,10.34c.48,5.83.38,11.71,1.11,17.5,1.62,13.07,3.12,26.19,5.59,39.12a248.94,248.94,0,0,0,7.94,29.13c3,9.34,6.82,18.4,10.13,27.64.91,2.56.67,4.32-3,3.06-11.29-3.83-22.9-6.82-33.92-11.27a173.5,173.5,0,0,1-25.54-13.39c-13.82-8.49-27.29-17.55-40.86-26.46-4.88-3.2-9.33-7.17-14.48-9.82-6.92-3.56-13.49.39-19.8,2.79-8,3-15.64,6.84-23.47,10.22-10.44,4.52-20.83,9.17-31.4,13.36-10.3,4.09-20.75,7.85-31.24,11.43-8.6,2.93-17.29,5.65-26.07,8-11.62,3.09-23.33,5.87-35.07,8.51-8.47,1.91-17,3.5-25.57,5-6.65,1.18-13.34,2.31-20,3-10.93,1.07-21.88,1.83-32.84,2.53-7.87.5-15.79,1.17-23.66.93-16.87-.51-33.74-1.44-50.59-2.45-8.8-.53-17.59-1.39-26.34-2.5-12.73-1.63-25.45-3.41-38.11-5.53-8.62-1.45-17.21-3.3-25.68-5.5-10.13-2.62-20.12-5.8-30.16-8.76-8.57-2.54-17.32-4.61-25.65-7.78-15.64-6-31.32-11.94-46.45-19-15.77-7.42-31.26-15.59-46.21-24.53-12.76-7.63-24.86-16.48-36.76-25.44s-23.35-18.07-34.22-28c-11.83-10.8-22.91-22.44-34-34-7.85-8.18-15.61-16.5-22.63-25.39-8-10.18-15.59-20.8-22.68-31.68-7.29-11.2-14-22.81-20.51-34.49a191.07,191.07,0,0,1-9.4-20.27c-4.48-10.85-8.86-21.75-12.81-32.8a188.72,188.72,0,0,1-6.91-23.46c-3-14-6.83-28-7.8-42.25-1.74-25.56-1.72-51.25-2.23-76.9a144.48,144.48,0,0,1,1-17.5c.79-7.75,1.67-15.52,3-23.19a210.47,210.47,0,0,1,5-21.35c3.43-11.89,7-23.75,11.06-35.43a221.8,221.8,0,0,1,10.63-25.88c6.55-13.21,13.32-26.36,20.95-38.95a441.3,441.3,0,0,1,25.45-37.66c8.66-11.45,18.3-22.19,28-32.84,8.09-8.94,16.5-17.64,25.35-25.82,10.14-9.35,20.72-18.27,31.49-26.89,9.93-8,20.18-15.53,30.65-22.76,7.69-5.3,15.9-9.85,24-14.58,7.46-4.37,15-8.68,22.6-12.71,6.44-3.4,13-6.6,19.7-9.45q19.74-8.41,39.69-16.29c7.69-3,15.53-5.74,23.4-8.25,9-2.88,18.1-5.51,27.21-8,7.35-2,14.76-3.91,22.21-5.49,9.58-2,19.22-3.84,28.88-5.51a178,178,0,0,1,18.53-2.47c15.48-1,31-2,46.49-2.5,15.11-.5,30.25-.73,45.37-.48,15.85.26,31.69,1.08,47.51,2A190.57,190.57,0,0,1,591,81.56c9.75,1.62,19.49,3.34,29.13,5.51,10.36,2.35,20.63,5.1,30.86,8,9.2,2.6,18.4,5.29,27.37,8.56,12.31,4.48,24.44,9.47,36.59,14.38,7.07,2.85,14.18,5.67,21,9,11.93,5.92,23.78,12,35.41,18.49,10,5.59,19.94,11.48,29.49,17.84,10.63,7.09,21,14.6,31.11,22.41,10.56,8.15,21,16.52,30.88,25.48,9,8.14,17.4,16.94,25.52,25.93,9.95,11,19.67,22.26,28.84,33.92,6.28,8,11.66,16.72,17.07,25.35,6.09,9.75,12.16,19.55,17.51,29.71a344.8,344.8,0,0,1,15.12,32.37c5.23,13.09,9.62,26.53,14.1,39.9a144.66,144.66,0,0,1,5.43,19.82c2.22,12.17,3.76,24.46,5.63,36.69C992.38,457.35,993,459.69,993.5,462.42ZM520,521.1c0,14.08.07,28.16,0,42.24,0,3.91-.61,7.81-1,11.71a4,4,0,0,1-.28.87,3.89,3.89,0,0,1-.78-.66c-3.48-5.39-7-10.74-10.41-16.19-5-8-9.88-16.15-14.87-24.19-5.83-9.4-11.8-18.72-17.59-28.15Q466.9,493.4,459,479.9c-8.25-14.16-16.31-28.43-24.56-42.59-5.55-9.53-11.14-19.06-17-28.39-3.26-5.18-11.31-5.74-16.27-3-5.41,3-6,8.26-6.06,13.37,0,22.54.23,45.08.42,67.62.13,16.12.33,32.25.49,48.37.17,16.54.2,33.09.55,49.63.2,9.1.81,18.2,1.49,27.28.51,6.7,5.3,10.15,13,9.81,5.21-.23,11.5-6.45,11.45-11.49-.11-11.54-.41-23.08-.46-34.63-.08-20.41,0-40.82,0-61.24,0-2.37-.44-4.75-.48-7.12q-.3-19.32-.46-38.63a2.09,2.09,0,0,1,.85-1.32c.14-.11.9.21,1.07.51,2.05,3.45,4.05,6.94,6,10.43,3.85,6.73,7.53,13.57,11.56,20.19,7.72,12.7,15.58,25.32,23.47,37.91,4.82,7.69,9.71,15.35,14.76,22.89,6.64,9.9,13.07,20,20.31,29.41,8.8,11.46,18,22.64,27.7,33.35,5.25,5.81,13.06,5.22,16.55-.89a30,30,0,0,0,3.47-13.54c.29-8.47-.72-17-.77-25.47q-.21-31.5,0-63c.12-15,.67-30,1-45,.23-12.71.34-25.42.52-38.12,0-.64.35-1.29.3-1.92-.65-7.82,2.61-16.07-2.18-23.43-3.57-5.49-9-5.76-14.7-4.38a11.2,11.2,0,0,0-8.74,9.82c-1.1,10.39-1.38,20.89-1.64,31.36-.36,14.28-.43,28.58-.54,42.87C519.94,500.77,520,510.93,520,521.1Zm72.79,15.62c.88,6.73,1.56,15.7,3.33,24.46,2.51,12.51,8.29,23.65,16.36,33.55a79.81,79.81,0,0,0,27.36,21.75,90,90,0,0,0,36.6,9.43,101.93,101.93,0,0,0,18.64-1,228.2,228.2,0,0,0,26.85-5.51c11.31-3.16,21-9.69,29.7-17.38,13.78-12.15,24.2-26.87,29.15-44.63,2.45-8.8,3-18.23,3.55-27.43.32-5.2-1.17-11.18-7.28-12.21s-12.85-.65-19.24-.13c-9.47.78-18.89,2.3-28.34,3.4-13.41,1.55-26.85,2.9-40.25,4.57-5.36.66-9.05,4-9.61,9.37-1,9.7,10.66,18.2,20,15a24.6,24.6,0,0,1,4.92-1c8.4-1,16.81-2,25.21-3,8.24-1,16.46-2.07,24.72-2.86.65-.06,2.31,2.05,2.13,2.83a69.82,69.82,0,0,1-15.2,30.49c-13.86,16.16-31.86,23.19-52.4,24.95-3.26.28-6.6-.77-9.91-.87-10.06-.32-19.25-3.35-28-8.16-15.75-8.65-25.32-22.2-28.87-39.29-3.5-16.84-3.32-34.19,2.31-50.6a146,146,0,0,1,15.27-32,126.35,126.35,0,0,1,22.3-25.41c6.88-6.07,15.57-10.21,23.76-14.65a44.38,44.38,0,0,1,32.07-4.19c12.51,3,19.48,12.64,26.45,22.52a25.43,25.43,0,0,0,11.49,8.89c4.69,1.66,9.71-1.7,10.83-6.32,1.26-5.17,1.85-11.58-.15-16.22-2.82-6.58-7.74-12.53-12.73-17.84-7.61-8.09-17.51-13-28.3-15.17-12.64-2.54-25.55-3.11-38,.94-8.53,2.76-17.13,5.75-25,9.93-13.11,6.95-25,15.95-34,27.9-7.48,9.94-15.17,20-20.67,31.06-5.62,11.28-9.48,23.64-12.57,35.92C593.15,516.38,593.65,525.54,592.79,536.72ZM243.5,511.82h.5c0-6.66,0-13.33.06-20,0-.62.87-1.73,1.38-1.76,10.42-.59,20.86-1,31.28-1.59s21-1.34,31.47-2c9-.54,18.08-1.09,27.13-1.48,6.1-.26,10.72-4.4,11.67-10.8.81-5.44-2.7-11.31-8.26-12.65a36.8,36.8,0,0,0-10.29-.53c-10.31.52-20.62,1.26-30.92,2-11.85.8-23.7,1.71-35.55,2.47-5.26.33-10.54.45-15.82.55-.54,0-1.55-.7-1.58-1.14-.59-8.37-.84-16.77-1.67-25.11-.41-4.15,1.75-5.12,4.89-5.24,10.5-.43,21-.6,31.51-1.08,5.52-.26,11-.95,16.54-1.46,10.89-1,21.88-1.4,32.63-3.2,7.9-1.32,15.67-4,23.14-7,4.38-1.74,4.69-9.11,1.56-13-3.58-4.43-8-5.43-13.53-4.94-13.59,1.2-27.22,1.81-40.84,2.61-14.78.87-29.56,1.73-44.35,2.49-8.83.45-17.7.34-26.49,1.13-6.79.62-14.77,5.66-13.94,14.31.37,3.77,1.17,7.51,1.45,11.29,1.24,17.11,3.14,34.22,3.34,51.34.27,22.76-.77,45.53-1.34,68.29-.16,6.59-.58,13.17-1,19.75-.77,11.79-2.16,23.56-2.18,35.34,0,4.25,2.19,9.66,7.65,10.61a73.72,73.72,0,0,0,16.26.86c9.05-.46,18.06-1.66,27.1-2.38,11.67-.92,23.35-1.81,35-2.48,9.16-.53,18.38-.27,27.49-1.18a99.62,99.62,0,0,0,20.65-4.29c4.69-1.52,7-6.57,5.28-11.54-1.1-3.26-4.29-7.81-7-8.14a174.17,174.17,0,0,0-28.26-.79c-16.83.65-33.63,1.84-50.43,2.92-8.15.53-16.33,1-24.4,2.16-2.87.4-2.79-.41-2.67-2.39.85-13.61,2-27.22,2.42-40.84S243.5,525.53,243.5,511.82Z" transform="translate(-12.55 -76.99)"/></svg>