<svg id="Layer_1" data-name="Layer 1" xmlns="http://www.w3.org/2000/svg" viewBox="0 0 924.33 979.43"><defs><style>.cls-1{fill:#444;}</style></defs><path class="cls-1" d="M522.35,368.2c.78-7.86,1.39-19.95,3.41-31.79.91-5.37,4-11.59,10.66-11.81,4.36-.14,10,1.19,13,4a169,169,0,0,1,21.91,25c10,14.4,18.84,29.59,28,44.54,6.24,10.15,12.18,20.48,18.32,30.69q13.74,22.85,27.58,45.62c7.91,13.09,15.77,26.21,23.74,39.27q13.89,22.74,27.94,45.39c7.66,12.38,15.56,24.6,23.05,37.08,5.28,8.81,10.44,17.73,14.9,27,3.11,6.46,4.79,13.65.57,20.49-3.38,5.49-11.78,8.11-18.12,7.35-13.21-1.58-25.29-6.33-37.4-11.43-6-2.52-12.4-4.75-18.8-5.42-12-1.25-23,3.27-32.53,9.82-14.22,9.83-28.46,20.07-40.76,32.1-8,7.87-14.11,18.62-18.5,29.15-6.62,15.87-11.35,32.58-16.24,49.13-3.87,13.14-6.64,26.59-10.14,39.84-4.79,18.13-9.51,36.28-14.85,54.25a211.11,211.11,0,0,1-10.84,29.18c-6.91,14.8-16.11,28.25-28.2,39.42-12.93,11.95-25.36,24.7-39.52,35a181.47,181.47,0,0,1-40.61,22.16c-15.12,5.88-31.27,10.47-47.34,12.27-22.05,2.47-44.46,2.35-66.71,2.27a154.75,154.75,0,0,1-50.18-8.4c-19.34-6.7-37.06-16.8-53.31-29-13.68-10.31-27.21-21.15-39.2-33.33a192.07,192.07,0,0,1-43.81-70.12c-6.65-18.36-11.71-37.06-13.25-56.48-1.2-15-2.45-30.18-1.33-45.1,1.64-21.94,3.88-44.05,8.6-65.48,5-23,12.46-45.62,20.34-67.86,7.26-20.48,16.55-40.24,24.87-60.34q10.51-25.38,20.87-50.82C175.37,485,182.16,468,189,451.13q15.23-37.54,30.47-75.09c5.14-12.68,10.19-25.39,15.3-38.08,10-24.86,20.11-49.67,30-74.57C272,245.26,279,227,286,208.83c6.67-17.2,13.55-34.33,19.89-51.67,5-13.57,9.38-27.35,13.69-41.15,1.13-3.58,1-7.57,1.34-11.38a8,8,0,0,0-.65-2.53,9.32,9.32,0,0,0-2.29,1.17c-6.2,5.79-12,12.07-18.57,17.37-17.74,14.25-36.35,27.21-58.27,34.4-11.65,3.82-23.67,3.16-35.55,1.38-7.6-1.14-15.06-3.25-22.58-4.92-8.28-1.84-9-2.77-6.14-10.63,6.28-17,13.12-33.82,19.18-50.91,1.76-5,3.69-6.92,9.21-6.65,7.87.4,16.12.75,23.65-1.12,9.16-2.28,18.77-5.44,26.34-10.81,10.81-7.67,19.92-17.74,29.81-26.71,10.2-9.25,19.15-20.26,32.26-25.62a131.59,131.59,0,0,1,25.82-7.82,99.74,99.74,0,0,1,26-1.52c18.85,1.56,36.35,7.62,49.68,21.68A207.82,207.82,0,0,1,440.75,59c4,6,6.26,13.3,8.57,20.26a138.65,138.65,0,0,1,6.69,47.4c-.41,16.24-4.17,31.84-8.71,47.33-5.75,19.62-11.12,39.35-16.84,59-6.62,22.7-13.41,45.35-20.19,68-2.61,8.74-5.49,17.4-8,26.17a5,5,0,0,0,1.43,4.15c11,9.78,20,21.14,25.05,34.85a84.47,84.47,0,0,1,5,25.22c.63,14.11-5.83,26.08-14.63,36.71a146.22,146.22,0,0,1-39.6,33.34c-.79.46-1.31,3.09-.75,3.92a106.93,106.93,0,0,1,14.76,34.53c3.74,15.31,3,30.39-3.22,44.72-5.93,13.72-15.39,25.13-28.38,32.77-8.41,4.95-17.68,8.45-26.49,12.75a3.15,3.15,0,0,0-1.16,2.82c5,13.56,11.06,26.79,15,40.64,5.3,18.73,2,36.69-8.4,53.4a109.38,109.38,0,0,1-29.67,31.89c-4.78,3.41-11.13,4.94-15.19,8.93a62.24,62.24,0,0,0-12.81,17.9c-6.63,14.43-6.71,29.43.38,43.88,5.69,11.61,15.89,17.64,28.2,19.85,13.85,2.49,24.8-3.38,34.23-13.11,11.78-12.15,18.7-26.75,21.94-43.13,3.41-17.25,6.19-34.63,9.62-51.88,2.72-13.74,5.7-27.46,9.12-41,3.59-14.3,7.06-28.71,12-42.56,7.86-22.05,15.72-44.24,25.79-65.32,8.23-17.23,19-33.4,29.93-49.15,8.12-11.7,18.63-21.71,27.43-33,9.9-12.67,19.8-25.45,28.37-39C521.47,413.41,524.57,393.3,522.35,368.2ZM251.62,610.76c-13.42,1.25-26.86,2.33-40.24,4-1.7.2-8-1.82-5.1,4.15,6.28,12.94,12.19,26.19,19.87,38.29,12.54,19.77,31.64,28.66,54.86,29.39,22.08.68,34.91-17.17,35.91-36.09.74-13.89-8.56-21.62-19.14-27.73A87,87,0,0,0,251.62,610.76ZM361.16,422c11.58.66,22.77-2.13,30.37-12.84,9.76-13.76,10.79-25.72,2.87-36.68-5.94-8.22-15.19-11.79-24.42-14.93-14.14-4.81-28.58-7.28-43.46-4C311,357,295.6,360.58,280.17,364.19a1.68,1.68,0,0,0-.25,1.45c10.78,12.85,21.34,25.89,32.58,38.33a52.65,52.65,0,0,0,14.67,10.89C337.45,420.2,348.68,422.29,361.16,422Zm-58.79,59.17c-21.79-1.22-41.14,4.49-60.38,10.73a2.9,2.9,0,0,0-.62,2.62c5.37,7.06,10.71,14.16,16.4,21,14,16.66,28.86,31.55,52.44,33.78,16.52,1.56,32.25,1.82,43-13.44,5.38-7.64,8.38-16.36,6.35-26.11-2.22-10.71-10.2-16.25-19.1-20.31C328.07,483.73,315.24,479.2,302.37,481.14ZM503,728.42c1.44-18.79-19.23-37.72-36-38.63-21.78-1.17-40.22,20.18-40.61,36.93-.49,21.06,19.13,40,39,40.09C484.55,766.86,503.82,751.22,503,728.42ZM471,605.27c-.32,20.28,18.79,38.55,38.43,38.4,20-.14,37.2-18.11,38-36.94.89-21.46-18.54-40.1-38.32-40C489.7,566.75,470.74,584.7,471,605.27Z" transform="translate(-36.48 -9.42)"/><path class="cls-1" d="M643.17,344.68c1-17.45,6.29-31.23,17.3-43.17,8.26-8.95,18.11-15.57,29.52-17.27,12.3-1.83,25.4-3.11,37.32,3.38l2.08,1.14a13,13,0,0,0-.1-3.13c-1.54-5.73-3.13-11.44-4.81-17.13q-9.21-31.12-18.47-62.25c-3.38-11.45-6.63-22.94-10-34.39q-5.94-20-12-40c-1.55-5.12-3.22-10.21-4.63-15.37a4.15,4.15,0,0,1,.7-3.4c.55-.57,2.25-.51,3.22-.15a138.1,138.1,0,0,0,57.34,8.56,71.64,71.64,0,0,0,48-21.4c3.67-3.65,7.2-7.44,10.73-11.22,1.84-2,2.93-2.06,3.78.85Q810.47,114.9,818,140c1.91,6.35,4.66,12.56,5.63,19,.34,2.31-3,5.78-5.39,7.8a114.38,114.38,0,0,1-46.35,23.11,82.67,82.67,0,0,1-18.31,2.46c-9.83.16-19.67-.59-29.5-.72-.51,0-1.73,2.32-1.47,3.23,4.77,16.72,9.72,33.39,14.61,50.08q4.66,15.91,9.25,31.85c3.42,11.85,6.46,23.82,10.27,35.53,3.76,11.54,7.89,23.06,6.64,35.32-2.06,20.21-10.93,36.64-28.76,47.52-10,6.13-20.81,9.64-32.61,9.28-13.79-.41-25.88-5.62-36.46-14.23-11-9-17.73-20.62-20.53-34.51C644.19,351.59,643.62,347.41,643.17,344.68Z" transform="translate(-36.48 -9.42)"/><path class="cls-1" d="M917.9,148.55c-9.25-1.89-18.48-3.83-27.75-5.57-.75-.13-2.57,1.23-2.53,1.8.67,9.64,1.52,19.26,2.42,28.87.76,8.13,1.66,16.24,2.45,24.37,1.36,13.9,2.36,27.85,4.09,41.71s-7.57,32.86-19.76,39.82c-13.58,7.76-27.43,9.09-41.57,2-11-5.51-17.42-14.65-21.47-26.36-3.82-11.05-1.18-21,3.13-30.54a38.3,38.3,0,0,1,19-18.85c14-6.57,27.66-6.06,41,1.84a10,10,0,0,0,2.41.68,13.69,13.69,0,0,0,.42-3.26c-.87-8.6-1.85-17.19-2.75-25.79q-2-19.36-4-38.74c-.76-7.82-1.3-15.67-2-23.5-.92-9.66-2-19.3-2.89-29-.13-1.5.3-3.57,1.29-4.47.65-.59,3,.08,4.22.79,14.12,8.06,29,13.52,45.51,12.53a52.55,52.55,0,0,0,30.45-11.68,39.61,39.61,0,0,1,5.28-3.12c.88,2.7,2.29,5.36,2.57,8.13,1.36,13.85,2.59,27.73,3.4,41.62.12,1.94-1.82,4.91-3.64,5.92-12.07,6.66-24.91,10.64-39,9C918.07,147.36,918,148,917.9,148.55Z" transform="translate(-36.48 -9.42)"/><path class="cls-1" d="M36.52,24.82c.32-.25.95-1.09,1.73-1.27,11.32-2.68,22.67-5.23,34-7.89,7.73-1.82,15.38-4,23.18-5.4,1.34-.23,3.38,2.7,4.89,4.35,7.89,8.65,15.39,17.68,23.64,26,9.74,9.77,20.09,18.94,30.23,28.32,1.61,1.5,3.52,2.69,5.19,4.14a2,2,0,0,1,.45,1.78q-18.69,25.85-37.61,51.53c-.71,1-3.15,1.47-4.41,1.06C101.53,122.07,87.49,112.89,75.4,101c-11.92-11.74-22-25.09-27.94-40.88-4.16-11-7.33-22.33-10.93-33.52A8.76,8.76,0,0,1,36.52,24.82Z" transform="translate(-36.48 -9.42)"/></svg>