<svg id="Layer_1" data-name="Layer 1" xmlns="http://www.w3.org/2000/svg" viewBox="0 0 670.16 977.75"><defs><style>.cls-1{fill:#ddd;}</style></defs><path class="cls-1" d="M682.11,988.5c-5.21,0-10.63.93-15.59-.18-13-2.89-26.09-5.68-38.46-10.36-14.45-5.47-28.41-12.43-42.13-19.62-11.13-5.84-21.75-12.72-32.29-19.6-8.17-5.34-16.06-11.15-23.74-17.18-11.65-9.16-23.26-18.43-34.44-28.15-9.8-8.52-19.13-17.61-28.42-26.69-8.39-8.19-16.65-16.54-24.61-25.14-8.56-9.26-16.82-18.78-25-28.39-9.43-11.11-18.78-22.3-27.83-33.73-7.62-9.62-14.86-19.57-22.09-29.5-6.72-9.23-13.35-18.52-19.74-28-6.93-10.28-13.56-20.77-20.28-31.19-4.5-7-9.06-13.93-13.37-21-3.89-6.41-7.51-13-11.19-19.53-5.29-9.42-10.58-18.85-15.77-28.33q-5.73-10.49-11.2-21.13c-5.71-11.17-11.46-22.32-16.92-33.62s-10.77-22.91-16-34.46c-3.17-7.06-6.07-14.25-9-21.43-4.73-11.67-9.51-23.32-14-35.08-3.36-8.83-6.32-17.81-9.39-26.74-3.78-11-7.71-21.92-11.13-33-2.87-9.3-5.15-18.77-7.57-28.2-2.27-8.85-4.39-17.74-6.53-26.62-1.37-5.7-2.8-11.39-4-17.13q-3.17-15.62-6-31.29c-1-5.48-1.8-11-2.5-16.53q-2.11-16.8-4-33.62c-.76-6.71-1.67-13.43-2-20.17-.56-13.63-1.07-27.28-1-40.91a240.71,240.71,0,0,1,2-29.15c1.68-12.69,3.11-25.59,6.66-37.81a266.38,266.38,0,0,1,16.55-43.37c5.55-11.22,13.75-21.23,25.07-27.78Q235,53.07,253.8,42.52c9.44-5.27,18.79-10.77,28.57-15.33,8.24-3.85,17-6.56,25.59-9.68a92.17,92.17,0,0,1,37.64-5.44c15.16,1,28.7,6.44,40.88,15.6,12.89,9.7,22.74,22,30.63,35.84a264.12,264.12,0,0,1,15.44,31c6.61,16.26,12.88,32.74,18,49.52,3.63,12,5.64,24.58,7.31,37,1.26,9.44,2,19.21.95,28.62-2.26,21.27-11.55,39.44-28.87,52.38-11.44,8.55-23.79,15.93-36,23.35-8.7,5.28-18.45,9-26.64,14.86-5.26,3.79-9.61,9.79-12.52,15.71-6.72,13.69-4.87,28.61-3,43,1.61,12.08,4.94,24,8.39,35.76s7.56,23.26,12.11,34.6c5.88,14.69,12.29,29.18,18.82,43.6,5.26,11.61,10.85,23.08,16.65,34.42,6.34,12.4,13.09,24.59,19.68,36.86,4.44,8.28,8.77,16.64,13.41,24.81,5.17,9.09,10.61,18,16,27,5.72,9.56,11.2,19.28,17.3,28.58,7.77,11.83,15.87,23.44,24.18,34.89,6.24,8.6,12.67,17.12,19.7,25.07,7.68,8.69,15.53,17.44,24.45,24.76a145.23,145.23,0,0,0,28.35,18.29c11.53,5.6,23.2,3.08,34.09-3.65a243.24,243.24,0,0,1,21.59-11.87c11.47-5.57,23-11.2,34.85-15.77,6.25-2.41,13.31-3.25,20.07-3.64a103.09,103.09,0,0,1,22.28,1,67.89,67.89,0,0,1,33.12,15.11,474.53,474.53,0,0,1,36.16,33.42c8.34,8.68,15.43,18.66,22.35,28.56,8.3,11.88,16.13,24.13,23.58,36.56a105.76,105.76,0,0,1,9,19.85,152,152,0,0,1,6.92,25.72c1.31,8.33,2,17.09.92,25.39a65.54,65.54,0,0,1-14.16,33.2,163.89,163.89,0,0,1-20.81,21.25A205.8,205.8,0,0,1,775,950.86c-9.44,5.74-19.48,10.49-29.28,15.64-8.7,4.57-17.26,9.49-26.2,13.54a136.53,136.53,0,0,1-21.17,7.33c-5.22,1.39-10.76,1.55-16.17,2.25C682.16,989.25,682.13,988.87,682.11,988.5Z" transform="translate(-166.1 -11.88)"/></svg>