<svg id="Layer_1" data-name="Layer 1" xmlns="http://www.w3.org/2000/svg" viewBox="0 0 973.85 544.9"><defs><style>.cls-1{fill:#444;}</style></defs><path class="cls-1" d="M507.65,434.87c-2.89,12.26-5.45,24.62-8.78,36.76-3.58,13.06-8,25.89-11.84,38.88-2.09,7.06-4,14.2-5.45,21.41-1.38,6.74-2.22,13.6-3,20.43-.58,4.79-1.31,9.68-.94,14.45,1.07,13.63,4.56,26.45,12.26,38.17,8.74,13.34,19.92,23.76,34.13,30.59,10.94,5.26,22.76,7.32,34,1.09,2.47-1.36,4.06-6.84,3.74-10.21-1-10-3.28-19.94-4.65-30-.78-5.74-1.49-11.67-.94-17.39,1.75-18.09,6.81-35.3,19.32-49,6.11-6.66,14.1-11.65,21.46-17.09s10.08-7.31,5.89-21c-3-9.82-6.22-19.6-8.44-29.59-1.82-8.21-2.46-16.69-3.32-25.08-.74-7.17-.51-14.48-1.71-21.57s-2.45-8.85-11.57-9.25c-15.06-.65-28.9-5.91-42.25-12A221.86,221.86,0,0,1,500.68,375c-9-6.34-17.13-14.42-24.37-22.82a164.64,164.64,0,0,1-18.46-26.86c-5-8.87-10.23-18.19-9.59-28.84.22-3.7,2.68-9.08,5.56-10.32,3.61-1.55,10.24-1.32,12.91,1.09,12.43,11.24,23.66,23.79,35.88,35.28,7.59,7.12,15.6,14.18,24.51,19.4a71.19,71.19,0,0,0,25.23,8.78c11.71,1.67,23.77,1.47,35.67,1.18,8.67-.21,17.33-1.67,25.94-2.93,5.63-.81,11.14-2.39,16.74-3.38,4.86-.86,9.8-1.27,14.67-2.08,6.28-1,12.5-2.47,18.79-3.4,5.23-.78,10.52-1.17,15.8-1.54,8.43-.6,16.89-1.71,25.29-1.36a203.7,203.7,0,0,1,32.44,3.48,235.48,235.48,0,0,1,37.82,10.61c12.36,4.8,24.17,11.26,35.73,17.85a140.23,140.23,0,0,1,23.17,16.37c5.92,5.19,5.11,9.76-1.38,17.57-3.6,4.33-7.56,9.5-14.16,8.27-4.13-.77-7.87-3.46-11.88-5-8.07-3.17-16.08-6.52-24.33-9.13-8.59-2.71-17.37-4.89-26.16-6.83-8-1.78-16.17-3.11-24.31-4.28-8.52-1.24-17.09-2.11-25.65-3-5-.53-7.91,1.76-8.57,6.89-.91,7.06-2.12,14.08-2.92,21.14a97.89,97.89,0,0,0-.95,15.65c.47,9.62,1,19.3,2.62,28.76a47.58,47.58,0,0,0,6.56,16.82c1.6,2.56,6.11,4,9.53,4.54,5.35.85,11-.23,16.32.83,11.81,2.38,24,4.25,35,8.75a74.21,74.21,0,0,1,34.51,28.71,90.25,90.25,0,0,1,10.1,20.53c2.77,8.51,3.89,17.55,5.74,26.35.32,1.57.75,3.12,1,4.7.6,3.1,1.94,1.51,3.66.9,6.77-2.39,13.69-4.36,20.49-6.65q16.06-5.41,32-11.05c11.39-4,22.73-8.19,34.07-12.37,10.3-3.8,20.53-7.77,30.84-11.56Q955.95,518.9,975.3,512a73.25,73.25,0,0,1,9.75-2.47c1-.2,2.79,0,3.11.61a3.94,3.94,0,0,1-.26,3.42c-5,7.39-9.68,15.06-15.34,21.91-11.53,14-23.13,28-35.61,41.07a422.27,422.27,0,0,1-34.71,32.29c-11.35,9.52-23.56,18-35.64,26.66a174,174,0,0,1-19.7,12.19c-14.67,7.74-29.31,15.62-44.45,22.35-14,6.22-28.54,11.29-43,16.32-8.84,3.06-18,5.29-27.09,7.55-10.53,2.62-21.13,5-31.74,7.22-7.11,1.49-14.37,2.31-21.46,3.9-11.71,2.62-23.57,4.92-34.9,8.72-6.38,2.14-12.5,6.31-17.56,10.86-7.23,6.53-12.58,15.31-20.21,21.2-10.36,8-22,14.34-33.34,21.07a38.55,38.55,0,0,1-11,4.05c-2.07.49-6.11.12-6.41-.79a10,10,0,0,1,.58-7.53c6.59-10.75,13.78-21.14,20.43-31.86a45.22,45.22,0,0,0,4.48-11.11c.19-.66-2-2.59-3.45-3.08-7.54-2.67-15.28-4.82-22.78-7.63-16.75-6.27-34.1-11.49-49.89-19.67-14.23-7.37-27.48-17.2-39.73-27.62A123.85,123.85,0,0,1,433.89,621c-4.25-8.84-8.51-17.87-11.16-27.27-3-10.7-4.47-21.87-6.13-32.91-.89-5.89-1.68-12.05-.91-17.87,1.74-13.16,4.56-26.16,6.78-39.25,1.49-8.83,3.27-17.67,3.86-26.57.55-8.13-7.57-9.72-14.07-8.48-23,4.4-42,16.23-57.93,32.9-10.35,10.82-20,22.31-29.73,33.74-8.63,10.18-16.79,20.75-25.28,31-9.24,11.21-18.46,22.45-28,33.42-10,11.57-19.78,23.47-30.77,34.07a441.5,441.5,0,0,1-41.23,35.61c-10.92,8.2-23.39,14.42-35.49,20.94-9,4.85-18.25,9.59-27.92,12.81a90.81,90.81,0,0,1-24.84,4.09,331.29,331.29,0,0,1-39.36-.48C55.31,705.54,39.23,702.3,25,693c-7.92-5.16-13-16.68-9.09-25.08,1.44-3.11,6.75-5.79,10.56-6.2,13.86-1.49,27.82-2,41.76-2.73,6.62-.35,13.33.22,19.86-.66,11.34-1.53,23-2.63,33.73-6.2,12.36-4.09,24.86-9.25,35.53-16.55a225.16,225.16,0,0,0,36.42-31.42c14.8-15.71,28.28-32.69,41.72-49.6,10.65-13.4,20.13-27.72,30.61-41.26,9.58-12.4,19.57-24.51,29.79-36.38a146.16,146.16,0,0,1,44.83-35c9.38-4.77,18.83-9.48,28.56-13.46a209.33,209.33,0,0,1,26.83-8.92c12.81-3.31,25.74-6.34,38.79-8.46a233.44,233.44,0,0,1,36-3.39c9,0,18.82.24,26.11,6.89,3.53,3.21,6,7.78,8.31,12.06,1.21,2.23,1.09,5.18,1.57,7.81ZM766,572.58c-.65-4-1.25-8.13-2-12.2-1.24-7-3-13.72-8.83-18.52-8.57-7-19.16-7.15-29.27-8.14-6.64-.65-13.55.4-20.24,1.36-10.45,1.51-21,2.93-31.15,5.6a229,229,0,0,0-32.48,11,168.82,168.82,0,0,0-26,14.48c-6,4-11.21,9.43-12,17.17-.39,3.83.4,7.84,1,11.71,1.16,7,2.45,13.94,4.08,20.81.41,1.73,2.35,4.39,3.55,4.37,3-.05,6-1.45,9-2.2q17.32-4.29,34.68-8.52L678.69,604c7.45-1.83,14.89-3.67,22.34-5.47,8.4-2,16.79-4.1,25.21-6,9.16-2.09,18.41-3.8,27.5-6.15,3.73-1,9.11.84,10.62-4.9C765.11,578.64,765.42,575.68,766,572.58Z" transform="translate(-14.58 -226.27)"/><path class="cls-1" d="M676.92,278.17c-.11,20.16-16.56,38.4-34.76,42-7.41,1.47-14.37,1.17-21-1.51-8-3.24-14.8-8.87-18-17-2.91-7.53-5.51-15.63-5.89-23.59a55.83,55.83,0,0,1,10.31-35.12c4.86-7,10.87-12.29,18.62-15.15,7.37-2.72,14.92-1.72,21.74,2.45,11.56,7.08,19,17.72,24.34,29.79C674.79,265.66,675.44,272.1,676.92,278.17Z" transform="translate(-14.58 -226.27)"/></svg>