<svg id="Layer_1" data-name="Layer 1" xmlns="http://www.w3.org/2000/svg" viewBox="0 0 900 900"><defs><style>.cls-1{fill:#444;}</style></defs><g id="iW74cP.tif"><path class="cls-1" d="M54.22,152.26c.2-76.57,78.89-122.48,145.39-84.88,13.27,7.5,24.73,17.16,35.44,27.9q73.9,74.15,148,148.08c7.85,7.79,13,15.89,15.76,26.95,13.14,52.25,50.22,83.28,104.09,87.62,12.84,1,23.9,4.84,32.73,14,10.36,10.72,12.89,23.18,1.83,34.42q-65.14,66.19-131.24,131.42c-8.37,8.29-19.1,9.83-29.92,4.67-11.06-5.29-17.63-13.93-19-26.63-8.22-73.92-27.92-97.95-97.46-117.85-7-2-10.88-6.64-15.26-11q-77.22-77-154.1-154.43C68.45,210.34,54.26,184.46,54.22,152.26Z" transform="translate(-50 -50)"/><path class="cls-1" d="M518.3,593.61c-49.9,49.8-97.7,97.78-145.9,145.34-8.21,8.1-12.81,15.46-10.45,28,20.86,110.52-82.85,214.59-208.59,174.15,29.89-29.8,58.5-58.6,87.44-87.07,12-11.84,22-24.77,25.54-41.61,6-28.72-5.93-56.49-30-70.61-25.75-15.09-58.11-11.65-81.56,10.6-26.66,25.29-52.06,51.91-78.22,77.75-5,4.92-8.79,11.5-17.29,14C41.76,790.09,48.59,739.84,83.82,695.54c36.34-45.68,85.26-65.31,143-57.46,17.05,2.31,28.07-.44,39.42-12.86,18.94-20.74,39.43-40.05,59.28-59.94,4.9-4.91,7.69-10.39,17.05-3.24,36,27.54,67.27,25.53,98.77-8.18,14.55-15.57,22.69-15.48,35.84.38C489,568.46,503.92,580.07,518.3,593.61Z" transform="translate(-50 -50)"/><path class="cls-1" d="M939.78,155.31c37.05,92-31.36,201.31-129.37,207.81-5.74.38-12,2.06-17.17.37-36.46-11.94-57.49,9.59-79.69,33.32-34.91,37.34-72.3,72.33-107.83,109.11-9.28,9.6-15.44,10.94-23.27-.2-2-2.91-5-5.15-7.56-7.71-11.68-11.75-29.13-21.71-33.46-35.74-4.66-15,17.78-22.5,26.07-35.26,16.12-24.79,16.68-56-4-77.6-11.33-11.84-6.38-16.71,2.06-24.92,22.19-21.6,43.59-44,65.87-65.52,7.4-7.15,9.06-13.28,7.46-24.12-18.1-122.63,85-212.38,202.81-177.11,2.61,7.47-4.33,9.86-7.89,13.49-25.74,26.22-52.07,51.84-77.64,78.22-30.19,31.13-31.31,73.24-3.35,100.06,27.41,26.3,67.31,23.6,98-6.9,28.6-28.43,57-57.09,85.47-85.63C936.75,156.52,937.52,156.37,939.78,155.31Z" transform="translate(-50 -50)"/><path class="cls-1" d="M486.14,512.93c24.8-27.76,24.83-27.78,49.09-3.51,75.86,75.9,151.93,151.59,227.26,228,10.71,10.86,19.89,16.47,35.3,11.25,35.54-12,59-1.17,76,34.43,15.65,32.83,38.32,62.37,58.66,92.84,6.27,9.41,6.54,15.38-2.44,23.17-14.63,12.68-26.36,34.51-42.47,38C871.18,940.75,855,920.09,838.74,910c-28.07-17.41-55.36-36.11-83.72-53-11.07-6.6-16.16-14.11-11.82-26,13.88-38.13-.49-64-29-91.09C636.38,666.06,561.89,588.78,486.14,512.93Z" transform="translate(-50 -50)"/></g></svg>