<svg id="Layer_1" data-name="Layer 1" xmlns="http://www.w3.org/2000/svg" viewBox="0 0 965.55 981.91"><defs><style>.cls-1{fill:#444;}</style></defs><path class="cls-1" d="M134.22,544.92c-10.9-93.88,10.67-179.67,65.27-256.24,55.59-78,130.39-129.85,224.25-149.65,115.19-24.3,222.37-2.51,314.91,71.76,98.86,79.35,146.74,183.77,141.93,311.47-3.06,81.37-29.84,153.89-81.46,216.51C717,838.4,610.89,885.65,481.65,879.89a268.36,268.36,0,0,1-38-4.25c-101.79-19.4-184.47-69.74-244.39-154.77C162.1,668.18,138.68,609.73,134.22,544.92Zm545,13.58c10.23,0,11.82,2.24,8.24,8.11-8.21,13.43-16.9,26.57-24.89,40.12-8.33,14.12-17,28.15-23.77,43s-11.5,30.59-16.7,46.09c-3,8.84-5,18-7.61,27-3.54,11.94-6.85,24-11.12,35.66a279.65,279.65,0,0,1-13.17,29.94c-6,12-14.12,22-26.64,28.28-7.89,4-23.76,3.71-31.27-1.58-11.37-8-19.18-18.7-25.47-30.91-8.27-16.06-13.17-33.25-17.15-50.68-2.6-11.39-3.89-23.08-5.62-34.65-1-6.58-1.38-13.25-2.6-19.77-1.7-9.05-3.64-18.08-6-27a38.84,38.84,0,0,0-24.29-27.31c-11.32-4.41-23.32-7.12-35.11-10.26-10.93-2.91-22.06-5.12-33-8.13-8.74-2.41-17.56-4.94-25.83-8.57-7.05-3.09-14.38-6.82-19.73-12.13-6-6-10.37-13.75-14.59-21.23-3.75-6.68-7.93-13.77-9.06-21.12-1.74-11.29-1.24-22.94-1.32-34.45-.1-15.1,2.2-29.94,10.74-42.62a153,153,0,0,1,21.23-25.11c10.25-9.77,23.65-14,37.43-15.53,15-1.7,30.11-1.14,44.75,3.36,8.21,2.53,16.49,5,24.45,8.15,7.36,2.95,14.4,6.72,21.46,10.38s14.17,7.86,21.34,11.62c6.53,3.42,13.12,6.78,19.85,9.78,3.4,1.51,7.72,3.89,10.68,2.93a215.72,215.72,0,0,0,29.48-12c14.18-7,28-14.83,41.89-22.4,6.32-3.44,7.21-8.67,2.68-13.86-2.25-2.59-5.45-5.29-2.65-9,7.08-9.49,14.43-18.76,21.7-28.1,2.81-3.61,1.91-10.16-2.41-11.34a91.37,91.37,0,0,0-21.12-3.35c-3.28-.1-8,2-9.74,4.65a173.6,173.6,0,0,0-12.68,24.07c-3.43,7.74-5.24,16.24-9.06,23.74-2.1,4.12-6.34,8.41-10.58,9.92-8.92,3.19-16.29-2.75-21.78-8.44-10.75-11.16-20.35-23.44-30.19-35.45-6.71-8.21-12.65-17.07-19.64-25-4.38-5-10.16-8.75-17.55-6.83C451.72,361.31,445,370,438.6,378.36c-11.33,14.94-24.9,24.91-44.58,23a24.24,24.24,0,0,1-10.83-4.15c-4.65-3.18-4.43-8,.26-10.59a73.3,73.3,0,0,1,14.11-6c11-3.27,11.84-6,3.84-14-.41-.41-1-.75-1.22-1.24-1.43-2.82-4.33-6-3.84-8.47a26.1,26.1,0,0,1,6-11.83c11.68-13,25.9-22.22,43.39-24.81,9.56-1.42,19.88-2.89,29-.74,9.29,2.19,17.63,8.65,26.21,13.55,4.36,2.49,16.7,3.08,19.6-.75,5.21-6.85,9.47-14.43,13.88-21.86,2.57-4.32,4-9.23-1.36-12.41-3.25-1.93-7.29-2.65-11.06-3.55-8.23-2-16.64-3.28-24.75-5.65-5.21-1.52-6.19-6.95-1.93-10.3,5.42-4.28,11.1-8.56,17.32-11.44C526,261,539.78,255.52,553.47,250c7.4-3,14.94-5.57,22.53-8,11.62-3.68,23.35-7,35-10.58,8.06-2.46,16.19-4.79,24.08-7.74a13.33,13.33,0,0,0,9-13.37c-.22-3.39-3.74-7.6-6.93-9.52a100.24,100.24,0,0,0-20.35-9.21c-12.12-4-24.42-7.49-36.82-10.53-9.8-2.39-19.81-4.06-29.81-5.52a199.82,199.82,0,0,0-26-2.45c-13.47-.18-27,0-40.41,1-13.11,1-26.2,2.71-39.15,5-11.59,2.05-23,5.1-34.43,8.08-7.43,1.95-14.95,3.95-22,7q-21.27,9.3-42,19.88a275.45,275.45,0,0,0-25.11,14.95c-8.57,5.61-16.78,11.79-25.14,17.71l-.74.5a8.19,8.19,0,0,0,.81.23c6.32,1.17,12.66,2.25,18.95,3.54,10,2,11.91,5.37,6.52,14a233.52,233.52,0,0,1-18.44,25,248.18,248.18,0,0,1-21,22.52c-14.19,13.28-28.82,26.09-43.39,39a61.27,61.27,0,0,1-26.38,14.06c-3,.73-7.31,1.11-8.58,3.15a97.41,97.41,0,0,0-9.61,20.07c-4,12.05-7.35,24.35-10.58,36.64-2.2,8.38-4.07,16.88-5.48,25.43-1.7,10.33-2.76,20.76-4.09,31.15-.27,2.15-.49,4.31-.74,6.46,2.06-1.2,4.12-2.4,6.16-3.62.55-.33,1-.78,1.6-1.08,6.5-3.42,12.71-7.75,19.59-10,9.95-3.29,15.24,2.11,18.16,11.1,3.75,11.53.63,22.81-5.24,33.1a124.55,124.55,0,0,1-11.69,17.23,180.41,180.41,0,0,1-16.39,17.25c-3.49,3.26-6.56,6.63-5.83,11.43a192.12,192.12,0,0,0,5,24c3.23,11.27,7,22.4,11,33.45,2.86,8,6.11,15.85,9.72,23.52,3.5,7.43,7.59,14.59,11.58,21.78,3.75,6.75,7.28,13.69,11.69,20,7.3,10.45,15,20.68,23,30.59,7.15,8.82,14.45,17.65,22.66,25.45a380.43,380.43,0,0,0,34.48,29.44,324.56,324.56,0,0,0,37.64,24.13c12.95,7.09,26.6,13,40.28,18.63a259.59,259.59,0,0,0,31.65,10.5c12.12,3.24,24.47,5.63,36.79,8.06,6.28,1.24,12.69,1.9,19.07,2.52,5.81.56,11.66.9,17.51,1,23.46.48,46.87-.2,70-4.45,4.67-.85,9.51-1,14.09-2.16,9.88-2.52,19.68-5.36,29.44-8.32,7.32-2.22,14.81-4.18,21.7-7.39,16.18-7.52,32.33-15.18,47.92-23.83a222,222,0,0,0,31.47-21.16c13.15-10.6,25.69-22,37.83-33.77a234.14,234.14,0,0,0,23.41-26.44c8.77-11.54,17.41-23.37,24.42-36,9.52-17.14,17.65-35.05,25.94-52.84,3.15-6.78,5.19-14.09,7.56-21.22,1.64-4.91,4.49-10-1.53-14.25a14,14,0,0,1-4.36-4.7c-6.14-11.91-12.43-23.77-17.92-36-3.41-7.58-8.39-13.25-16.32-14.78a235,235,0,0,0-30.53-3.57c-19.59-1.17-39.2-1.68-58.8-2.64-8.48-.42-16.94-1.72-25.42-1.85-10-.14-20.24-.86-29.83,1.23-14.23,3.11-24.57,14.45-22.77,31,.63,5.8,5.87,11.94,10.8,11.53,9.27-.77,18.52-1.92,27.74-3.21C665.08,561,673.58,559.43,679.2,558.5Z" transform="translate(-17.63 -7.3)"/><path class="cls-1" d="M853.18,102.58c-1.63,6.7-3.56,14-5.15,21.35-1.79,8.21-.4,10.64,6.89,15.3,9.56,6.11,18.92,12.56,28.46,18.71a66.2,66.2,0,0,0,9.18,4.71c.49.22,2-.73,2.32-1.46,5.77-11.58,11.36-23.25,17.16-34.81,4.76-9.49,9.74-18.85,14.61-28.28a59.68,59.68,0,0,0,3.78-7.81c1.33-4,4-4.53,6.89-2.56,3.9,2.62,8.33,5.28,10.71,9.06,1.61,2.56.61,7.21-.17,10.71-1.19,5.36-3.3,10.5-4.84,15.79-3.73,12.83-7.3,25.71-11,38.54-2.05,7-4.73,13.83-6.28,20.92-.5,2.28,1,6,2.8,7.6,12.37,10.89,25.6,20.85,37.47,32.24,6.72,6.45,11.79,14.79,16.74,22.82,1.66,2.7-1.17,6.58-4.77,5.9-6.56-1.23-13.3-2.81-19.27-5.68a231.21,231.21,0,0,1-26.13-15,211.73,211.73,0,0,1-22.76-16.85c-5.14-4.42-7.62.3-10.69,2.09-6.68,3.89-13,8.46-19.48,12.63q-22.32,14.24-44.73,28.35c-8.82,5.55-10.91,2.91-19.35-5-5.54-5.17-1-7,2.25-9.95,6.39-5.78,12.52-11.85,18.83-17.73,8.58-8,17.24-15.9,25.83-23.89q5.82-5.4,11.46-11a1.86,1.86,0,0,0-.23-1.8q-15.2-13.28-30.51-26.42c-2.8-2.4-5.82-4.54-8.69-6.86-5.35-4.33-8.83.58-12.55,2.81-6.38,3.82-12.27,8.47-18.71,12.19-1.07.62-4-1.49-5.81-2.76-2.75-2-5.09-4.52-7.91-6.35-2.55-1.65-2.45-2.63-.31-4.58,9.26-8.43,18.88-16.53,27.35-25.7,5.28-5.72,9-13,12.9-19.83,3.57-6.34,6.27-13.16,9.67-19.6.27-.52,3.37-.35,4.37.46C847.26,93.93,852.92,95.56,853.18,102.58Z" transform="translate(-17.63 -7.3)"/><path class="cls-1" d="M61,541.74c0,13.24,0,26.48-.11,39.72a3.47,3.47,0,0,1-2.37,2.43q-17.61.24-35.22,0a3.11,3.11,0,0,1-2.2-2.13c-.3-12.94-.11-25.91-.69-38.84-.6-13.41-2-26.79-2.78-40.2-.06-1,1.71-3.08,2.66-3.09,12.73-.21,25.47-.19,38.21,0A3.47,3.47,0,0,1,60.89,502C61.05,515.26,61,528.5,61,541.74Z" transform="translate(-17.63 -7.3)"/><path class="cls-1" d="M507.13,49c-13.16,0-26.33,0-39.49-.11a3.68,3.68,0,0,1-2.53-2.53c-.5-11.5-.86-23-.93-34.51,0-.77,2.58-2.12,4-2.25,4.85-.43,9.74-.46,14.62-.59,18.92-.52,37.87-.69,56.77-1.68,6.54-.35,8.27,2.3,8.41,7.87.27,10.56.69,21.11.89,31.67a3,3,0,0,1-2,2C533.63,49,520.38,49,507.13,49Z" transform="translate(-17.63 -7.3)"/><path class="cls-1" d="M131.73,266.81c-2.93,5.4-5.68,10.59-8.54,15.73-6.9,12.43-13.74,24.91-20.85,37.23a125.41,125.41,0,0,1-11.08,16.59c-1,1.23-5.38,1-7.35-.08-8.57-4.76-16.87-10-25.1-15.34-.86-.56-1.27-3.28-.69-4.36,6.49-12.09,13.24-24,19.87-36.06C83.79,270,89.44,259.4,95.35,249c2.7-4.78,5.27.2,7,1,9.68,4.77,19,10.26,28.43,15.54C131.2,265.77,131.42,266.38,131.73,266.81Z" transform="translate(-17.63 -7.3)"/><path class="cls-1" d="M151.06,230.85a18.07,18.07,0,0,1-2.9-2q-11.81-11.7-23.46-23.52a2.64,2.64,0,0,1-.13-2.55c12-12.26,24-24.39,36-36.64,6.59-6.74,13-13.69,19.61-20.37a3.78,3.78,0,0,1,3.7,0c8.9,8.34,17.65,16.83,26.38,25.35a2,2,0,0,1,0,1.92c-7,7.1-14.15,14.1-21.17,21.19-7.54,7.61-14.92,15.37-22.51,22.92-4.43,4.4-9.12,8.53-13.72,12.76A9.55,9.55,0,0,1,151.06,230.85Z" transform="translate(-17.63 -7.3)"/><path class="cls-1" d="M424.78,56.86c-1.32,1-2.43,2.4-3.84,2.84C410.66,62.91,400.33,65.94,390,69c-9.08,2.69-18.18,5.32-27.27,8-4.8,1.42-9.65,2.7-14.36,4.38-5.22,1.87-4.66-3-5.21-4.94-2.65-9.59-4.87-19.31-6.79-29.06-.3-1.5,1.34-4.53,2.73-5,7.46-2.61,15.13-4.65,22.73-6.88,9.13-2.67,18.28-5.31,27.4-8,7.7-2.28,15.36-4.67,23.06-6.92,4.86-1.42,4.1,2.61,4.73,5.14C419.56,35.74,422,45.78,424.78,56.86Z" transform="translate(-17.63 -7.3)"/><path class="cls-1" d="M216.09,923c-3.07-2.47-6.34-4.73-9.2-7.44q-14.74-14-29.23-28.2c-7-6.89-14-13.87-20.66-21.06-.36-.38,1.55-3.41,2.87-4.75,7.18-7.23,14.59-14.23,21.72-21.5,1.88-1.91,2.81-1.92,4.75-.07,9.14,8.7,18.59,17.08,27.67,25.85,9.52,9.18,18.82,18.61,28,28.17.64.66-.26,3.77-1.33,4.94-7,7.66-14.28,15.12-21.51,22.58C218.51,922.16,217.46,922.36,216.09,923Z" transform="translate(-17.63 -7.3)"/><path class="cls-1" d="M600.74,11c11.21,2.36,21.46,4.41,31.65,6.7,8.73,2,17.42,4.13,26.1,6.3,6.38,1.59,12.74,3.29,19.08,5a1.79,1.79,0,0,1,.86,1.51c-2.26,10-4.44,20.06-7,30-2,7.61-4,8.12-14.75,5.35-8.88-2.28-17.85-4.18-26.73-6.45-9.93-2.54-19.81-5.24-29.68-8a60.56,60.56,0,0,1-9-3.42,3.47,3.47,0,0,1-1.71-2.78c2.11-10.19,4.29-20.38,6.85-30.47C596.83,13.26,599.26,12.26,600.74,11Z" transform="translate(-17.63 -7.3)"/><path class="cls-1" d="M78.86,382.5c-1.91,8.43-3.59,16.42-5.55,24.34Q69.07,424,64.46,441.07c-1.41,5.24-3.38,10.33-4.76,15.57s-4.92,2.12-7.07,1.69c-7.05-1.41-14-3.49-20.93-5.34-3-.8-6.05-1.58-9-2.58-.43-.15-.77-1.51-.64-2.21,1.27-6.79,2.51-13.6,4-20.34,1.65-7.32,3.55-14.59,5.42-21.86,3.1-12.09,6.15-24.2,9.68-36.17.2-.71,4.47-.63,6.73-.23a67.12,67.12,0,0,1,11.15,3c6.09,2.24,12.08,4.79,18,7.39C78,380.32,78.34,381.71,78.86,382.5Z" transform="translate(-17.63 -7.3)"/><path class="cls-1" d="M801,84.88c-3.86,6.75-6.42,11.86-9.58,16.56a130.88,130.88,0,0,1-11.92,15.39c-.79.86-4.57-.43-6.62-1.43-6.43-3.12-12.77-6.47-19-10-7-3.88-13.8-8-20.72-12-5.4-3.12-10.76-6.35-16.3-9.22-10.17-5.28-8-5.66-4.11-14.85,3.35-7.88,8.14-15.15,12.43-22.6a2.75,2.75,0,0,1,2.61-.73c13.72,7.08,27.46,14.13,41,21.5,9.93,5.4,19.6,11.26,29.43,16.84A8.62,8.62,0,0,0,801,84.88Z" transform="translate(-17.63 -7.3)"/><path class="cls-1" d="M62.71,711.52c-7,.08-8.81-4.48-10.09-8.51-4.32-13.62-8.1-27.41-12.13-41.13-2.17-7.41-4.1-14.92-6.72-22.18-2.11-5.83,2.09-7.65,5.58-8.87,9.14-3.21,18.55-5.68,27.86-8.38,6.41-1.85,4.79,4.19,5.59,6.6,3.71,11.19,6.74,22.61,9.93,34,1.44,5.12,2.63,10.31,4,15.44,1.44,5.34,2.76,10.72,4.53,15.95,1.85,5.47-.63,8.41-5.34,10-5.88,2-11.88,3.73-17.84,5.54C65.93,710.65,63.74,711.23,62.71,711.52Z" transform="translate(-17.63 -7.3)"/><path class="cls-1" d="M113.75,739.4a45.81,45.81,0,0,1,4.29,5.4q11.42,19,22.6,38.09c4.78,8.17,9.53,16.35,13.79,24.79.38.76-2.68,3.89-4.64,5.11-8.31,5.17-16.74,10.15-25.34,14.8-.77.42-3.65-1.66-4.6-3.17-9.72-15.5-19.26-31.11-28.79-46.72-3.37-5.52-6.9-11-9.58-16.83-.64-1.39,1.26-5.12,3-6.2,8.44-5.32,17.21-10.13,25.89-15.06C110.86,739.32,111.65,739.51,113.75,739.4Z" transform="translate(-17.63 -7.3)"/><path class="cls-1" d="M308.84,100.33a55.73,55.73,0,0,1-5.84,4.86c-10.41,6.57-20.86,13.08-31.39,19.44-9.72,5.87-19.48,11.7-29.48,17.06-1.27.68-5-1-6.07-2.57-5-7.59-9-15.85-14.22-23.23-4.41-6.2.52-7.68,3.93-9.87,10.47-6.7,21-13.23,31.66-19.69,9.65-5.87,19.43-11.54,29.12-17.35,2.76-1.65,4.46-1.25,6.1,1.81,5,9.27,10.29,18.37,15.46,27.54A18.45,18.45,0,0,1,308.84,100.33Z" transform="translate(-17.63 -7.3)"/><path class="cls-1" d="M331.87,989.21c-5.56-2.34-10.92-4.25-16-6.8-7.38-3.73-14.63-7.76-21.77-11.93-10.41-6.08-20.8-12.22-30.85-18.86-1.2-.8-1.06-5.22-.13-7.33a166.71,166.71,0,0,1,9-17.09c6.2-10.51,8.35-10.9,19-4.69,7.3,4.25,14.75,8.23,22.08,12.44q17.78,10.21,35.41,20.67a3.67,3.67,0,0,1,.85,3.47c-4.76,9.32-9.7,18.56-14.71,27.75C334.3,987.76,333.05,988.28,331.87,989.21Z" transform="translate(-17.63 -7.3)"/></svg>