<svg id="Layer_1" data-name="Layer 1" xmlns="http://www.w3.org/2000/svg" viewBox="0 0 900 900"><defs><style>.cls-1{fill:#ddd;}</style></defs><g id="engqU7.tif"><path class="cls-1" d="M500.06,50C751.63,48.14,950.26,261.4,950,499.24c-.28,250-200.94,450.24-450.32,450.76C247.15,950.53,49.34,737.15,50,499.3,50.62,275.94,225.72,50.91,500.06,50ZM351.65,139.7c-28.7,10.81-55.16,25.75-79.83,43.87-11.47,8.42-22.68,17.25-32.07,28.58,18.9,7.9,37.71,13.3,56.56,18.67,6.88,2,9.8.8,12.44-5.87,11.74-29.55,25.71-58,44.09-84.1.24-.69.83-1.88.67-2C352.63,138.24,352,138.69,351.65,139.7Zm296.8,720.45c16.55-5.59,31.76-14,47-22.37,23.47-12.84,45.37-27.89,65.46-46.83-19.14-9.52-38.44-16.2-58.11-22.09-6.22-1.86-8.74-.53-11.08,5.25-12,29.75-25.91,58.54-44.49,84.86-.24.7-.83,1.89-.66,2C647.43,861.6,648.13,861.16,648.45,860.15ZM185,529.91c-22.8,0-45.6.16-68.4-.12-5.38-.07-6.83,1.21-6.18,6.74,3,25.14,7.4,50,14.69,74.22a389.51,389.51,0,0,0,64.17,125.86c2,2.59,3.18,7.22,8.57,4.37,26.57-14.05,55.47-22.1,83.64-32,4.85-1.71,5.24-3.85,4.05-8.23C270.92,646.92,263.66,592,260.45,536.38c-.3-5.28-1.84-6.65-7-6.59C230.65,530.07,207.85,529.91,185,529.91Zm630-60c22.81,0,45.62-.15,68.42.12,5.3.06,6.84-1.09,6.18-6.69-3-25.14-7.4-50-14.69-74.22a389.38,389.38,0,0,0-64.14-125.89c-2-2.62-3.23-7.25-8.57-4.4-26.53,14.16-55.5,22-83.61,32.13-4.93,1.77-5.26,3.79-4.08,8.13,14.61,53.83,21.89,108.8,25.1,164.36.31,5.29,1.81,6.66,7,6.59C769.4,469.77,792.21,469.92,815,469.91Zm74.61,64.54c1.82-6.64-3.65-4.47-6.78-4.48-45-.09-90,.1-134.94-.22-6.59,0-8,1.83-8.39,8.16-3.14,54.62-10.43,108.67-24.68,161.59-1.59,5.9-.55,8,5.18,9.94,21.51,7.34,42.79,15.31,64.19,22.93,7.57,2.7,15.35,11.1,21.76,8.51,6.7-2.72,10.87-12.23,15.63-19.14C860.42,665.38,882.93,603,889.62,534.45ZM185,469.92c22.81,0,45.61,0,68.42,0,3.89,0,6.75.4,7.05-5.48a1095.07,1095.07,0,0,1,22.36-167.8c1.19-5.68-.37-7.33-5.63-8.81-23.11-6.48-45.54-14.95-67.65-24.25-16-6.73-16-6.73-26.11,7.47-41.36,57.93-63.25,123.16-72.82,193.1-.81,5.91,1.79,5.81,6,5.79C139.35,469.87,162.16,469.92,185,469.92Zm345.08,135c0,22.81.16,45.61-.13,68.41-.06,5.17,1.32,6.66,6.56,7.06,38.28,2.93,76.62,5.52,114.27,13.59,5,1.07,5.81-.93,6.72-4.76C669.42,639,676.31,588,679.85,536.55c.37-5.35-1-6.78-6.39-6.75q-68.41.32-136.84,0c-5.27,0-6.78,1.36-6.71,6.68C530.2,559.27,530,582.08,530.05,604.88ZM470,395c0-22.46-.17-44.92.13-67.38.07-5.67-1.05-7.76-7.36-8.22-38.22-2.77-76.55-5-114-13.68-5.59-1.29-5.4,2.14-6.19,5.42-12,49.81-18.78,100.39-22.3,151.46-.37,5.38.31,7.52,6.6,7.48q68.31-.45,136.64,0c5.33,0,6.72-1.49,6.66-6.73C469.89,440.55,470.05,417.78,470,395Zm60-1c0,23.12.16,46.24-.13,69.35-.06,5.31,1.43,6.72,6.71,6.69q68.42-.32,136.84,0c5.37,0,6.75-1.39,6.41-6.75-3.32-51.49-10.31-102.41-22.33-152.63-1.19-4.94-3-5.4-7.69-4.43-37.66,7.71-75.62,13.39-114.17,13.51-5.73,0-5.71,2.66-5.69,6.78C530.09,349,530,371.5,530,394ZM395.41,529.91c-22.81,0-45.62.24-68.42-.16-6.11-.1-7.13,1.76-6.73,7.37C323.83,588,330.5,638.3,342.33,687.93c1.26,5.31,2.48,6.88,8.47,5.63,37.33-7.77,75-13.39,113.22-13.46,6.2,0,6.1-2.85,6.09-7.34-.11-45.31-.19-90.61.09-135.91,0-6-1.7-7.16-7.3-7.08C440.4,530.1,417.91,529.91,395.41,529.91Zm-30.58-282C398,253.82,430,258.93,462.53,260c6.14.21,7.7-1.45,7.66-7.58-.28-43.42-.13-86.84-.2-130.26,0-1.64,1-3.77-2.56-5.63C413.56,144.39,387.89,194.65,364.83,247.88ZM635.2,751.94c-33.11-6-65.12-11.07-97.66-12.14-6.21-.2-7.67,1.55-7.64,7.61.26,43.42.12,86.83.19,130.25,0,1.63-1,3.76,2.64,5.62C586.4,855.33,612.23,805.21,635.2,751.94Zm-270.13,0c17.33,42.53,38.33,81.82,73.06,112.2a120,120,0,0,0,25.67,17c4.87,2.42,6.35,1.87,6.33-3.86q-.22-65.57.06-131.14c0-5.92-2.11-6.39-7.05-5.89C430.87,743.52,398.49,745.84,365.07,751.93ZM635.3,247.84c-23.43-53.52-49-103.82-105.25-132.51,0,48.3.05,94.41-.06,140.51,0,5.52,3.53,4,6.29,3.7C568.87,256.41,601.55,254,635.3,247.84Zm11.61-106.59c-.38,1.1-.62,1.44-.53,1.58,17.54,28.64,33.91,57.89,46.79,89,1.06,2.55,2.15,4.3,5.47,3.33A403.4,403.4,0,0,0,761,211.53C726.7,180.75,689.54,156.64,646.91,141.25Zm-408,646.84c34.47,30.94,71.59,55.07,114.48,70.5.13-1.4.42-2.09.19-2.45A570.3,570.3,0,0,1,307,768.08c-1.65-3.93-3.66-3.85-7.23-2.84C279.12,771.07,259.34,779.08,238.87,788.09Z" transform="translate(-50 -50)"/></g></svg>