<svg id="Layer_1" data-name="Layer 1" xmlns="http://www.w3.org/2000/svg" viewBox="0 0 900 550"><defs><style>.cls-1{fill:#444;}</style></defs><g id="p7KhFL.tif"><path class="cls-1" d="M90.44,231.86c12.84-2.2,25.67-6.28,38.51-6.3q338.19-.6,676.36-.32c22.68,0,45.41-.73,68,.36,12.16.59,24.1,4.36,38.45,7.13-5,4.53-7.47,6.8-10,9Q726.08,392,550.36,542.21C519,569,482.75,569,451.31,542.28Q275.16,392.42,99,242.6c-2.81-2.39-6.4-4.11-9.62-6.14C89.7,234.92,90.07,233.39,90.44,231.86Z" transform="translate(-50 -225)"/><path class="cls-1" d="M373.38,528.92c14.43,12.44,31.94,27.56,49.47,42.67a112.94,112.94,0,0,0,59.91,26.87c36.1,4.92,67.31-3.62,93.54-25,18.06-14.7,35.5-30,52.45-44.3L907.59,766.78c-10.34,5.25-23.24,8.2-37.21,8.2q-200.11,0-400.24,0-169.09,0-338.2,0c-14.71,0-28.36-2.47-41.68-9.13Z" transform="translate(-50 -225)"/><path class="cls-1" d="M943.8,265.23c1.78,8,5.84,17.93,5.87,27.84q.65,207.32,0,414.63c0,9.78-4.3,19.56-6.73,29.91L663.57,499.8Z" transform="translate(-50 -225)"/><path class="cls-1" d="M56.09,735.56c-1.83-8-5.77-17.39-5.79-26.73q-.6-209,0-418c0-9.32,4.21-18.62,6.47-27.94L336.67,500.71Z" transform="translate(-50 -225)"/></g></svg>