<svg id="Layer_1" data-name="Layer 1" xmlns="http://www.w3.org/2000/svg" viewBox="0 0 418.32 800"><defs><style>.cls-1{fill:#4480ab;}</style></defs><g id="K1wBdG.tif"><path class="cls-1" d="M414.58,898.51q-.3-177.15,0-354.31c0-5-1-6.56-6.34-6.52-37.09.25-74.18,0-111.27.25-5,0-6.11-1.41-6.09-6.19q.27-65.26,0-130.54c0-5,1-6.62,6.37-6.59,37.09.26,74.19,0,111.28.26,5,0,6.08-1.48,6.05-6.22-.2-32.11-.05-64.23-.13-96.35,0-18.27,1.28-36.42,5-54.33,8.85-42.94,28.72-79.2,65-105.1,31-22.13,66.3-31.53,103.87-32.58,38.76-1.08,77.45.92,116,4.7,4.41.43,4.81,2.21,4.8,5.79q-.14,58.42,0,116.86c0,4.5-.91,6-5.72,5.93-22.38-.26-44.76-.11-67.14,0a164.33,164.33,0,0,0-27.84,2.17c-25,4.35-38.83,17.65-44,42.44a102.46,102.46,0,0,0-2.1,21c0,29.21.16,58.43-.18,87.64-.08,6.26,1.26,8.22,7.93,8.16,42.69-.34,85.38-.19,128.06-.13,2.64,0,6.22-1.67,5.43,4.23q-8.83,66.15-17,132.4C686,536.53,684.23,538,679,538c-37.09-.28-74.18-.11-111.27-.21-3.6,0-5.47.27-5.47,4.83q.21,178.71,0,357.42Z" transform="translate(-290.84 -100)"/></g></svg>