<svg id="Layer_1" data-name="Layer 1" xmlns="http://www.w3.org/2000/svg" viewBox="0 0 571.72 572.04"><defs><style>.cls-1{fill:#666;}</style></defs><path class="cls-1" d="M333.49,420c-35.38.22-70.75.29-106.13-.06-6.18-.06-7,1.92-7,7.41.19,57.51.12,115,.12,172.53q0,86.66-.07,173.31c0,4.48.21,6.85,6,6.8q53.84-.46,107.68,0c5.34,0,6.4-1.64,6.4-6.59q-.19-173.32,0-346.63C340.51,421.14,338.75,420,333.49,420Z" transform="translate(-208.33 -208)"/><path class="cls-1" d="M667.2,780q52.69-.45,105.4,0c6.38.07,7.47-1.92,7.45-7.75-.19-72.13,0-144.25-.15-216.38-.09-55.16-24.34-97.15-71.4-125-33.78-20-70-25.35-107.68-10.55a143.26,143.26,0,0,0-60.55,44.87c0-12.42-.41-24.87.17-37.26.32-6.75-2-8-8.26-7.95q-52.3.47-104.62,0c-5.6,0-7.35,1-7.34,7.08q.31,173,0,346c0,5.38,1.17,6.92,6.74,6.87q52.71-.42,105.4,0c6.54.06,8.07-1.7,8-8.16-.26-65.35-.17-130.71-.13-196.06,0-4.94.18-9.9.61-14.82,3-34.59,41.66-60.69,74.6-50.44,28.29,8.81,44.47,31.28,44.5,62.2q.09,100-.12,200C659.87,778.61,661.35,780.07,667.2,780Z" transform="translate(-208.33 -208)"/><path class="cls-1" d="M280.48,208c-39.22-.23-71.88,32.3-72.15,71.84-.26,39.37,32.1,71.8,71.8,72A71.91,71.91,0,0,0,280.48,208Z" transform="translate(-208.33 -208)"/></svg>