<svg id="Layer_1" data-name="Layer 1" xmlns="http://www.w3.org/2000/svg" viewBox="0 0 800 800"><defs><style>.cls-1{fill:#444;}</style></defs><path class="cls-1" d="M815,100H185a85,85,0,0,0-85,85V815a85,85,0,0,0,85,85H815a85,85,0,0,0,85-85V185A85,85,0,0,0,815,100ZM340.48,773.42c0,5-1.06,6.62-6.4,6.59q-53.83-.39-107.68,0c-5.78.05-6-2.32-6-6.8q.17-86.65.07-173.31c0-57.51.07-115-.12-172.53,0-5.49.82-7.47,7-7.41,35.38.35,70.75.28,106.13.06,5.26,0,7,1.1,7,6.75Q340.24,600.1,340.48,773.42ZM280.13,351.81c-39.7-.17-72.06-32.6-71.8-72,.27-39.54,32.93-72.07,72.15-71.84a71.91,71.91,0,0,1-.35,143.81ZM772.6,780q-52.7-.54-105.4,0c-5.85.05-7.33-1.41-7.31-7.3q.33-100,.12-200c0-30.92-16.21-53.39-44.5-62.2-32.94-10.25-71.59,15.85-74.6,50.44-.43,4.92-.61,9.88-.61,14.82,0,65.35-.13,130.71.13,196.06,0,6.46-1.5,8.22-8,8.16q-52.69-.51-105.4,0c-5.57,0-6.75-1.49-6.74-6.87q.25-173,0-346c0-6.08,1.74-7.12,7.34-7.08q52.31.39,104.62,0c6.26-.05,8.58,1.2,8.26,7.95-.58,12.39-.17,24.84-.17,37.26a143.26,143.26,0,0,1,60.55-44.87c37.63-14.8,73.9-9.46,107.68,10.55,47.06,27.87,71.31,69.86,71.4,125,.12,72.13,0,144.25.15,216.38C780.07,778.12,779,780.11,772.6,780Z" transform="translate(-100 -100)"/></svg>