<svg id="Layer_1" data-name="Layer 1" xmlns="http://www.w3.org/2000/svg" viewBox="0 0 813.73 400"><defs><style>.cls-1{fill:#ddd;}</style></defs><path class="cls-1" d="M912.41,528c-13.41-28-27-71.87-37.18-87.89-11.08-17.48-22.07-34.66-36.4-48.38-25.22-24.15-58.81-42.86-90.25-49.89-7.26-1.62-9.72,1.26-16.22-3.22a39.43,39.43,0,0,0-5.13-2.64c-18.59-9.17-38.07-13.5-58-15.41s-40-1.56-59.72,3.24c-24.66,6-46,19.56-63.46,41.52l-.73.91c-2.49-.16-5-.23-7.45-.26l-.24,0a150.68,150.68,0,0,0-15.47-.38c-12.38.28-24.68,1.79-37,3.24-11.3,1.34-22.58,2.89-33.87,4.37-1.86.24-3.7.56-5.72.87.27-.64.44-1.1.65-1.54a104.41,104.41,0,0,0,4.29-10.92,20.08,20.08,0,0,0,1.15-10c-.64-3.74-2.71-6.55-5.36-6.6a8.56,8.56,0,0,0-7.83,4.27c-4.93,8.22-9.82,16.47-14.09,25.19a6.32,6.32,0,0,1-4.73,3.82c-3.36.6-6.71,1.24-10.05,2-1.89.4-3.76.83-5.66,1.09,0-.12,0-.18,0-.21.59-.93,1.2-1.86,1.78-2.8a241.74,241.74,0,0,0,22.52-47.18c1.81-5.07,3.83-10.06,4.56-15.56.54-4.07.69-8.09-1-11.89-1.14-2.52-2.92-3.87-5.36-3.62a11.6,11.6,0,0,0-8.39,4.81c-3.95,5.36-7.13,11.38-10.32,17.36-10.46,19.59-20.42,39.54-30.27,59.56-2.24,4.56-5.23,7.35-9.64,8.57Q345,396.6,322.75,404.82c-7,2.59-13.94,5.16-20.47,9.07a25,25,0,0,0-8,6.77c-2.57,3.61-2.21,7.51,1,10.37a12.93,12.93,0,0,0,5.89,3c2.54.58,4.64-.55,6.52-2.35a4.69,4.69,0,0,0,1.43-4.11,2,2,0,0,1,1.08-2.29,43.23,43.23,0,0,1,6.17-3.07c15.12-6.05,30.44-11.33,45.85-16.24a14.1,14.1,0,0,1,3.87-1.11c-1.32,2.6-2.59,5-3.79,7.49q-21.58,44.49-43.13,89a8.69,8.69,0,0,1-3.27,3.84,60,60,0,0,1-16.11,7.42,9.06,9.06,0,0,1-6.83-.45,3.31,3.31,0,0,1-1.83-3,24.31,24.31,0,0,1,.89-6.87c.7-3.15,2.23-6,2.68-9.28.41.24.79.47,1.19.68a5.09,5.09,0,0,0,6.63-1.32,7.14,7.14,0,0,0,1.14-7.58c-.41-1.06-.86-2.11-1.36-3.11-3.48-6.84-8.56-10.12-15.42-9.3-6.34.75-12.2,3.3-17.78,6.76-7.12,4.42-13.37,10.22-19.37,16.43-.45.45-.8,1-1.41,1.26a11.91,11.91,0,0,0-3.75,2.45c-2.57,2.21-5.21,4.33-7.94,6.28a36.14,36.14,0,0,1-6.71,4c-.94.4-1.33.21-1.5-1a37,37,0,0,1-.21-7c.29-6.24,1-12.46.49-18.73a34.46,34.46,0,0,0-1.42-9c-1.49-4.13-5.79-8.13-11-5.9a21.73,21.73,0,0,0-5.29,3.22c-4.38,3.64-7.83,8.38-11.34,13.05-6,8-11.38,16.63-17.07,24.95a11.52,11.52,0,0,1-1.94,2.54c.06-.43.08-.66.12-.88,1.6-8.23,3.64-16.32,5.54-24.46,1.47-6.29,3.56-12.39,4.11-18.95.34-4,.37-8-1.08-11.82-2-5.19-5.56-7.27-10.26-5.86-3.71,1.11-6.86,3.51-9.93,6.06-7.55,6.29-14.21,13.78-20.81,21.34-6.06,6.93-11.87,14.14-17.73,21.3l-.39.35-.11.21-.1-.16.18-.1a.54.54,0,0,1,.2-.59c.13-.34.26-.68.41-1,7.53-15.5,14.48-31.35,20.71-47.61a25.08,25.08,0,0,0,1.51-11c-.26-3.28-2.06-5.51-4.65-5.86a6.34,6.34,0,0,0-3.84.89,21.91,21.91,0,0,0-7.49,6.63c-1.85,2.57-3,5.58-2,8.94a5.51,5.51,0,0,1-.42,4.11c-6.18,14.23-13.54,27.7-19.78,41.89-4.92,11.2-9.43,22.63-13.32,34.37-1.16,3.52-1.88,7.19-1.08,11,1.12,5.3,4.78,9.52,10.61,5.73a34.05,34.05,0,0,0,4.37-3.44c6.89-6.35,12.48-14.21,18.4-21.67,3.33-4.22,6.57-8.55,9.87-12.8,8.68-11.18,17.33-22.39,26.61-32.9a61.5,61.5,0,0,1,5.23-5.46c-.15.61-.21.87-.28,1.13-2.12,7.57-4.36,15.11-6,22.86s-3,15.4-2.28,23.38a20.56,20.56,0,0,0,3.26,10.21c3.05,4.36,7,5.42,11.37,3a18.32,18.32,0,0,0,3.87-2.8,119.45,119.45,0,0,0,10.83-12.5c5-6.26,9.34-13.16,14.37-19.37.91-1.13,1.84-2.24,3-3.62a93.83,93.83,0,0,0,.18,13.37c.59,5.64,1.82,11,5,15.46a8.9,8.9,0,0,0,7.34,4,15.63,15.63,0,0,0,5.05-.95,2.4,2.4,0,0,1,0,1.41c-.65,5.21,1.8,8.57,6.29,8.58a13.84,13.84,0,0,0,2.86-.31,43.66,43.66,0,0,0,13.11-5.66c8.91-5.34,17.22-11.83,25.47-18.4.38-.3.69-.79,1.28-.75a46.58,46.58,0,0,0,.66,5.68c1.26,5.92,4.51,9.6,9.56,10.17a29,29,0,0,0,15.37-2.8c1.13-.51,2.26-1.06,3.45-1.62a2.57,2.57,0,0,1-.47,1.39c-1.59,3.3-3.18,6.58-4.76,9.88a23.23,23.23,0,0,0-1.83,5.3c-1.32,6.1,1.65,11.55,7,12.68,3.95.85,7.72-.14,11.36-1.87,6.05-2.86,11.16-7.44,16.09-12.3,3.76-3.7,7.44-7.51,11.15-11.27.13-.11.2-.47.4-.23s0,.38-.19.51c-.62,1.3-1.25,2.6-1.88,3.88q-20.67,41.89-40.53,84.31c-8.95,19.2-17.58,38.61-25.22,58.58-2.41,6.3-4.71,12.65-5.83,19.48a11.83,11.83,0,0,0,.11,5.94c.59,1.64,1.53,3,3.19,3.21s2.47-1.11,3.18-2.51a23.86,23.86,0,0,0,1.77-4.88,227.06,227.06,0,0,1,10.78-30c8.54-20,18.09-39.45,27.59-58.89,12.66-25.88,25.79-51.45,38.81-77.08,11.55-22.74,23.87-44.86,37.17-66.25,8.83-14.2,17.79-28.31,26.19-42.87,5-8.63,10-17.24,14.43-26.26a10.25,10.25,0,0,1,7.63-6.07q14.7-2.67,29.48-4.69c8.92-1.21,17.85-2.4,26.8-3.37-8.25,6.61-14.51,16.22-18.74,28.65-9,26.47-6.93,52.62,3.73,77.75,9.57,22.58,24.48,37.43,45.37,42.77,11.37,1.83,22,2.16,31.37-.27a34.49,34.49,0,0,0,13.51-5.94c3.18-2.36,5.86-5.31,5.69-10.42a2.32,2.32,0,0,1,.18-1.17c3.49-5.55,3.79-12.3,5-18.74,2-11.14,6.94-19.79,15.59-25,26.44-13.74,56.53,3.31,63.39,35,2.41,12.5,1.76,25.15-.44,37.68a5,5,0,0,1-1.59,3A143.22,143.22,0,0,1,639,559.5C619.35,571,598.33,576,576.84,578.64c-18.82,2.32-37.73,2.68-56.62,2.76L409,581.81a40.26,40.26,0,0,0,10.51-5.93c8.49-6.58,14.79-15.6,20.18-25.55,1.67-3.08,2.87-6.46,4.55-9.53a7.74,7.74,0,0,1,5.46-4.29,7.1,7.1,0,0,0,5.94-5.54c.74-2.89-.64-5.23-3.17-5.69-1.12-.2-2.19.26-3.36.27.53-1.87,1.09-3.62,1.53-5.41a7.72,7.72,0,0,1,1.35-3,6,6,0,0,0,1.34-4.48A8.17,8.17,0,0,1,454.9,507c1.67-2.39,3.53-4.59,5.32-6.85a88,88,0,0,0,7-10.31c2-3.48,1-7.13-2.26-8.86-2-1-3.6-.1-5.24.88-3.2,1.91-5.48,5-7.32,8.47A161.06,161.06,0,0,0,444,510.27a3,3,0,0,1-1.6,1.86,159.57,159.57,0,0,1-23.32,9c-3.64,1.11-7.35,1.89-11.15,1.28-2-.32-2.39-1-1.81-3.31a37.42,37.42,0,0,1,2.58-6.45c6-13.15,13.09-25.52,20.13-37.93a13.24,13.24,0,0,0,1.77-4.39c.72-4.22-1.59-8.63-6-7.46-3.77,1-6.59,3.66-9,7.08a8.44,8.44,0,0,0-1.91,4.88c.06,2.27-.92,3.85-1.9,5.53s-1.91,3.34-2.83,5c-4.92,9.06-9.61,18.28-13,28.33a40.28,40.28,0,0,0-2.5,13.44c.08,4.91,2.39,8.33,6.38,9.33a12.69,12.69,0,0,0,4.3.22c6.14-.57,12-2.52,17.9-4.5a154.6,154.6,0,0,0,16.74-6.71c-.76,1.84-1.37,3.3-2,4.76a6.62,6.62,0,0,1-2.68,3.24A217.76,217.76,0,0,0,414,548.66c-6.92,5.81-13.71,11.82-19.58,19.11-2.08,2.59-4.09,5.28-5,8.78a5.85,5.85,0,0,0,.72,5.1c-6,0-12.87.08-19.7.3-9,.6-17.91,1.44-26.82,2.83a5.18,5.18,0,0,0-4.09,3.17c-2,4-.39,10.76,5.28,10.54l107.59,0c33.21,1.28,73.08,1.32,89,1.32s38.09-3.34,52.38-5.49c18.22-2.75,52.37-16.47,54.65-16.47s0,2.75-5.25,8.08c-2.81,2.85-25,25.36-39.6,34.42A376.3,376.3,0,0,1,508.46,662c-11.53,3.3-23.13,6.46-35.11,5.62-3.74-.26-6.78,1.51-9.7,3.79s-3.28,6.63-.95,10c3.11,4.52,7.29,5.67,11.82,5.75a136.76,136.76,0,0,0,31.83-3.45c29.59-6.48,58-17.81,85.71-31.52,22.07-10.9,42.62-24.9,60.32-44.43,14.53-16,26-34.68,32.07-57.5,5.77-21.65,7.24-43.56,1.2-65.55-16.77-52.37-76-79.81-112.41-38.64-10.38,14.5-12,31.84-8.67,52.81a41.79,41.79,0,0,1-7.35-5.36c-22-18.65-30-52.2-18.73-81.1,16.34-41.94,44.38-64.55,82.16-70.33a183.68,183.68,0,0,1,40.85-1.29c18.44,1.31,36.5,4.88,53.79,13,34,15.91,61.09,41.87,78.76,80.77,15.3,33.69,23.9,69.22,14.59,106.43-1.61,6.44-12.37,31.83-13.71,38.35-1.25,6,2,10.95,6.88,10.84,3.81-1.59,14.61-27.32,17.63-36.28,8.58-24.73,10.09-50.48,6.92-76.64A182.82,182.82,0,0,0,795,394.91a230.11,230.11,0,0,0-20.43-25.1l-.44-.48c.28-.35.52-.17.76.07A115.86,115.86,0,0,1,788,375.85c32.25,17.76,56,42.33,76.33,81.2C880,487,883,511,896.39,539.62,908.54,565.59,917.14,537.8,912.41,528Zm-668.22-7.4s-.05-.06-.08-.09.06-.08.08-.08.06.06.08.08S244.22,520.55,244.19,520.55Zm41.07-32.65c-7.8,6.77-15.67,13.41-23.67,19.84-5,4-10.11,8-15.4,11.61-.53.37-1.08.71-1.62,1.06l-.18-.32a114,114,0,0,1,7.33-8.83c7-7.57,14.2-14.94,22.4-20.78,3.85-2.75,7.8-5.33,12.29-6.44a5.1,5.1,0,0,1,5,1,1.07,1.07,0,0,1,.32,1.41c-.33.75-.69.18-1,.08A5.31,5.31,0,0,0,285.26,487.9ZM407.89,347.61a1.38,1.38,0,0,1-.27,1.32q-8,16.44-16.1,32.87c-1.21,2.47-1.48,2.65-3.63,3.09C394.28,372.18,401.12,360,407.89,347.61Zm-52.56,99.54c5.81-11.27,11.68-22.48,17.51-33.72,1.43-2.75,2.61-5.67,4.29-8.24a12.71,12.71,0,0,1,5-5c-13.12,25.71-26.22,51.41-41,75.85C345.62,466.25,350.42,456.66,355.33,447.15Zm58.22-52.3c-5.3,9.17-10,18.76-15,28.17-10.87,20.61-21.34,41.5-31.68,62.48a39.9,39.9,0,0,1-5.89,8.27A291,291,0,0,1,322,532.15a36.48,36.48,0,0,1-6.46,4.27c-.46.23-.91.58-1.48.4a3.6,3.6,0,0,1,.48-1.84c3.12-6.85,6.18-13.87,10.78-19.45,13.58-16.47,24.85-35,35.83-53.76,10.84-18.54,21.15-37.47,31.18-56.62,1.12-2.15,2.29-4.26,3.39-6.43a7.68,7.68,0,0,1,5.37-4.26c4.42-1,8.83-2.18,13.25-3.26a2.08,2.08,0,0,1,1.36-.08A31.26,31.26,0,0,1,413.55,394.85ZM429,548.19l-.13.13,0-.16Zm-21.4,19a245.46,245.46,0,0,1,20.18-18.25c.31-.25.55-.79,1.06-.56a35.39,35.39,0,0,1-4.67,6.69c-5.79,7.07-12.33,13-20.08,16.91a2.24,2.24,0,0,1-1.34.28C404.36,570.53,405.94,568.79,407.59,567.15Zm116.58-163.6c-6.56,17.38-9.82,35.4-6.46,54.45,3.86,21.86,14.34,38.13,29.83,50,.64.49,1.3.93,2,1.42a4.5,4.5,0,0,1,.44.8c-1,0-1.9.05-2.76,0C529.38,509,515.58,499,505.25,481.92c-11.69-19.3-16-41-12.84-64.56,3.19-23.83,16.69-36.85,35.65-39.72,3-.45,6-.6,9.78-1A149,149,0,0,0,524.17,403.55Z" transform="translate(-100 -300)"/><path class="cls-1" d="M429.86,462a10,10,0,0,0,5.53-2.44,13.92,13.92,0,0,0,5.28-7.35,5.24,5.24,0,0,0-.89-4.94c-2.7-3.29-8.42-2.36-10.1,1.73a5.7,5.7,0,0,1-2.21,2.72,6.41,6.41,0,0,0-2.94,3.53A5.43,5.43,0,0,0,429.86,462Z" transform="translate(-100 -300)"/></svg>