<svg id="Layer_1" data-name="Layer 1" xmlns="http://www.w3.org/2000/svg" viewBox="0 0 776.77 154.16"><defs><style>.cls-1{fill:#666;stroke:#666;stroke-miterlimit:10;stroke-width:5px;}</style></defs><path class="cls-1" d="M295.43,497.73v61h-14.2v-59.6c0-22.2-11.2-33.6-30.2-33.6-21.6,0-35.2,14-35.2,38v55.2h-14.2v-59.6c0-22.2-11.2-33.6-30.4-33.6-21.4,0-35.2,14-35.2,38v55.2h-14.2V453.53h13.6v19.2c7.4-12.6,21-20,38.6-20,17.4,0,31,7.4,37.4,22.2,7.6-13.6,22.6-22.2,41.6-22.2C278.63,452.73,295.43,467.53,295.43,497.73Z" transform="translate(-119.33 -407.97)"/><path class="cls-1" d="M351.9,528.18v31h-6.46v-7.79c-3,5.13-8.93,8.27-17.19,8.27-11.31,0-18.24-5.89-18.24-14.54,0-7.69,4.94-14.15,19.28-14.15h15.87v-3c0-8.55-4.85-13.21-14.16-13.21a25.43,25.43,0,0,0-16.62,5.89l-3-5c5-4.28,12.44-6.75,20.33-6.75C344.59,508.8,351.9,515.26,351.9,528.18Zm-6.74,16V536H329.48c-9.69,0-12.82,3.8-12.82,8.93,0,5.8,4.65,9.41,12.63,9.41C336.89,554.31,342.5,550.7,345.16,544.14Z" transform="translate(-119.33 -407.97)"/><path class="cls-1" d="M396.55,556.11c-2.66,2.38-6.65,3.52-10.54,3.52-9.41,0-14.63-5.32-14.63-14.54V514.88h-8.93v-5.7h8.93V498.26h6.74v10.92h15.2v5.7h-15.2v29.83c0,5.89,3,9.12,8.65,9.12a11.17,11.17,0,0,0,7.41-2.56Z" transform="translate(-119.33 -407.97)"/><path class="cls-1" d="M433.79,556.11c-2.66,2.38-6.65,3.52-10.54,3.52-9.41,0-14.63-5.32-14.63-14.54V514.88h-8.93v-5.7h8.93V498.26h6.74v10.92h15.2v5.7h-15.2v29.83c0,5.89,3,9.12,8.65,9.12a11.17,11.17,0,0,0,7.41-2.56Z" transform="translate(-119.33 -407.97)"/><path class="cls-1" d="M444.53,493.41a4.87,4.87,0,0,1,4.94-4.75,4.79,4.79,0,0,1,4.94,4.66,4.94,4.94,0,0,1-9.88.09Zm1.52,15.77h6.74v50h-6.74Z" transform="translate(-119.33 -407.97)"/><path class="cls-1" d="M464.67,553.45l3-5.32c4,3.14,10.73,5.61,17.76,5.61,9.5,0,13.4-3.23,13.4-8.17,0-13-32.4-2.76-32.4-22.52,0-8.17,7-14.25,19.76-14.25,6.46,0,13.49,1.81,17.67,4.66L501,518.87a25.62,25.62,0,0,0-14.73-4.27c-9,0-13,3.51-13,8.26,0,13.49,32.39,3.33,32.39,22.52,0,8.64-7.6,14.25-20.61,14.25C476.73,559.63,468.75,557,464.67,553.45Z" transform="translate(-119.33 -407.97)"/><path class="cls-1" d="M607.65,506.07l-24.8,22.8v30h-14.2V410.47h14.2v100.6l62.79-57.4h17.6l-45,43,49.19,62.2H650Z" transform="translate(-119.33 -407.97)"/><path class="cls-1" d="M677,487.81h6.75V558.3H677Z" transform="translate(-119.33 -407.97)"/><path class="cls-1" d="M746.07,535.4h-41.8c.76,10.45,8.74,17.39,19.66,17.39a19.71,19.71,0,0,0,15.3-6.56l3.8,4.37c-4.46,5.32-11.4,8.17-19.28,8.17-15.58,0-26.23-10.64-26.23-25.46S707.88,508,721.94,508s24.23,10.35,24.23,25.36C746.17,533.88,746.07,534.64,746.07,535.4Zm-41.8-5h35.44c-.86-9.79-8-16.63-17.77-16.63S705.12,520.58,704.27,530.37Z" transform="translate(-119.33 -407.97)"/><path class="cls-1" d="M758.42,492.56a4.86,4.86,0,0,1,4.94-4.75,4.79,4.79,0,0,1,4.94,4.65,4.94,4.94,0,0,1-9.88.1Zm1.52,15.77h6.74v50h-6.74Z" transform="translate(-119.33 -407.97)"/><path class="cls-1" d="M831.47,529.32v29h-6.74V530c0-10.55-5.51-16-15-16-10.74,0-17.48,6.65-17.48,18.05V558.3h-6.75v-50H792v9.21c3.61-6.08,10.36-9.59,19-9.59C823.11,508,831.47,515,831.47,529.32Z" transform="translate(-119.33 -407.97)"/><path class="cls-1" d="M893.51,535.4h-41.8c.76,10.45,8.74,17.39,19.66,17.39a19.71,19.71,0,0,0,15.3-6.56l3.8,4.37c-4.47,5.32-11.4,8.17-19.29,8.17-15.58,0-26.22-10.64-26.22-25.46S855.32,508,869.38,508s24.22,10.35,24.22,25.36C893.6,533.88,893.51,534.64,893.51,535.4Zm-41.8-5h35.43c-.85-9.79-8-16.63-17.76-16.63S852.56,520.58,851.71,530.37Z" transform="translate(-119.33 -407.97)"/></svg>