<svg id="Layer_1" data-name="Layer 1" xmlns="http://www.w3.org/2000/svg" viewBox="0 0 600 835"><defs><style>.cls-1{fill:#ffb400;}.cls-2{fill:#fff;}.cls-3{fill:#888;}.cls-4,.cls-5{fill:#666;}.cls-5{font-size:36px;font-family:Noteworthy-Light, Noteworthy;font-weight:300;}.cls-6{letter-spacing:0.04em;}.cls-7{letter-spacing:-0.02em;}.cls-8{letter-spacing:-0.05em;}.cls-9{letter-spacing:-0.03em;}.cls-10{letter-spacing:0.01em;}.cls-11{letter-spacing:0.03em;}.cls-12{letter-spacing:-0.04em;}</style></defs><rect class="cls-1" y="35" width="600" height="800" rx="40.13"/><rect class="cls-2" x="50" y="115" width="500" height="670"/><path class="cls-3" d="M500,108.43,395.62,158.06v15H604.38v-15Zm-45.41,34.63a4.67,4.67,0,1,1,4.63-4.67A4.66,4.66,0,0,1,454.59,143.06Zm92.46.52a4.67,4.67,0,1,1,4.64-4.67A4.65,4.65,0,0,1,547.05,143.58Z" transform="translate(-200 -65)"/><path class="cls-4" d="M649.75,191.66l-11-22c-4.59-8.08-17.82-11.12-34.42-11.55L547,153.45c-6.88-1.16-9.18-3.47-10.32-10.39l-6.89-47.33c-5.73-40.4-53.91-41.55-59.64,0l-6.89,47.33c-1.14,6.92-3.44,9.23-10.32,10.39l-57.35,4.61c-15.85.61-29.83,2.31-34.42,11.55l-10.95,22A2.3,2.3,0,0,0,352.3,195H647.7A2.3,2.3,0,0,0,649.75,191.66ZM500,108.43a15,15,0,1,1,14.91-15A15,15,0,0,1,500,108.43Z" transform="translate(-200 -65)"/><text class="cls-5" transform="translate(206.04 178.61)"><tspan class="cls-6">Q</tspan><tspan x="27.13" y="0">u</tspan><tspan class="cls-7" x="42.03" y="0">e</tspan><tspan class="cls-8" x="56.52" y="0">s</tspan><tspan x="70.65" y="0">t</tspan><tspan class="cls-9" x="82.89" y="0">i</tspan><tspan x="88.15" y="0">o</tspan><tspan class="cls-10" x="104.67" y="0">n</tspan><tspan x="121.54" y="0">n</tspan><tspan class="cls-11" x="138.06" y="0">a</tspan><tspan x="155.56" y="0">i</tspan><tspan class="cls-12" x="161.91" y="0">r</tspan><tspan x="172.71" y="0">e</tspan></text></svg>