<svg id="Layer_1" data-name="Layer 1" xmlns="http://www.w3.org/2000/svg" viewBox="0 0 1000 1000"><defs><style>.cls-1{opacity:0.6;}.cls-2{fill:#015a9e;}</style></defs><g class="cls-1"><path class="cls-2" d="M366.18,620.44l-9.91,8.92a194,194,0,0,0,19.4,18.74l8.57-10.22A182.48,182.48,0,0,1,366.18,620.44Z"/><path class="cls-2" d="M446.64,314.11a192.69,192.69,0,0,0-60.34,29.48l7.84,10.79a179.16,179.16,0,0,1,56.18-27.45Z"/><path class="cls-2" d="M418.21,660.41a179.27,179.27,0,0,1-21.52-13l-7.64,10.92a192.64,192.64,0,0,0,23.1,13.93Z"/><path class="cls-2" d="M319.94,500a179.44,179.44,0,0,1,52.72-127.28l-9.43-9.43a193.34,193.34,0,0,0-17.69,253.06l10.64-8A179.26,179.26,0,0,1,319.94,500Z"/><path class="cls-2" d="M478,321.33A182.68,182.68,0,0,1,499.94,320a180.31,180.31,0,0,1,37.43,3.91l2.77-13.05a194.89,194.89,0,0,0-63.76-2.76Z"/><path class="cls-2" d="M647.39,396.75A180,180,0,0,1,499.94,680v13.33h0c106.78,0,193.33-86.55,193.33-193.33a192.42,192.42,0,0,0-35-110.9Z"/><path class="cls-2" d="M567.38,333.07a180.17,180.17,0,0,1,53,33.17l8.92-9.91a193.45,193.45,0,0,0-56.92-35.62Z"/><path class="cls-2" d="M456.39,674.68a178.18,178.18,0,0,1-26.8-8.95L424.38,678a191.32,191.32,0,0,0,28.78,9.61Z"/></g></svg>