<svg id="Layer_1" data-name="Layer 1" xmlns="http://www.w3.org/2000/svg" viewBox="0 0 1000 1000"><defs><style>.cls-1,.cls-2,.cls-3{fill:none;stroke-miterlimit:10;}.cls-1,.cls-3{stroke:#557fa5;}.cls-1{stroke-width:5px;}.cls-2{stroke:#9ccafd;}.cls-2,.cls-3{stroke-width:3px;}.cls-3{stroke-linecap:round;stroke-dasharray:2.99 5.98;}</style></defs><path class="cls-1" d="M806.34,242.89,602.07,414.3a133.33,133.33,0,0,1,4.36,165.94l213,160.49a400,400,0,0,0-13.06-497.84Z"/><path class="cls-1" d="M366.61,500a132.83,132.83,0,0,1,31.19-85.7L193.53,242.9a400,400,0,0,0-13.05,497.83l213-160.49A132.65,132.65,0,0,1,366.61,500Z"/><path class="cls-1" d="M570.6,613.08a133.4,133.4,0,0,1-141.32,0L288,839.24a400.16,400.16,0,0,0,424,0Z"/><path class="cls-2" d="M281.13,523a224,224,0,0,1-1.19-23,220,220,0,0,1,116.7-194.27l-72-135.41c-117.83,62.78-198,186.86-198,329.68a378.42,378.42,0,0,0,2,39Z"/><path class="cls-2" d="M511.45,280.3A218.74,218.74,0,0,1,610,309.45l76.67-132.81a371.09,371.09,0,0,0-167.15-49.47Z"/><path class="cls-2" d="M704,582.43C671.34,663.09,592.29,720,499.94,720a218.92,218.92,0,0,1-103.3-25.73l-72,135.41a371.65,371.65,0,0,0,175.29,43.65c156.72,0,290.86-96.57,346.22-233.45Z"/><path class="cls-3" d="M650,500A150,150,0,0,1,500,650c-199-7.9-198.92-292.13,0-300A150,150,0,0,1,650,500Z"/></svg>