<svg id="Layer_1" data-name="Layer 1" xmlns="http://www.w3.org/2000/svg" viewBox="0 0 1000 1000"><defs><style>.cls-1{fill:#44a3d3;}.cls-2{fill:#9bd;}</style></defs><path class="cls-1" d="M669.83,376.56l27-19.59a244.78,244.78,0,0,0-50.42-51.31l-20.06,26.62A211.17,211.17,0,0,1,669.83,376.56Z"/><path class="cls-1" d="M660.8,635a211,211,0,0,1-49.57,43.12l17.67,28.27a244.8,244.8,0,0,0,57.44-50Z"/><path class="cls-1" d="M707.38,532.85a208.78,208.78,0,0,1-20.29,62.51l29.71,15.13a241.79,241.79,0,0,0,23.5-72.42Z"/><path class="cls-1" d="M290.22,489c5-97.35,76.32-177.16,169.65-195.19l-6.36-32.73C345.37,282,262.74,374.49,256.94,487.28Z"/><path class="cls-2" d="M564.85,699.76A209.81,209.81,0,0,1,499.94,710c-102.27,0-187.46-73.12-206.16-169.93l-32.73,6.36c21.68,112.18,120.38,196.9,238.89,196.9a243.16,243.16,0,0,0,75.21-11.86Z"/><path class="cls-1" d="M694.69,421.32a208.68,208.68,0,0,1,14.45,60.38l33.2-2.91a242.07,242.07,0,0,0-16.74-70Z"/></svg>