<svg id="Layer_1" data-name="Layer 1" xmlns="http://www.w3.org/2000/svg" viewBox="0 0 1000 1000"><defs><style>.cls-1,.cls-2{fill:none;stroke:#557fa5;stroke-miterlimit:10;}.cls-1{stroke-width:3px;}.cls-2{stroke-width:2px;}</style></defs><path class="cls-1" d="M300.73,385A230.29,230.29,0,0,1,567.2,280L576,251.31A260.31,260.31,0,0,0,274.74,370Z"/><path class="cls-2" d="M601.62,323.88,590,344.09a180.06,180.06,0,0,1,62.65,251.3l19.79,12.37a203.42,203.42,0,0,0-70.77-283.88Z"/><path class="cls-2" d="M465.59,676.71a179.63,179.63,0,0,1-92.93-49.43l-16.5,16.5a202.86,202.86,0,0,0,105,55.84Z"/><path class="cls-2" d="M345.63,592.72a180.09,180.09,0,0,1,61.59-247l-12-20a203.43,203.43,0,0,0-69.57,279.05Z"/><path class="cls-2" d="M627.22,627.28a179.55,179.55,0,0,1-96,50l4,23a202.86,202.86,0,0,0,108.47-56.49Z"/></svg>