<svg id="Layer_1" data-name="Layer 1" xmlns="http://www.w3.org/2000/svg" viewBox="0 0 698.96 900"><defs><style>.cls-1{fill:#582e12;}.cls-2{fill:#cd7e46;}.cls-3{fill:#f0a266;}.cls-4{fill:#552b0e;}.cls-5{fill:#f5f5f5;}</style></defs><g id="ZSr6py"><path class="cls-1" d="M264.1,437.24c-9.81-9-18.64-17.88-26.12-28-24.45-33.21-32.83-70.86-30.85-111.39,1.23-25.29,6.41-49.86,13.86-74,.93-3,.63-4.76-2.06-6.77-11.36-8.44-22.18-17.51-31.15-28.58-5.66-7-10.44-14.48-13.12-23.11-5.32-17.18-1.67-32.7,10-46.08,18.7-21.5,41.7-36.39,70-41.63,18.19-3.38,33,3.5,44.46,17.9,8.1,10.22,13,22,16.31,34.44,1.15,4.27,2.46,4.48,6.15,2.53C359.6,112.43,399.73,98.82,442.71,94c52.23-5.84,102.71,1.53,151.79,19.63,5.24,1.93,7.13,1.5,8.41-4.27a105.07,105.07,0,0,1,14.24-33.54c13.19-20.87,33.2-29.6,57.3-24.33a117.67,117.67,0,0,1,54.13,28c19.26,17.37,21.83,39.16,8,61.28a127.26,127.26,0,0,1-26.09,29.45c-3.15,2.67-3.36,4.53-1.27,8.06,13.9,23.48,24.91,48.17,30.43,75.08,6.32,30.85,4.88,61.22-5.47,91.06-.36,1-.67,2.1-1.48,4.69,4.44-2.91,7.68-5.05,10.94-7.15,40-25.86,76.49-6.06,92.51,21.88,9.3,16.21,8.37,33.42,2.86,50.67-7.53,23.59-21.94,43-37.54,61.67-22.55,26.95-48.4,50.59-75.3,73.09-3.31,2.77-3.82,4.5-1.35,8.3,14,21.54,25.54,44.28,32.51,69.17s8.37,49.94,1.23,75.1a24.87,24.87,0,0,0-.42,2.75c11.45-1,22.44.31,32.84,5.12,30.13,13.93,49.92,36.68,56,69.49,8.51,45.68-5.3,85.21-37.37,118C786.35,921.06,758,924.92,727.1,914c-18.16-6.43-33.52-16.28-45-32.25-8.28-11.5-18.2-21.7-31.42-27.84a30.62,30.62,0,0,0-7.69-2.5c-9.45-1.62-11.23,0-12.31,9.24-3.31,28.3-13.17,53.73-36.38,71.5-26.79,20.5-56.59,23-87.22,9.45-22.28-9.84-39-26.11-50.77-47.61-7.06-13-17.24-23.78-25.61-35.87-53.4-77.08-85.3-161.76-90.43-255.86-.25-4.56-1.83-5.74-6-6.3-34.77-4.71-69.21-11-102.33-23.06-22.55-8.2-44.22-18.13-61.06-35.92-20.11-21.24-25.27-46.19-15.82-73.66,6-17.5,20.23-25.71,37.59-29.24,21.13-4.3,42-1.61,62.88,2.14,2.09.38,4.18.8,6.27,1.17A14.91,14.91,0,0,0,264.1,437.24Zm381.68,8.37a4.59,4.59,0,0,0,1.05-.49c33.16-26.8,60.55-57.94,76-98.55,13.32-35.09,13.74-70.44,3.43-106-6.43-22.24-16.48-43-28.85-62.62-2.79-4.41-2.64-7.59,1.64-10.91,9.5-7.41,17.64-16.21,25.2-25.58,16.67-20.68,14.28-41.9-6.69-58.16a134.06,134.06,0,0,0-33.91-18.78C656.71,54,635.83,61.54,622,86.94c-5.78,10.61-9.05,22.18-11.82,33.88-1.6,6.74-3.45,7.77-9.72,5.47-13.26-4.86-26.56-9.59-40.23-13.2-55-14.48-109.83-15-164.75.42a367.49,367.49,0,0,0-77.13,32c-5.88,3.22-8.4,2.16-10.15-4.26-2.65-9.74-5.47-19.38-9.9-28.51-10.77-22.2-28.16-30.2-51.63-23.18-15.26,4.57-28.41,13.12-40.93,22.74a71.39,71.39,0,0,0-15.32,15.77c-12.16,17.46-10.5,34.93,4.78,53.71,9.75,12,21.74,21.46,34,30.57,3.67,2.72,4.14,5.37,2.82,9.43A351.15,351.15,0,0,0,221.29,264c-5.43,28.47-6.55,57,0,85.38,10.39,45.4,39.09,76.89,77.59,100.62A249.87,249.87,0,0,0,340,470.11a420.44,420.44,0,0,0,78,22.05c15.67,3.81,31.65,5.35,47.68,6.42,53.92,3.62,105-6.06,152-33.52C627.53,459.32,637.42,453.53,645.78,445.61ZM674.9,858.4a12.81,12.81,0,0,0,.62-2.48c-1.43-29.59,3.63-58.28,12.31-86.4,8.76-28.35,25.51-49.7,54.25-60,4.12-1.49,5.33-4.74,6.38-8.31,6.67-22.73,6.21-45.52.24-68.27-7-26.72-19.69-50.83-34.61-73.88-5.24-8.08-5.13-8.21,2.44-14.58,32-27,63-54.95,88.33-88.61,11.81-15.72,21.92-32.32,26.71-51.75,9.74-39.55-28.84-69.63-58.6-63.29-23.28,5-41.37,18.74-54.32,37.32-17,24.46-35.24,47.52-57.94,66.86-37.14,31.64-79.71,51.68-128,59.32-40.9,6.48-81.48,3.94-121.81-4.53-42.07-8.84-82.71-21.68-119.91-43.9a24,24,0,0,0-5.34-2.19,290.59,290.59,0,0,0-45.34-9.84c-17.94-2.44-35.87-3.54-53.53,2.25-12.48,4.08-20.36,12.44-23.67,24.94-6.53,24.64.27,45.44,18.66,62.73,16.49,15.49,36.83,24,57.73,31.23,33.26,11.55,67.81,17.41,102.57,22,5.49.73,7.69,3,7.89,8.53,1.75,46.83,10.88,92.22,26.44,136.4,15.7,44.55,38.19,85.5,65.11,124.14.92,1.31,1.45,3.33,4,3a11.08,11.08,0,0,0,.2-2.21c-4.89-45,29.39-88.81,70.64-104.09,26.85-9.94,50.06-1.65,71.36,15.22,22.84,18.09,37.21,41.19,41.67,70.15.53,3.42,2,3.66,5.1,3.27a36.75,36.75,0,0,1,22.45,4.19C663.25,849,668.74,853.5,674.9,858.4Zm147.79,5.28A142,142,0,0,0,832,844.3c13.57-36.7,12.11-88.6-31.61-118.4-17.81-12.14-37-15-56.94-7.83-20.78,7.42-35.36,22.56-43.26,42.91A234.81,234.81,0,0,0,684,851.89c.26,11.65,3.7,21.9,11.62,30.78,8.76,9.83,19.57,16.18,31.69,20.76,24.81,9.37,48.44,9.42,70-8.39A102.76,102.76,0,0,0,822.69,863.68ZM608.48,899.43a68.9,68.9,0,0,0,6.88-15.23c6.48-20.54,8.7-41,1.32-62-7.64-21.72-21.33-38.5-39.84-51.47-15.05-10.54-31.59-17-50.32-12-17.41,4.6-32.17,14-44.79,26.86-27,27.43-37.17,66.63-17.5,102,10.53,18.93,24.67,33.46,43.84,43.36C545.1,950,587.88,937.08,608.48,899.43Z" transform="translate(-150.52 -50)"/><path class="cls-2" d="M418,492.16a420.44,420.44,0,0,1-78-22.05A249.87,249.87,0,0,1,298.84,450c-38.5-23.73-67.2-55.22-77.59-100.62-6.51-28.42-5.39-56.91,0-85.38A351.15,351.15,0,0,1,232,221.79c1.32-4.06.85-6.71-2.82-9.43-12.27-9.11-24.26-18.6-34-30.57-15.28-18.78-16.94-36.25-4.78-53.71a71.39,71.39,0,0,1,15.32-15.77c12.52-9.62,25.67-18.17,40.93-22.74,23.47-7,40.86,1,51.63,23.18,4.43,9.13,7.25,18.77,9.9,28.51,1.75,6.42,4.27,7.48,10.15,4.26a367.49,367.49,0,0,1,77.13-32c54.92-15.47,109.79-14.9,164.75-.42,13.67,3.61,27,8.34,40.23,13.2,6.27,2.3,8.12,1.27,9.72-5.47,2.77-11.7,6-23.27,11.82-33.88,13.85-25.4,34.73-32.91,61.64-22.47a134.06,134.06,0,0,1,33.91,18.78c21,16.26,23.36,37.48,6.69,58.16-7.56,9.37-15.7,18.17-25.2,25.58-4.28,3.32-4.43,6.5-1.64,10.91,12.37,19.59,22.42,40.38,28.85,62.62,10.31,35.61,9.89,71-3.43,106-15.42,40.61-42.81,71.75-76,98.55a5.08,5.08,0,0,1-1.05.5c-1.9-2.1-1.27-4.74-1.51-7.17-1.77-17.66-5.73-34.71-14.84-50.16a88.47,88.47,0,0,0-47.17-39.09c-9-3.27-18-6.87-27.93-6.57a18.78,18.78,0,0,1-2.51-1.44c-15.5-12.16-44.69-8.89-55.43,9.4-9.56,1.7-18.54,5.16-27.32,9.2-20.89,9.61-38.13,23.26-48.66,44.22-7.55,15-9.57,31.18-9.13,47.75C411.66,465.53,414.83,478.85,418,492.16Zm185-199c-8.38,15-3.38,33.35,11.37,41.71s34.11,3,42.3-11.72c8-14.43,2.55-33.47-12.07-41.77A30.42,30.42,0,0,0,603,293.17Zm-212,17.45c-15-8.37-33.51-3.38-41.83,11.29s-2.63,34.24,12.11,42.31a30.87,30.87,0,0,0,41.32-12A30.25,30.25,0,0,0,391.06,310.62Z" transform="translate(-150.52 -50)"/><path class="cls-2" d="M674.9,858.4c-6.16-4.9-11.65-9.4-18-12.79a36.75,36.75,0,0,0-22.45-4.19c-3.13.39-4.57.15-5.1-3.27-4.46-29-18.83-52.06-41.67-70.15-21.3-16.87-44.51-25.16-71.36-15.22-41.25,15.28-75.53,59.11-70.64,104.09a11.08,11.08,0,0,1-.2,2.21c-2.53.31-3.06-1.71-4-3-26.92-38.64-49.41-79.59-65.11-124.14-15.56-44.18-24.69-89.57-26.44-136.4-.2-5.49-2.4-7.8-7.89-8.53-34.76-4.61-69.31-10.47-102.57-22-20.9-7.25-41.24-15.74-57.73-31.23-18.39-17.29-25.19-38.09-18.66-62.73,3.31-12.5,11.19-20.86,23.67-24.94,17.66-5.79,35.59-4.69,53.53-2.25a290.59,290.59,0,0,1,45.34,9.84,24,24,0,0,1,5.34,2.19c37.2,22.22,77.84,35.06,119.91,43.9,40.33,8.47,80.91,11,121.81,4.53,48.29-7.64,90.86-27.68,128-59.32,22.7-19.34,40.89-42.4,57.94-66.86,13-18.58,31-32.36,54.32-37.32,29.76-6.34,68.34,23.74,58.6,63.29-4.79,19.43-14.9,36-26.71,51.75-25.29,33.66-56.31,61.65-88.33,88.61-7.57,6.37-7.68,6.5-2.44,14.58,14.92,23,27.6,47.16,34.61,73.88,6,22.75,6.43,45.54-.24,68.27-1.05,3.57-2.26,6.82-6.38,8.31-28.74,10.35-45.49,31.7-54.25,60-8.68,28.12-13.74,56.81-12.31,86.4A12.81,12.81,0,0,1,674.9,858.4Zm-132-137.2c4.16,2.75,10.94,5.6,18,7.66,20.6,6,40.39,3.79,59.61-5.76,17.68-8.79,29.84-22.07,35.71-41.06,9.34-30.25,8.13-59.92-5.31-88.68-11.5-24.62-29.51-42.48-56.28-49.76-22.83-6.22-44-.84-63.82,11.15-11.39,6.89-20.43,16.38-25.87,28.26a119.88,119.88,0,0,0-11,56.35C495.7,674.26,508.81,702.63,542.9,721.2Z" transform="translate(-150.52 -50)"/><path class="cls-3" d="M418,492.16c-3.18-13.31-6.35-26.63-6.73-40.4-.44-16.57,1.58-32.72,9.13-47.75,10.53-21,27.77-34.61,48.66-44.22,8.78-4,17.76-7.5,27.32-9.2-4.69,12.34-2.1,22.61,7.61,29.38,11.74,8.2,24.7,10.49,38.15,5.74,25-8.82,27.46-30.82,12.18-43.08,9.89-.3,18.94,3.3,27.93,6.57a88.47,88.47,0,0,1,47.17,39.09c9.11,15.45,13.07,32.5,14.84,50.16.24,2.43-.39,5.07,1.51,7.17-8.36,7.91-18.25,13.7-28.08,19.44-47,27.46-98.09,37.14-152,33.52C449.66,497.51,433.68,496,418,492.16Zm167.18-80.22c1.56-2.9,3.2-5.78,3.72-9.1S592,395.29,587,394c-5.21-1.31-4.71,3.8-5.57,6.91-4.31,15.64-15.79,20.67-30.42,13.28-2.42-1.22-4.89-2.34-7.28-3.61-3.13-1.68-5.74-1.39-8.37,1.22a61.56,61.56,0,0,1-12.81,9.93c-12.25,7-23.36,5.54-33.28-4.43a73.79,73.79,0,0,1-5.26-6.17c-1.58-2-3.48-2.65-5.53-1.1s-2.21,3.59-.76,5.66c8.73,12.44,22.56,22.09,39.82,16.66,6-1.89,11.72-4.53,16.12-8.95,4.8-4.83,8.78-5.06,15-1.84C563.88,429.46,577.8,425.33,585.19,411.94Z" transform="translate(-150.52 -50)"/><path class="cls-2" d="M822.69,863.68A102.76,102.76,0,0,1,797.29,895c-21.56,17.81-45.19,17.76-70,8.39-12.12-4.58-22.93-10.93-31.69-20.76-7.92-8.88-11.36-19.13-11.62-30.78A234.81,234.81,0,0,1,700.17,761c7.9-20.35,22.48-35.49,43.26-42.91,20-7.13,39.13-4.31,56.94,7.83,43.72,29.8,45.18,81.7,31.61,118.4A142,142,0,0,1,822.69,863.68Z" transform="translate(-150.52 -50)"/><path class="cls-2" d="M608.48,899.43c-20.6,37.65-63.38,50.61-100.41,31.48-19.17-9.9-33.31-24.43-43.84-43.36-19.67-35.36-9.51-74.56,17.5-102,12.62-12.81,27.38-22.26,44.79-26.86,18.73-5,35.27,1.46,50.32,12,18.51,13,32.2,29.75,39.84,51.47,7.38,21,5.16,41.49-1.32,62A68.9,68.9,0,0,1,608.48,899.43Z" transform="translate(-150.52 -50)"/><path class="cls-4" d="M554.33,342.63c15.28,12.26,12.82,34.26-12.18,43.08-13.45,4.75-26.41,2.46-38.15-5.74-9.71-6.77-12.3-17-7.61-29.38,10.74-18.29,39.93-21.56,55.43-9.4A18.78,18.78,0,0,0,554.33,342.63Z" transform="translate(-150.52 -50)"/><path class="cls-4" d="M603,293.17a30.42,30.42,0,0,1,41.6-11.78c14.62,8.3,20.12,27.34,12.07,41.77-8.19,14.68-27.59,20-42.3,11.72S594.66,308.18,603,293.17Zm20.55,3.18c-3.22,5.36-1.93,11.52,3.07,14.62a11.15,11.15,0,0,0,15.09-3.87,10.22,10.22,0,0,0-3.81-14C632.22,289.71,626.87,290.91,623.59,296.35Z" transform="translate(-150.52 -50)"/><path class="cls-4" d="M391.06,310.62a30.25,30.25,0,0,1,11.6,41.63,30.87,30.87,0,0,1-41.32,12c-14.74-8.07-20.38-27.74-12.11-42.31S376,302.25,391.06,310.62Zm-5.89,11.78c-5.5-3-11-1.27-14.12,4.37-2.94,5.36-1.17,11.59,4.06,14.3a11.18,11.18,0,0,0,14.56-4.31A10.64,10.64,0,0,0,385.17,322.4Z" transform="translate(-150.52 -50)"/><path class="cls-3" d="M542.9,721.2c-34.09-18.57-47.2-46.94-48.94-81.84a119.88,119.88,0,0,1,11-56.35c5.44-11.88,14.48-21.37,25.87-28.26,19.83-12,41-17.37,63.82-11.15,26.77,7.28,44.78,25.14,56.28,49.76,13.44,28.76,14.65,58.43,5.31,88.68-5.87,19-18,32.27-35.71,41.06-19.22,9.55-39,11.75-59.61,5.76C553.84,726.8,547.06,724,542.9,721.2Z" transform="translate(-150.52 -50)"/><path class="cls-1" d="M585.2,411.94c-7.4,13.39-21.32,17.52-36.52,9.64-6.2-3.22-10.18-3-15,1.84-4.4,4.42-10.14,7.06-16.12,8.95-17.26,5.43-31.09-4.22-39.82-16.66-1.45-2.07-1.21-4.17.76-5.66s4-.88,5.53,1.1a73.79,73.79,0,0,0,5.26,6.17c9.92,10,21,11.4,33.28,4.43a61.56,61.56,0,0,0,12.81-9.93c2.63-2.61,5.24-2.9,8.37-1.22,2.39,1.27,4.86,2.39,7.28,3.61,14.63,7.39,26.11,2.36,30.42-13.28.86-3.11.36-8.22,5.57-6.91,5,1.27,2.37,5.61,1.87,8.82S586.75,409,585.2,411.94Z" transform="translate(-150.52 -50)"/><path class="cls-5" d="M623.59,296.35c3.28-5.44,8.63-6.64,14.35-3.21a10.22,10.22,0,0,1,3.81,14A11.15,11.15,0,0,1,626.66,311C621.66,307.87,620.37,301.71,623.59,296.35Z" transform="translate(-150.52 -50)"/><path class="cls-5" d="M385.17,322.4a10.64,10.64,0,0,1,4.5,14.36,11.18,11.18,0,0,1-14.56,4.31c-5.23-2.71-7-8.94-4.06-14.3C374.15,321.13,379.67,319.42,385.17,322.4Z" transform="translate(-150.52 -50)"/></g></svg>