<svg xmlns="http://www.w3.org/2000/svg" viewBox="0 0 200 202"><defs><style>.cls-1{fill:#e8dfc2;}.cls-2{fill:#fdd040;}.cls-3,.cls-6{fill:none;stroke-linecap:round;}.cls-3{stroke:#5c4d46;stroke-miterlimit:10;stroke-width:5px;}.cls-4{fill:#5c4d46;}.cls-5{fill:#fb804a;}.cls-6{stroke:#fdd040;stroke-linejoin:round;stroke-width:4px;}.cls-7{fill:#f7efd8;}</style></defs><g id="Layer_2" data-name="Layer 2"><g id="Layer_1-2" data-name="Layer 1"><path class="cls-1" d="M116,4.06c18.44,10,12.2,34,9.66,36.69-46.06,48.44-49,42.56-49-16.88C76.65,10.66,93-8.42,116,4.06Z"/><path class="cls-2" d="M195.53,92.12c21.54,64.58-38.64,102-97.33,96.14C26.12,181.05,5,123.85,72.94,73.77,116.77,41.48,178.82,42,195.53,92.12Z"/><path class="cls-3" d="M124.2,67.9c1.86-26.78,10-36.32,29.72-38.16"/><path class="cls-3" d="M157.24,61.88c5.23-20.76,14.88-24.43,29.74-24.43"/><ellipse class="cls-4" cx="125.69" cy="104.6" rx="3.34" ry="3.3"/><ellipse class="cls-4" cx="169.52" cy="89.19" rx="3.34" ry="3.3"/><path class="cls-3" d="M145.38,110.1c5.94,6.61,14.11,2.94,14.11-5.14"/><ellipse class="cls-5" cx="121.27" cy="121.47" rx="10.4" ry="5.87" transform="translate(-5.53 5.78) rotate(-2.67)"/><ellipse class="cls-5" cx="182.39" cy="98.64" rx="10.32" ry="6.23" transform="translate(-5 187.42) rotate(-53.76)"/><path class="cls-6" d="M47.68,187.52c8.4-.66,14.86-2.93,18.57-8.8"/><path class="cls-6" d="M64,194.13c6.28-2.23,11.89-5.87,14.12-11"/><path class="cls-6" d="M111.57,199.27c5.75-3.16,9.66-7.34,11.89-12.48"/><path class="cls-6" d="M131.63,200c3.77-4.8,6.69-9.54,6.69-15.41"/><path class="cls-4" d="M136.29,186a106,106,0,0,0,20.32-6.73c-50.74-5.05-72.43-42.94-54.74-121.16a117.94,117.94,0,0,0-18.52,8.79C69.1,143.08,95.87,174.16,136.29,186Z"/><path class="cls-4" d="M106.15,188.79C76,158.41,62.42,131.08,77.36,70.67c-1.49,1-3,2-4.42,3.1A156.47,156.47,0,0,0,57.69,86.51c-4.78,56.91,7.61,77,31,100.45,3.08.53,6.26,1,9.55,1.3Q102.17,188.65,106.15,188.79Z"/><path class="cls-4" d="M50.51,94a85.1,85.1,0,0,0-13.84,20.73c.85,22.67,5.62,42.24,11.75,55.39a66.82,66.82,0,0,0,13.63,8.64C52.21,155.46,49.5,127.07,50.51,94Z"/><path class="cls-7" d="M.13,62.77c3-29.36,28.41-31.87,51.28-17.86,42.33,25.93,48.28,34-17.85,45C23.28,91.63-2,84.06.13,62.77Z"/></g></g></svg>