<svg xmlns="http://www.w3.org/2000/svg" viewBox="0 0 200 202"><defs><style>.cls-1{fill:#e8dfc2;}.cls-2{fill:#fdd040;}.cls-3,.cls-5{fill:none;stroke-linecap:round;}.cls-3{stroke:#5c4d46;stroke-miterlimit:10;stroke-width:5px;}.cls-4{fill:#fb804a;}.cls-5{stroke:#fdd040;stroke-linejoin:round;stroke-width:4px;}.cls-6{fill:#5c4d46;}.cls-7{fill:#f7efd8;}</style></defs><g id="Layer_2" data-name="Layer 2"><g id="Layer_1-2" data-name="Layer 1"><path class="cls-1" d="M84,4.06c-18.44,10-12.2,34-9.66,36.69,46.06,48.44,49,42.56,49-16.88C123.35,10.66,107-8.42,84,4.06Z"/><path class="cls-2" d="M4.47,92.12c-21.54,64.58,38.64,102,97.33,96.14,72.08-7.21,93.24-64.41,25.26-114.49C83.23,41.48,21.18,42,4.47,92.12Z"/><path class="cls-3" d="M67.54,63.33c-2.05-21-13.71-25.06-30.17-23.71"/><path class="cls-3" d="M40.11,64.68C33.36,48.52,25,44.36,12.69,46.4"/><path class="cls-3" d="M56.57,116.84c-5.48,7.45-13.71,5.42-13.71-3.39"/><ellipse class="cls-4" cx="81.48" cy="124.18" rx="10.4" ry="5.87" transform="translate(-9.65 6.9) rotate(-4.58)"/><ellipse class="cls-4" cx="17.61" cy="112.18" rx="6.21" ry="10.34" transform="translate(-78.03 50.96) rotate(-48.45)"/><path class="cls-5" d="M152.32,187.52c-8.4-.66-14.86-2.93-18.57-8.8"/><path class="cls-5" d="M136,194.13c-6.28-2.23-11.89-5.87-14.12-11"/><path class="cls-5" d="M88.43,199.27c-5.75-3.16-9.66-7.34-11.89-12.48"/><path class="cls-5" d="M68.37,200c-3.77-4.8-6.69-9.54-6.69-15.41"/><path class="cls-6" d="M63.71,186a106,106,0,0,1-20.32-6.73c50.74-5.05,72.43-42.94,54.74-121.16a117.94,117.94,0,0,1,18.52,8.79C130.9,143.08,104.13,174.16,63.71,186Z"/><path class="cls-6" d="M93.85,188.79c30.19-30.38,43.73-57.71,28.79-118.12,1.49,1,3,2,4.42,3.1a156.47,156.47,0,0,1,15.25,12.74c4.78,56.91-7.61,77-31,100.45-3.08.53-6.26,1-9.55,1.3Q97.83,188.65,93.85,188.79Z"/><path class="cls-6" d="M149.49,94a85.1,85.1,0,0,1,13.84,20.73c-.85,22.67-5.62,42.24-11.75,55.39A66.82,66.82,0,0,1,138,178.71C147.79,155.46,150.5,127.07,149.49,94Z"/><path class="cls-7" d="M199.87,62.77c-3-29.36-28.41-31.87-51.28-17.86-42.33,25.93-48.28,34,17.85,45C176.72,91.63,202,84.06,199.87,62.77Z"/><path class="cls-3" d="M65.49,107.36c4.11-6.1,11.65-3.39,14.4,1.35"/><path class="cls-3" d="M25,99.91c4.8-5.42,9.6-4.75,13.26.32"/></g></g></svg>