<svg xmlns="http://www.w3.org/2000/svg" viewBox="0 0 202.5 202"><defs><style>.cls-1{fill:#e8dfc2;}.cls-2{fill:#fdd040;}.cls-3,.cls-6{fill:none;stroke-linecap:round;}.cls-3{stroke:#5c4d46;stroke-miterlimit:10;stroke-width:5px;}.cls-4{fill:#5c4d46;}.cls-5{fill:#fb804a;}.cls-6{stroke:#fdd040;stroke-linejoin:round;stroke-width:4px;}.cls-7{fill:#f7efd8;}</style></defs><g id="Layer_2" data-name="Layer 2"><g id="Layer_1-2" data-name="Layer 1"><path class="cls-1" d="M68.35,7.52C51.54,21,63.36,42.92,66.58,45c58.44,37.14,60.2,30.85,46.9-26.55C110.53,5.66,89.37-9.35,68.35,7.52Z"/><path class="cls-2" d="M5.9,109.18C-1.92,176.05,68.65,199.61,128,181.67c72.87-22,81.94-81.69.49-115.84C76,43.81,12,57.31,5.9,109.18Z"/><path class="cls-3" d="M74.19,70.88C66.28,45.4,55.7,37.9,34.94,40.24"/><path class="cls-3" d="M38.7,72c-10-19-20.84-20.48-36.2-17.38"/><ellipse class="cls-4" cx="80.86" cy="106.63" rx="3.53" ry="3.26" transform="matrix(1, -0.03, 0.03, 1, -3.38, 2.65)"/><ellipse class="cls-4" cx="32.12" cy="100.91" rx="3.53" ry="3.26" transform="translate(-3.22 1.08) rotate(-1.84)"/><path class="cls-3" d="M61.75,116.06c-4.67,7.62-13.93,5.78-15.74-2"/><ellipse class="cls-5" cx="89.21" cy="122" rx="10.98" ry="5.81" transform="translate(-16.93 14.41) rotate(-8.43)"/><ellipse class="cls-5" cx="20.94" cy="112.72" rx="6.32" ry="10.61" transform="translate(-81.24 60.72) rotate(-52.51)"/><path class="cls-6" d="M180,170.4c-8.83,1.12-16,.27-21.16-4.62"/><path class="cls-6" d="M164.62,180.2c-7-.84-13.6-3.19-17.05-7.68"/><path class="cls-6" d="M116.63,195.1C110,193.25,105,190,101.55,185.53"/><path class="cls-6" d="M96.06,200c-5-3.84-9-7.82-10.35-13.48"/><path class="cls-4" d="M88.12,187.46a119.37,119.37,0,0,1-22.5-2.24c51.3-15.49,65.24-56.62,29.47-128.45a130.46,130.46,0,0,1,21.09,4.61C148,132,127.24,167.57,88.12,187.46Z"/><path class="cls-4" d="M119.89,183.85c24.4-35.65,32.28-64.87,3.33-120.09,1.76.65,3.52,1.34,5.26,2.07A170.2,170.2,0,0,1,147.1,75c17.66,54,9.35,76-9.54,103.47-3.05,1.16-6.25,2.25-9.57,3.25C125.31,182.48,122.6,183.2,119.89,183.85Z"/><path class="cls-4" d="M156.17,80.63a87.23,87.23,0,0,1,18.94,17.12c4.2,22.08,3.64,42,.25,55.95a69.1,69.1,0,0,1-12.15,11.2C168.18,140.39,164.63,112.4,156.17,80.63Z"/><path class="cls-7" d="M201.26,40c-9.63-27.72-36.49-24.83-57-6.52C106.33,67.35,102,76.39,172.79,73.19,183.8,72.7,208.25,60.09,201.26,40Z"/></g></g></svg>