<svg xmlns="http://www.w3.org/2000/svg" viewBox="0 0 200 202"><defs><style>.cls-1{fill:#e8dfc2;}.cls-2{fill:#fdd040;}.cls-3,.cls-6{fill:none;stroke-linecap:round;}.cls-3{stroke:#5c4d46;stroke-miterlimit:10;stroke-width:5px;}.cls-4{fill:#5c4d46;}.cls-5{fill:#fb804a;}.cls-6{stroke:#fdd040;stroke-linejoin:round;stroke-width:4px;}.cls-7{fill:#f7efd8;}</style></defs><g id="Layer_2" data-name="Layer 2"><g id="Layer_1-2" data-name="Layer 1"><path class="cls-1" d="M91.26.9c19.44,4.6,20,29.67,18.38,33-29.46,59.83-33.7,55-49.19-2.81C57,18.23,67-4.84,91.26.9Z"/><path class="cls-2" d="M186.82,64.44c36.51,56.78-8.71,109.82-63.86,120.38C55.24,197.79,21,148.08,70.06,80.58,101.69,37.06,158.5,20.4,186.82,64.44Z"/><path class="cls-3" d="M115.36,60.67c-5.28-26.54-.3-38.07,17.2-45.31"/><path class="cls-3" d="M144,45.67c-.64-21.63,7.23-27.87,20.8-32"/><ellipse class="cls-4" cx="122.72" cy="86.54" rx="3.34" ry="3.17" transform="translate(6.36 181.46) rotate(-74.4)"/><ellipse class="cls-4" cx="163.6" cy="67.5" rx="3.34" ry="3.17" transform="translate(54.58 206.92) rotate(-74.4)"/><path class="cls-3" d="M141.74,90.47c6,6.16,13.58,1.81,13.15-6.3"/><ellipse class="cls-5" cx="119.41" cy="103.85" rx="9.95" ry="5.89" transform="translate(-14.54 19.58) rotate(-8.84)"/><ellipse class="cls-5" cx="176.33" cy="75.95" rx="10.36" ry="5.95" transform="translate(22.27 190.53) rotate(-59.94)"/><path class="cls-6" d="M76.62,198.11c7.51-3,12.81-7,14.67-13.7"/><path class="cls-6" d="M93.27,200c5.16-3.9,9.33-9,10-14.61"/><path class="cls-6" d="M138.05,191.81a26.86,26.86,0,0,0,7.61-15.41"/><path class="cls-6" d="M156.56,187c2.19-5.71,3.62-11.12,2.1-16.83"/><path class="cls-4" d="M157.17,172.08A100.69,100.69,0,0,0,174,159.92c-47.66,9.15-77.35-21.66-81.57-102.56A112.94,112.94,0,0,0,77.79,71C84.61,149,117.17,171.77,157.17,172.08Z"/><path class="cls-4" d="M130.37,183.13c-35.5-21.15-55-43.95-57.08-106.78q-1.65,2.07-3.23,4.23A159.24,159.24,0,0,0,59.45,97.19c10.46,56.62,27,72.71,54.45,89,2.95-.34,6-.79,9.06-1.39C125.45,184.35,127.92,183.78,130.37,183.13Z"/><path class="cls-4" d="M54.83,106.41a89.74,89.74,0,0,0-7.24,24c6.68,21.8,16.14,39.48,25.16,50.57a61,61,0,0,0,14.7,4.62C72.41,165.7,62.54,138.87,54.83,106.41Z"/><path class="cls-7" d="M.68,90.07C-4.25,60.72,18.33,51.23,42.87,58.5,88.3,72,95.83,78.16,38.3,107.18,29.35,111.7,4.26,111.35.68,90.07Z"/></g></g></svg>