<svg xmlns="http://www.w3.org/2000/svg" viewBox="0 0 150 150"><defs><style>.cls-1{fill:#542f0f;}.cls-2{fill:#5e340d;}.cls-3{fill:#ed9e1f;}.cls-4{fill:#794413;}.cls-5{fill:#f3b71b;}.cls-6{fill:#fcf4a8;}.cls-7{fill:#844d21;}</style></defs><g id="Layer_2" data-name="Layer 2"><g id="Layer_1-2" data-name="Layer 1"><path class="cls-1" d="M118,134.81a8.18,8.18,0,0,1-2.86,4.76,26.91,26.91,0,0,1-9,5.34,75.28,75.28,0,0,1-21.59,4.67A102.39,102.39,0,0,1,51,147.2a48.07,48.07,0,0,1-11.41-4.27,18.92,18.92,0,0,1-6-4.75,7.25,7.25,0,0,1-1.69-6c.71-.5,1.33-.07,1.93.21a101.66,101.66,0,0,0,10.09,4.06A101,101,0,0,0,64.57,141a94.4,94.4,0,0,0,16.12.38,92.91,92.91,0,0,0,34-8.19,20,20,0,0,1,2.32-1c.75-.23,1.2-.06,1.12.78A10.3,10.3,0,0,1,118,134.81Z"/><path class="cls-2" d="M118,134.81c0-.19,0-.38,0-.57,0-2.25,0-2.26-2.26-1.21a95.21,95.21,0,0,1-26,7.78,96.37,96.37,0,0,1-20.43.87,92.71,92.71,0,0,1-31.18-7c-1.6-.68-3.17-1.38-4.75-2.09a2.83,2.83,0,0,0-1.51-.38l-.05-.41a3.52,3.52,0,0,0-1.52-1.38,95.93,95.93,0,0,1-9.52-6.07c-.69-.5-1.19-1.23-2.2-1.21l-.23-.19a7.49,7.49,0,0,0-4.66-4.35h0A6.22,6.22,0,0,0,11.9,116c-1.83-2-3.26-4.34-4.87-6.51a2.79,2.79,0,0,1-.73-2.78,3.42,3.42,0,0,1,1.81.62,3.42,3.42,0,0,0,3,1.36,1.91,1.91,0,0,1,.84.32c1.43,1.65,2.66,3.44,4.12,5.07A63.32,63.32,0,0,0,33.9,127.8a85.27,85.27,0,0,0,31.2,9.35,83.34,83.34,0,0,0,10.47.62,91.6,91.6,0,0,0,33.7-6.73A73.17,73.17,0,0,0,126,121.37a50.31,50.31,0,0,0,10.41-10.61c.72-1,2-1.32,2.65-2.28a47.49,47.49,0,0,1,5.42-2.62.59.59,0,0,1,.68,0A41.83,41.83,0,0,1,138.67,116a64.28,64.28,0,0,1-19.34,15.26c-.83.44-1.33.84-1.11,1.82A2.35,2.35,0,0,1,118,134.81Z"/><path class="cls-3" d="M145.2,105.9l-5.91,2.7a5.2,5.2,0,0,1-1.7.93c-.31.07-.61.21-.82-.14a2.56,2.56,0,0,1,.69-1.54,43.32,43.32,0,0,0,7.27-21.06A48.18,48.18,0,0,0,144,73.24c-.49-2.33-.94-4.68-1.58-7,0-.35.19-.57.48-.75,1.12-.38,2-1.3,3.33-1.2a80.94,80.94,0,0,1,3.21,13.6,46.34,46.34,0,0,1-3.48,26.7A3.76,3.76,0,0,1,145.2,105.9Z"/><path class="cls-3" d="M4.06,64c.85,1.15,2.29,1.35,3.52,1.88a.53.53,0,0,1,.13.36c-.61,3.31-1.53,6.57-2,9.9a44,44,0,0,0,6.41,31.19c.36.57.95,1.08.75,1.85-.44.44-.73,0-1.08-.15l-.68-.27a6.36,6.36,0,0,1-3-1.29l-1.66-.76a2.16,2.16,0,0,1-1.78-.86A39,39,0,0,1,.73,94.26c-1.54-8-.46-15.94,1.57-23.78C2.85,68.32,3.47,66.17,4.06,64Z"/><path class="cls-2" d="M18.57,123.13a1.4,1.4,0,0,1,1.95.51,14.29,14.29,0,0,0,3.73,2.71,47.92,47.92,0,0,0,6.92,4.1,1.11,1.11,0,0,1,.64,1.34A65,65,0,0,1,18.57,123.13Z"/><path class="cls-2" d="M4.65,105.87l1.78.86a4,4,0,0,0,.76,2.44c1.73,2.47,3.51,4.91,5.45,7.24.59.71,1.28,1.21,1,2.19A43.76,43.76,0,0,1,4.65,105.87Z"/><path class="cls-2" d="M13.68,118.59a2.52,2.52,0,0,1,2.27.81c.55.55,1.13,1.08,1.72,1.59a2.06,2.06,0,0,1,.67,2A32.06,32.06,0,0,1,13.68,118.59Z"/><path class="cls-2" d="M11.75,109.05l1,.25a.91.91,0,0,1,.82.36,58.75,58.75,0,0,0,6.8,7.58,66.73,66.73,0,0,0,14.2,10A86.24,86.24,0,0,0,63,136.09a84.38,84.38,0,0,0,16,.76,88.05,88.05,0,0,0,33.59-8.17,66.06,66.06,0,0,0,18.09-12.44,67.32,67.32,0,0,0,5.66-6.54,1,1,0,0,1,.53-.21l2.44-.89c-.14.22-.22.58-.43.66-2.4,1-3.19,3.33-4.73,5a66.54,66.54,0,0,1-9,8.23,69,69,0,0,1-13.6,7.94,86.25,86.25,0,0,1-21,6.3c-3.87.64-7.79.91-11.71,1.21a68.82,68.82,0,0,1-9.85-.12,89.91,89.91,0,0,1-18.15-3.06,83.75,83.75,0,0,1-15-5.66,71.44,71.44,0,0,1-12.2-7.65,57.76,57.76,0,0,1-10.16-10.15C12.79,110.58,12.29,109.81,11.75,109.05Z"/><path class="cls-2" d="M8.09,107.49a13.17,13.17,0,0,1,3,1.29A2.64,2.64,0,0,1,8.09,107.49Z"/><path class="cls-4" d="M85.74,48c1.87-.39,3.78-.42,5.68-.63,9.74-1.08,19.29-2.87,28.22-6.84A6.2,6.2,0,0,0,121,40c6.63-3.66,5.63-4.54,8-1.84,6.71,7.72,10.63,16.65,13.26,26.15.14.49,0,1.2.77,1.39l-.59.38c-.27.56-.87.67-1.38.87A132.41,132.41,0,0,1,118,73.72a204.84,204.84,0,0,1-23.81,3.37,221.39,221.39,0,0,1-26.14.69,203.17,203.17,0,0,1-41.36-5.23A122.54,122.54,0,0,1,9,67c-.51-.21-1.1-.34-1.37-.88a1.16,1.16,0,0,1,0-.18,87.07,87.07,0,0,1,4.49-13.73,58.79,58.79,0,0,1,8.72-14.88c1.39-1.73,1.33-1.72,3.07-.28a32.27,32.27,0,0,0,8.42,4.75A91.37,91.37,0,0,0,54,47.2a92.42,92.42,0,0,0,10.4,1c1,0,1.92.25,2.9.19A171.75,171.75,0,0,0,85.74,48Z"/><path class="cls-2" d="M138.41,46.62a60.06,60.06,0,0,0-8.16-10.14,36.88,36.88,0,0,0-4.41-3.77,36.06,36.06,0,0,0-5.14-3.4c-8.32,2.58-40.83,4.5-67.84,6.58a7.53,7.53,0,0,0-1.18-.29C43.82,34.35,36.16,32.52,29.05,29c-.45-.22-.93-.53-1.49-.21a43.64,43.64,0,0,0-9.63,8.3C11,45.06,7,54.3,4.06,64c.29,1,2.32,2.06,3.64,1.86a2.57,2.57,0,0,0,.49-1.15A95.62,95.62,0,0,1,14.34,48a55.46,55.46,0,0,1,7.1-10.95c.77-.93.9-.91,1.82-.14a24.2,24.2,0,0,0,4,2.78c5.89,3.25,12.34,5.09,19,6.49a119.08,119.08,0,0,0,16.31,2.22c1.42.11,11.26.5,14.51.23L89,48c3-.18,5.87-.58,8.77-1a95.23,95.23,0,0,0,12.53-2.65,158.35,158.35,0,0,0,16.59-6.87c4.59,5.56,10.55,13.75,12.9,20.14.86,2.36,1.61,4.75,2.27,7.17.12.44.07,1.18,1,1l3.16-1.38A67.57,67.57,0,0,0,138.41,46.62Z"/><path class="cls-5" d="M7.62,66.08a135.54,135.54,0,0,0,18.81,6A191.85,191.85,0,0,0,52,76.36a222.72,222.72,0,0,0,29.67,1c18.17-.57,36-2.83,53.24-8.57,2.53-.84,5-1.84,7.5-2.77a1.69,1.69,0,0,1,.57,1.09,59.94,59.94,0,0,1,2.14,19.47,43.87,43.87,0,0,1-4,15.39,66.9,66.9,0,0,1-4.29,7.48l-.25.23A9.68,9.68,0,0,1,134,111.1a172.7,172.7,0,0,1-43.54,11,141.94,141.94,0,0,1-22.1.66,151.35,151.35,0,0,1-36.81-6.34c-5.4-1.61-10.74-3.36-15.95-5.47a7.55,7.55,0,0,1-2.31-1.23l-.52-.38a8.48,8.48,0,0,0-1.42-2.47,44.76,44.76,0,0,1-6.11-16.6,39.62,39.62,0,0,1-.52-8A71.09,71.09,0,0,1,7,68.22,4.82,4.82,0,0,1,7.62,66.08Z"/><path class="cls-4" d="M13.24,109.68c5.46,2.08,10.93,4.15,16.55,5.84a166.36,166.36,0,0,0,31.1,6.3,140.31,140.31,0,0,0,21,.55,160.17,160.17,0,0,0,42.9-8.31c4-1.33,7.88-2.87,11.81-4.34a48.51,48.51,0,0,1-8.74,9.55A70.18,70.18,0,0,1,114.58,128a84.56,84.56,0,0,1-19.52,7,89.94,89.94,0,0,1-14.28,2,84.08,84.08,0,0,1-9.52.14,91.26,91.26,0,0,1-19-2.86,85.07,85.07,0,0,1-15-5.39,69.69,69.69,0,0,1-13.45-8.34A54,54,0,0,1,13.24,109.68Z"/><path class="cls-6" d="M39.84,94.49c-2.5,0-2.49,0-3.08,1.8s-1.37,3.88-1.88,5.86c-.28,1.07-.8,1.42-1.88,1.2a1.71,1.71,0,0,1-1.27-2.13c.23-.76.47-1.53.76-2.27C34.17,94.62,35,90.11,36,85.63c.25-1.14.51-2.29.8-3.43a1.54,1.54,0,0,1,2-1.1,1.93,1.93,0,0,1,1.36,2.44,44.76,44.76,0,0,0-1.93,6.56c-.19.79.12,1.15,1,1.19a38.77,38.77,0,0,1,8,1.36c.89.22,1.38.07,1.64-.77.66-2.07,1.7-4,2.17-6.14.16-.75.48-1.57,1.47-1.57a1.93,1.93,0,0,1,1.75,1.54,2.47,2.47,0,0,1-.15,1.88,50.48,50.48,0,0,0-2.2,5.29,99.7,99.7,0,0,0-3.2,12.85c-.13.82-.23,1.65-1.38,1.66a1.76,1.76,0,0,1-1.79-2c.29-1.79.75-3.55,1.16-5.32.26-1.15.53-2.29.84-3.43.14-.5.05-.81-.52-.92C44.48,95.21,42,94.34,39.84,94.49Z"/><path class="cls-6" d="M108,91V88.58a1.78,1.78,0,0,1,1.82-2,2,2,0,0,1,2.1,2c-.1,1.51-.46,3-.56,4.49-.19,2.87-.74,5.69-.94,8.56-.19,2.54-.13,5.12-.91,7.62a5.92,5.92,0,0,1-5.3,3.45,1.69,1.69,0,0,1-1.64-1.79c0-1.69.63-2.74,2-3,1.94-.32,1.94-.32,2-2.17a10.27,10.27,0,0,1,.23-2.36c.36-1.16-.15-1.86-1-2.63a47.54,47.54,0,0,1-7.3-7.3c-.23-.31-.51-.59-.71-.91A1.81,1.81,0,0,1,98.12,90a2.26,2.26,0,0,1,3,.7A16.5,16.5,0,0,0,104,94.86c.93.85,1.87,1.68,2.82,2.51.52.47.65.17.71-.32A40.07,40.07,0,0,0,108,91Z"/><path class="cls-6" d="M81.82,102.87c0,1.58,0,3.15,0,4.73,0,1-.42,1.65-1.57,1.59a1.87,1.87,0,0,1-1.86-2,33.58,33.58,0,0,0,.19-3.61,17.89,17.89,0,0,0-1.13-6.34c-.37-1-.88-1.19-1.91-.92-2.75.73-4.18,3.12-3.73,6.09.29,1.86.42,3.75.54,5.64a1.11,1.11,0,0,1-1.24,1.24A2,2,0,0,1,69,107.61c-.18-2.76-.32-5.51-.52-8.26-.1-1.51-.29-3-.45-4.51C68,94,68.07,93.27,69,93a1.8,1.8,0,0,1,2.21.76c.39.62.78.6,1.38.29a7.34,7.34,0,0,1,3.05-1.08,4.35,4.35,0,0,1,4.44,2.59A17,17,0,0,1,81.82,102.87Z"/><path class="cls-6" d="M96.59,100.43a1.48,1.48,0,0,0-2,.91c-.19.46-.36.92-.54,1.39-.62,1.58-2.08,2-3.65,2.23a2.88,2.88,0,0,1-3.23-1.71c-.34-.69-.69-1.38-1-2.07-.51-1.13-.34-1.59.92-1.77,2.53-.37,4.93-1.31,7.54-1.31,1.71,0,2.42-1.11,1.77-2.56-2-4.45-7-5.9-10.82-3A7.6,7.6,0,0,0,82.35,99a12,12,0,0,0,2.23,5.82,6.66,6.66,0,0,0,6,3.1c3.41,0,6.79-2.52,7.35-5.52A1.7,1.7,0,0,0,96.59,100.43Zm-9.9-4.74a4,4,0,0,1,5-1.35c.24.14.49.29.51.59s-.21.3-.4.35l-4.7,1.1C86.59,96.35,86.36,96.23,86.69,95.69Z"/><path class="cls-6" d="M65.76,94.88a5.36,5.36,0,0,0-3.53-2.77,9.45,9.45,0,0,0-8.06,2c-2.5,2.15-2.72,5-2.4,8a6.33,6.33,0,0,0,1.88,4.42c2.93,2.57,6.33,2.91,10,1.74a4.29,4.29,0,0,0,2.73-2.59,11.83,11.83,0,0,0,1-5.13C67.59,98.51,66.7,96.67,65.76,94.88Zm-2.53,9.31c-.51,1.19-3.32,1.8-5.2,1.32-2.65-.67-3.79-2.49-3.4-5.44.45-3.39,2.23-4.86,5.92-4.88,1.74,0,2.29.38,3.06,1.89C64.86,99.53,64.23,101.89,63.23,104.19Z"/><ellipse class="cls-4" cx="75.03" cy="18.97" rx="54.97" ry="18.97"/><ellipse class="cls-7" cx="75.4" cy="17.83" rx="49.71" ry="15.79"/><ellipse class="cls-2" cx="75.28" cy="14.54" rx="41.01" ry="10.68"/></g></g></svg>