<svg xmlns="http://www.w3.org/2000/svg" viewBox="0 0 150 150"><defs><style>.cls-1{fill:none;}.cls-2{fill:#542f0f;}.cls-3{fill:#5e340d;}.cls-4{fill:#ed9e1f;}.cls-5{fill:#794413;}.cls-6{fill:#f3b71b;}.cls-7{fill:#fcf4a8;}.cls-8{fill:#844d21;}</style></defs><g id="Layer_2" data-name="Layer 2"><g id="Layer_1-2" data-name="Layer 1"><ellipse class="cls-1" cx="74.98" cy="18.97" rx="54.97" ry="18.97"/><path class="cls-2" d="M118,134.81a8.18,8.18,0,0,1-2.86,4.76,26.91,26.91,0,0,1-9,5.34,75.28,75.28,0,0,1-21.59,4.67A102.39,102.39,0,0,1,51,147.2a48.07,48.07,0,0,1-11.41-4.27,18.92,18.92,0,0,1-6-4.75,7.24,7.24,0,0,1-1.69-6c.71-.51,1.33-.08,1.93.2a99.29,99.29,0,0,0,10.09,4.06A101,101,0,0,0,64.57,141a95.44,95.44,0,0,0,16.12.39,93.12,93.12,0,0,0,34-8.2,19.91,19.91,0,0,1,2.32-1c.75-.24,1.2-.07,1.12.77A10.3,10.3,0,0,1,118,134.81Z"/><path class="cls-3" d="M118,134.81c0-.19,0-.38,0-.57,0-2.25,0-2.26-2.26-1.21a94.86,94.86,0,0,1-26,7.78,96.37,96.37,0,0,1-20.43.87,92.71,92.71,0,0,1-31.18-7c-1.6-.67-3.17-1.38-4.75-2.09a2.74,2.74,0,0,0-1.51-.37l-.05-.42a3.52,3.52,0,0,0-1.52-1.38,95.93,95.93,0,0,1-9.52-6.07c-.69-.5-1.19-1.23-2.2-1.2l-.23-.19a7.48,7.48,0,0,0-4.66-4.36h0A6.28,6.28,0,0,0,11.9,116c-1.83-2-3.26-4.33-4.87-6.51a2.77,2.77,0,0,1-.73-2.77,3.41,3.41,0,0,1,1.81.61,3.39,3.39,0,0,0,3,1.36,1.81,1.81,0,0,1,.84.33c1.43,1.64,2.66,3.43,4.12,5.06A63.32,63.32,0,0,0,33.9,127.8a85.08,85.08,0,0,0,31.2,9.35,83.34,83.34,0,0,0,10.47.62,91.6,91.6,0,0,0,33.7-6.73A72.8,72.8,0,0,0,126,121.37a50.31,50.31,0,0,0,10.41-10.61c.72-1,2-1.31,2.65-2.27a45.93,45.93,0,0,1,5.42-2.63.63.63,0,0,1,.68,0A41.45,41.45,0,0,1,138.67,116a64.28,64.28,0,0,1-19.34,15.26c-.83.44-1.33.84-1.11,1.82A2.35,2.35,0,0,1,118,134.81Z"/><path class="cls-4" d="M145.2,105.9l-5.91,2.7a5,5,0,0,1-1.7.93c-.31.08-.61.21-.82-.14a2.59,2.59,0,0,1,.69-1.54,43.25,43.25,0,0,0,7.27-21.06A48.13,48.13,0,0,0,144,73.25c-.49-2.34-.94-4.68-1.58-7,0-.36.19-.57.48-.75,1.12-.38,2-1.3,3.33-1.21a81.05,81.05,0,0,1,3.21,13.61,46.29,46.29,0,0,1-3.48,26.69A3.67,3.67,0,0,1,145.2,105.9Z"/><path class="cls-4" d="M4.06,64c.85,1.14,2.29,1.35,3.52,1.88a.51.51,0,0,1,.13.35c-.61,3.32-1.53,6.57-2,9.9a44,44,0,0,0,6.41,31.19c.36.57.95,1.08.75,1.85-.44.44-.73,0-1.08-.15l-.68-.27a6.26,6.26,0,0,1-3-1.29l-1.66-.76a2.16,2.16,0,0,1-1.78-.86A39,39,0,0,1,.73,94.27c-1.54-8-.46-15.94,1.57-23.78C2.85,68.33,3.47,66.18,4.06,64Z"/><path class="cls-3" d="M18.57,123.14a1.39,1.39,0,0,1,1.95.5,14.06,14.06,0,0,0,3.73,2.71,47.92,47.92,0,0,0,6.92,4.1,1.11,1.11,0,0,1,.64,1.34A65.35,65.35,0,0,1,18.57,123.14Z"/><path class="cls-3" d="M4.65,105.87l1.78.86a4,4,0,0,0,.76,2.45c1.73,2.46,3.51,4.91,5.45,7.24.59.7,1.28,1.2,1,2.18A43.63,43.63,0,0,1,4.65,105.87Z"/><path class="cls-3" d="M13.68,118.59a2.52,2.52,0,0,1,2.27.81c.55.56,1.13,1.08,1.72,1.59a2.08,2.08,0,0,1,.67,2A32.69,32.69,0,0,1,13.68,118.59Z"/><path class="cls-3" d="M11.75,109.05l1,.25a.9.9,0,0,1,.82.37,60.1,60.1,0,0,0,6.8,7.58,67,67,0,0,0,14.2,10A86.24,86.24,0,0,0,63,136.09a84.38,84.38,0,0,0,16,.76,87.87,87.87,0,0,0,33.59-8.17,65.84,65.84,0,0,0,18.09-12.44,66.15,66.15,0,0,0,5.66-6.54,1,1,0,0,1,.53-.21l2.44-.89c-.14.23-.22.58-.43.67-2.4,1-3.19,3.32-4.73,5a67.87,67.87,0,0,1-9,8.23,69,69,0,0,1-13.6,7.93,86.27,86.27,0,0,1-21,6.31c-3.87.63-7.79.9-11.71,1.21a70.31,70.31,0,0,1-9.85-.13,88.53,88.53,0,0,1-18.15-3.06,84.49,84.49,0,0,1-15-5.65,72.12,72.12,0,0,1-12.2-7.66,58,58,0,0,1-10.16-10.14C12.79,110.59,12.29,109.81,11.75,109.05Z"/><path class="cls-3" d="M8.09,107.49a13.17,13.17,0,0,1,3,1.29A2.62,2.62,0,0,1,8.09,107.49Z"/><path class="cls-5" d="M85.74,48a56.69,56.69,0,0,1,5.68-.63c9.74-1.08,19.29-2.87,28.22-6.84A6.2,6.2,0,0,0,121,40c6.63-3.66,5.63-4.54,8-1.84,6.71,7.72,10.63,16.65,13.26,26.15.14.49,0,1.19.77,1.39l-.59.38c-.27.56-.87.66-1.38.87A133.29,133.29,0,0,1,118,73.73,207,207,0,0,1,94.19,77.1a223.55,223.55,0,0,1-26.14.68,202.47,202.47,0,0,1-41.36-5.23A121.28,121.28,0,0,1,9,67c-.51-.21-1.1-.34-1.37-.88a1.16,1.16,0,0,1,0-.18,87.18,87.18,0,0,1,4.49-13.74A58.73,58.73,0,0,1,20.79,37.3c1.39-1.73,1.33-1.72,3.07-.28a32.27,32.27,0,0,0,8.42,4.75A91.37,91.37,0,0,0,54,47.21a92.42,92.42,0,0,0,10.4,1c1,0,1.92.25,2.9.19A174.39,174.39,0,0,0,85.74,48Z"/><path class="cls-3" d="M138.41,46.63a60.06,60.06,0,0,0-8.16-10.14,36.88,36.88,0,0,0-4.41-3.77,36.06,36.06,0,0,0-5.14-3.4c-8.32,2.58-40.83,4.5-67.84,6.58a7.53,7.53,0,0,0-1.18-.29C43.82,34.36,36.16,32.54,29.05,29c-.45-.22-.93-.53-1.49-.21a43.64,43.64,0,0,0-9.63,8.3C11,45.07,7,54.31,4.06,64c.29,1,2.32,2.06,3.64,1.86a2.61,2.61,0,0,0,.49-1.15A95.62,95.62,0,0,1,14.34,48a55.46,55.46,0,0,1,7.1-11c.77-.93.9-.91,1.82-.14a24.2,24.2,0,0,0,4,2.78c5.89,3.25,12.34,5.09,19,6.49a120.65,120.65,0,0,0,16.31,2.22c1.42.1,11.26.5,14.51.23L89,48c3-.18,5.87-.58,8.77-1a95.23,95.23,0,0,0,12.53-2.65,158.35,158.35,0,0,0,16.59-6.87c4.59,5.56,10.55,13.75,12.9,20.13.86,2.37,1.61,4.76,2.27,7.18.12.44.07,1.17,1,1l3.16-1.39A67.65,67.65,0,0,0,138.41,46.63Z"/><path class="cls-6" d="M7.62,66.09a135.54,135.54,0,0,0,18.81,6A195.13,195.13,0,0,0,52,76.37a224.42,224.42,0,0,0,29.67,1c18.17-.57,36-2.83,53.24-8.57,2.53-.85,5-1.84,7.5-2.77a1.65,1.65,0,0,1,.57,1.09,59.88,59.88,0,0,1,2.14,19.46,43.93,43.93,0,0,1-4,15.4,67.68,67.68,0,0,1-4.29,7.47l-.25.24a9.68,9.68,0,0,1-2.65,1.38,173.55,173.55,0,0,1-43.54,11,140.71,140.71,0,0,1-22.1.65,151.35,151.35,0,0,1-36.81-6.34c-5.4-1.61-10.74-3.36-15.95-5.46a7.8,7.8,0,0,1-2.31-1.24l-.52-.38a8.48,8.48,0,0,0-1.42-2.47A44.71,44.71,0,0,1,5.19,90.24a39.62,39.62,0,0,1-.52-8A71.09,71.09,0,0,1,7,68.23,4.82,4.82,0,0,1,7.62,66.09Z"/><path class="cls-5" d="M13.24,109.68c5.46,2.08,10.93,4.15,16.55,5.84a165.56,165.56,0,0,0,31.1,6.3,139,139,0,0,0,21,.55,160.17,160.17,0,0,0,42.9-8.31c4-1.32,7.88-2.87,11.81-4.33a48.45,48.45,0,0,1-8.74,9.54A70.18,70.18,0,0,1,114.58,128a84.56,84.56,0,0,1-19.52,7,89.94,89.94,0,0,1-14.28,2,84.08,84.08,0,0,1-9.52.14,91.26,91.26,0,0,1-19-2.86,85.07,85.07,0,0,1-15-5.39,68.73,68.73,0,0,1-13.45-8.34A53.74,53.74,0,0,1,13.24,109.68Z"/><path class="cls-7" d="M39.84,94.5c-2.5,0-2.49,0-3.08,1.79s-1.37,3.89-1.88,5.87c-.28,1.06-.8,1.42-1.88,1.19a1.7,1.7,0,0,1-1.27-2.12c.23-.77.47-1.53.76-2.28C34.17,94.63,35,90.11,36,85.64c.25-1.15.51-2.29.8-3.43a1.54,1.54,0,0,1,2-1.11,2,2,0,0,1,1.36,2.45,44.63,44.63,0,0,0-1.93,6.55c-.19.79.12,1.16,1,1.19a39.45,39.45,0,0,1,8,1.36c.89.23,1.38.08,1.64-.77.66-2.06,1.7-4,2.17-6.13.16-.76.48-1.58,1.47-1.57s1.47.74,1.75,1.53a2.46,2.46,0,0,1-.15,1.88,51.38,51.38,0,0,0-2.2,5.29,100.53,100.53,0,0,0-3.2,12.85c-.13.82-.23,1.65-1.38,1.66a1.75,1.75,0,0,1-1.79-2c.29-1.79.75-3.56,1.16-5.33.26-1.14.53-2.29.84-3.42.14-.5.05-.82-.52-.93C44.48,95.21,42,94.35,39.84,94.5Z"/><path class="cls-7" d="M108,91V88.58a1.78,1.78,0,0,1,1.82-2,2,2,0,0,1,2.1,2c-.1,1.5-.46,3-.56,4.49-.19,2.86-.74,5.69-.94,8.55-.19,2.55-.13,5.13-.91,7.62a5.92,5.92,0,0,1-5.3,3.46,1.71,1.71,0,0,1-1.64-1.8c0-1.68.63-2.74,2-3,1.94-.33,1.94-.33,2-2.17a10.22,10.22,0,0,1,.23-2.36c.36-1.17-.15-1.87-1-2.63a48.45,48.45,0,0,1-7.3-7.3c-.23-.31-.51-.6-.71-.92A1.82,1.82,0,0,1,98.12,90a2.26,2.26,0,0,1,3,.71A16.5,16.5,0,0,0,104,94.87c.93.85,1.87,1.68,2.82,2.51.52.46.65.16.71-.32A40.2,40.2,0,0,0,108,91Z"/><path class="cls-7" d="M81.82,102.88c0,1.57,0,3.15,0,4.72,0,1-.42,1.65-1.57,1.59a1.86,1.86,0,0,1-1.86-2,33.76,33.76,0,0,0,.19-3.62,18,18,0,0,0-1.13-6.34c-.37-1-.88-1.18-1.91-.91-2.75.73-4.18,3.11-3.73,6.08.29,1.87.42,3.76.54,5.64a1.11,1.11,0,0,1-1.24,1.25A2,2,0,0,1,69,107.61c-.18-2.75-.32-5.51-.52-8.26-.1-1.5-.29-3-.45-4.51C68,94,68.07,93.27,69,93a1.79,1.79,0,0,1,2.21.76c.39.62.78.59,1.38.29a7.2,7.2,0,0,1,3.05-1.08,4.32,4.32,0,0,1,4.44,2.58A17.1,17.1,0,0,1,81.82,102.88Z"/><path class="cls-7" d="M96.59,100.43a1.5,1.5,0,0,0-2,.91c-.19.47-.36.93-.54,1.39-.62,1.59-2.08,2-3.65,2.24a2.89,2.89,0,0,1-3.23-1.72c-.34-.69-.69-1.37-1-2.07-.51-1.12-.34-1.59.92-1.77,2.53-.36,4.93-1.3,7.54-1.31,1.71,0,2.42-1.1,1.77-2.56-2-4.45-7-5.9-10.82-3A7.57,7.57,0,0,0,82.35,99a12,12,0,0,0,2.23,5.83,6.66,6.66,0,0,0,6,3.09c3.41,0,6.79-2.51,7.35-5.52A1.71,1.71,0,0,0,96.59,100.43Zm-9.9-4.74a3.94,3.94,0,0,1,5-1.34c.24.14.49.29.51.58s-.21.31-.4.35c-1.56.38-3.13.74-4.7,1.11C86.59,96.35,86.36,96.24,86.69,95.69Z"/><path class="cls-7" d="M65.76,94.88a5.38,5.38,0,0,0-3.53-2.76,9.45,9.45,0,0,0-8.06,2c-2.5,2.15-2.72,5-2.4,8a6.3,6.3,0,0,0,1.88,4.42c2.93,2.57,6.33,2.92,10,1.75a4.33,4.33,0,0,0,2.73-2.6,11.83,11.83,0,0,0,1-5.13C67.59,98.52,66.7,96.68,65.76,94.88Zm-2.53,9.32c-.51,1.18-3.32,1.79-5.2,1.32-2.65-.67-3.79-2.5-3.4-5.45.45-3.39,2.23-4.86,5.92-4.88,1.74,0,2.29.38,3.06,1.89C64.86,99.53,64.23,101.89,63.23,104.2Z"/><path class="cls-5" d="M130,19c0,10.48-24.62,19-55,19s-55-8.49-55-19Q75,37.09,130,19Z"/><path class="cls-8" d="M116.29,14.55c0,5.9-18.36,10.68-41,10.68s-41-4.78-41-10.68l-8.57,3.3c0,8.71,22.26,15.78,49.71,15.78s49.71-7.07,49.71-15.78Z"/></g></g></svg>