<svg xmlns="http://www.w3.org/2000/svg" viewBox="0 0 400 400"><defs><style>.cls-1{fill:#542f0f;}.cls-2{fill:#5e340d;}.cls-3{fill:#249365;}.cls-4{fill:#794413;}.cls-5{fill:#00bb74;}.cls-6{fill:#fcf4a8;}.cls-7{fill:#844d21;}</style></defs><g id="Layer_2" data-name="Layer 2"><g id="Layer_1-2" data-name="Layer 1"><path class="cls-1" d="M314.74,359.49c-.69,5.18-3.87,9.12-7.61,12.7-6.78,6.49-15.16,10.75-24,14.24-18.4,7.25-37.77,10.83-57.56,12.45-30.23,2.47-60.18,1.06-89.62-6.34a128.35,128.35,0,0,1-30.44-11.4c-6.14-3.35-11.78-7.26-16-12.66-3.74-4.76-5.56-10-4.5-15.93,1.89-1.34,3.55-.21,5.14.53A264.56,264.56,0,0,0,117,363.91a268.24,268.24,0,0,0,55.15,11.95,251.15,251.15,0,0,0,43,1A247.85,247.85,0,0,0,305.82,355a53.89,53.89,0,0,1,6.18-2.72c2-.64,3.2-.18,3,2.06C314.83,356.07,315.22,357.79,314.74,359.49Z"/><path class="cls-2" d="M314.74,359.49c0-.51-.07-1-.07-1.52-.09-6-.11-6-6-3.23-21.93,10.37-45.17,16.94-69.36,20.75a256.89,256.89,0,0,1-54.49,2.33c-28.83-1.61-56.73-7.54-83.16-18.71-4.25-1.79-8.45-3.68-12.65-5.58a7.56,7.56,0,0,0-4-1l-.14-1.11a9.56,9.56,0,0,0-4-3.69A258.32,258.32,0,0,1,55.4,331.58c-1.85-1.34-3.18-3.29-5.88-3.23l-.61-.5c-2.22-5.64-6.47-9.41-12.42-11.61l0,0c-.64-2.9-2.89-4.95-4.79-7.06-4.88-5.44-8.68-11.56-13-17.37-1.53-2.06-3.14-4.52-2-7.39,1.9-.19,3.29.92,4.83,1.64,2.13,2.17,4.4,4.07,7.93,3.62a4.88,4.88,0,0,1,2.23.87c3.82,4.39,7.11,9.15,11,13.51,13.37,15,29.46,27.06,47.62,36.72,25.82,13.73,53.67,21.74,83.2,24.93a219.29,219.29,0,0,0,27.92,1.65c31.18-.63,61.27-6,89.88-17.93a195.08,195.08,0,0,0,44.71-25.79,134,134,0,0,0,27.77-28.31c1.91-2.7,5.27-3.5,7.05-6.06,4.52-2.87,9.61-4.74,14.48-7a1.59,1.59,0,0,1,1.79.1c-4.25,9.81-10.44,18.55-17.4,26.84-14.16,16.86-31.68,30.1-51.59,40.68-2.21,1.18-3.53,2.25-2.94,4.86A6.24,6.24,0,0,1,314.74,359.49Z"/><path class="cls-3" d="M387.19,282.39l-15.74,7.2a13.53,13.53,0,0,1-4.55,2.49c-.82.2-1.61.55-2.18-.38-.12-1.65,1-2.84,1.85-4.1A115.71,115.71,0,0,0,386,231.43a129,129,0,0,0-2.1-36.12c-1.31-6.23-2.49-12.48-4.2-18.64-.1-.95.51-1.51,1.26-2,3-1,5.37-3.47,8.89-3.21a214.72,214.72,0,0,1,8.55,36.27c3.81,24.49,1.09,48.28-9.26,71.2A9.83,9.83,0,0,1,387.19,282.39Z"/><path class="cls-3" d="M10.82,170.73c2.28,3.05,6.12,3.59,9.4,5a1.42,1.42,0,0,1,.35,1c-1.63,8.84-4.08,17.53-5.44,26.41-4.53,29.53.72,57.33,17.09,83.17,1,1.51,2.53,2.87,2,4.93-1.16,1.19-1.94-.05-2.86-.39l-1.82-.72c-3.12-.22-5.52-1.88-8-3.45l-4.42-2a5.76,5.76,0,0,1-4.75-2.29C7,272.55,4,262.1,2,251.37c-4.12-21.45-1.24-42.52,4.17-63.43C7.61,182.19,9.25,176.47,10.82,170.73Z"/><path class="cls-2" d="M49.52,328.35c2.21-1.1,3.65-.51,5.19,1.36,2.6,3.16,6.46,5.06,9.94,7.21,6.08,3.77,11.72,8.18,18.48,10.95,1.67.69,1.87,2.08,1.69,3.57A174.17,174.17,0,0,1,49.52,328.35Z"/><path class="cls-2" d="M12.4,282.32l4.75,2.29a10.86,10.86,0,0,0,2,6.51c4.62,6.59,9.38,13.11,14.55,19.32,1.56,1.88,3.41,3.21,2.81,5.82A116,116,0,0,1,12.4,282.32Z"/><path class="cls-2" d="M36.49,316.24a6.76,6.76,0,0,1,6,2.15c1.45,1.49,3,2.88,4.57,4.25a5.48,5.48,0,0,1,1.8,5.21A85.53,85.53,0,0,1,36.49,316.24Z"/><path class="cls-2" d="M31.35,290.8l2.56.67a2.41,2.41,0,0,1,2.2,1,157.47,157.47,0,0,0,18.12,20.22A178.24,178.24,0,0,0,92.11,339.2c23.66,12.45,49.13,19.95,75.93,23.71a227.22,227.22,0,0,0,42.58,2c31.44-1.55,61.44-8.5,89.56-21.8A175.25,175.25,0,0,0,348.43,310a182,182,0,0,0,15.1-17.44,2.42,2.42,0,0,1,1.4-.56l6.52-2.38c-.38.61-.6,1.55-1.16,1.78-6.4,2.67-8.49,8.87-12.61,13.36a178.63,178.63,0,0,1-24.08,21.95,184,184,0,0,1-36.27,21.17,230.52,230.52,0,0,1-56.12,16.8c-10.34,1.7-20.77,2.43-31.23,3.23a185.67,185.67,0,0,1-26.28-.33,238.14,238.14,0,0,1-48.39-8.17,224.5,224.5,0,0,1-40-15.07A191.7,191.7,0,0,1,62.73,323.9a155.38,155.38,0,0,1-27.11-27.07C34.09,294.89,32.76,292.81,31.35,290.8Z"/><path class="cls-2" d="M21.57,286.63a34.8,34.8,0,0,1,8,3.45C26.64,291,23.44,289.61,21.57,286.63Z"/><path class="cls-4" d="M228.63,128.06c5-1.06,10.1-1.12,15.15-1.68,26-2.88,51.44-7.65,75.26-18.24,1.1-.49,2.83-.91,3.48-1.52,17.69-9.76,15-12.11,21.46-4.92,17.89,20.58,28.34,44.41,35.36,69.74.36,1.31-.11,3.19,2,3.71l-1.58,1c-.7,1.48-2.31,1.77-3.66,2.32a355.67,355.67,0,0,1-61.48,18.1,546,546,0,0,1-63.48,9,594.13,594.13,0,0,1-69.71,1.84c-37.25-1.14-74.13-5.26-110.29-13.95A324.79,324.79,0,0,1,24,178.56c-1.37-.56-2.93-.9-3.66-2.33a4.37,4.37,0,0,1-.09-.5,233.86,233.86,0,0,1,12-36.62A157.71,157.71,0,0,1,55.43,99.43c3.73-4.62,3.56-4.57,8.2-.74,6.64,5.48,14.37,9.38,22.45,12.66,18.48,7.52,38,11.7,57.84,14.51a249.05,249.05,0,0,0,27.72,2.65c2.57.07,5.14.66,7.76.51C193.47,129.75,210.51,129.14,228.63,128.06Z"/><path class="cls-2" d="M369.09,124.33a158.23,158.23,0,0,0-21.76-27,97,97,0,0,0-11.75-10,98.21,98.21,0,0,0-13.71-9.09C299.69,85,213,90.17,141,95.71a24,24,0,0,0-3.14-.78c-21-3.33-41.41-8.2-60.37-17.51-1.2-.59-2.47-1.41-4-.58A115.56,115.56,0,0,0,47.83,99c-18.52,21.15-29.22,45.8-37,71.73.77,2.73,6.18,5.49,9.7,5a6.85,6.85,0,0,0,1.32-3.06A253.41,253.41,0,0,1,38.25,128,147.45,147.45,0,0,1,57.18,98.81c2-2.46,2.4-2.41,4.84-.35a64.64,64.64,0,0,0,10.69,7.41c15.7,8.65,32.89,13.57,50.55,17.3a321.18,321.18,0,0,0,43.48,5.94c3.8.26,30,1.31,38.7.61l31.79-1.83c7.86-.48,15.64-1.55,23.39-2.71A255.85,255.85,0,0,0,294,118.1c8.84-2.57,33-12.77,44.23-18.31,12.26,14.82,28.14,36.67,34.4,53.69,2.32,6.3,4.32,12.68,6.07,19.14.32,1.17.2,3.13,2.66,2.53l8.43-3.69A180.52,180.52,0,0,0,369.09,124.33Z"/><path class="cls-5" d="M20.31,176.23a366.37,366.37,0,0,0,50.17,16.08,519.14,519.14,0,0,0,68.24,11.33,599,599,0,0,0,79.12,2.77c48.44-1.52,96.1-7.56,142-22.86,6.74-2.25,13.33-4.91,20-7.38,1.05.73,1.23,1.8,1.53,2.89,4.52,17.06,6.92,34.36,5.72,51.92a117.36,117.36,0,0,1-10.67,41c-3.19,7-7.4,13.41-11.45,19.94l-.65.63a26,26,0,0,1-7.07,3.67A460.84,460.84,0,0,1,241.09,325.5a376.77,376.77,0,0,1-58.93,1.75A403.1,403.1,0,0,1,84,310.34c-14.4-4.29-28.65-8.95-42.52-14.57a20,20,0,0,1-6.18-3.3l-1.39-1c-.52-2.56-2.47-4.42-3.78-6.59-8.29-13.85-14-28.55-16.3-44.25a106.54,106.54,0,0,1-1.37-21.32,190,190,0,0,1,6.1-37.39C19.06,180,18.91,177.9,20.31,176.23Z"/><path class="cls-4" d="M35.3,292.47c14.57,5.55,29.15,11.07,44.15,15.58a442.64,442.64,0,0,0,82.91,16.8,371.66,371.66,0,0,0,56,1.46c39.33-1.91,77.37-9.83,114.4-22.15,10.64-3.54,21-7.66,31.51-11.56A129.88,129.88,0,0,1,341,318.05a187,187,0,0,1-35.41,23.36A225.09,225.09,0,0,1,253.48,360a241.52,241.52,0,0,1-38.08,5.4,223.92,223.92,0,0,1-25.37.35,242.27,242.27,0,0,1-50.78-7.61,227.17,227.17,0,0,1-40-14.39,183.7,183.7,0,0,1-35.87-22.24C52.67,312.93,43.07,303.47,35.3,292.47Z"/><path class="cls-6" d="M106.23,252c-6.65-.09-6.63-.08-8.2,4.79-1.68,5.21-3.65,10.35-5,15.63-.74,2.84-2.14,3.8-5,3.19a4.5,4.5,0,0,1-3.39-5.66c.61-2,1.26-4.08,2-6.07,4.46-11.53,6.61-23.57,9.26-35.51.68-3,1.37-6.1,2.13-9.14.63-2.5,2.84-3.65,5.48-3s4.7,3.93,3.62,6.52c-2.37,5.68-3.68,11.59-5.13,17.48-.51,2.11.32,3.08,2.54,3.17,7.31.29,14.38,1.87,21.39,3.63,2.38.6,3.67.2,4.39-2.06,1.74-5.5,4.53-10.69,5.77-16.36.44-2,1.29-4.19,3.93-4.18s3.91,2,4.67,4.09a6.66,6.66,0,0,1-.4,5c-2,4.68-4.44,9.27-5.87,14.1-3.35,11.3-6.7,22.63-8.53,34.26-.34,2.2-.61,4.42-3.69,4.44a4.67,4.67,0,0,1-4.77-5.37c.79-4.77,2-9.48,3.08-14.21.7-3.05,1.43-6.11,2.26-9.13.36-1.33.14-2.18-1.39-2.47C118.62,253.88,112,251.58,106.23,252Z"/><path class="cls-6" d="M287.86,242.56q0-3.18,0-6.35c0-3.24,1.86-5.28,4.88-5.32s5.77,2.32,5.58,5.23c-.26,4-1.23,8-1.49,12-.5,7.64-2,15.17-2.51,22.81-.49,6.78-.33,13.67-2.41,20.33-1.46,4.68-8.9,9.82-14.14,9.21a4.52,4.52,0,0,1-4.37-4.79c-.14-4.5,1.67-7.3,5.26-7.9,5.18-.87,5.15-.87,5.43-5.8a27.3,27.3,0,0,1,.62-6.29c.94-3.11-.4-5-2.73-7-7-6.07-14-12.09-19.46-19.47-.61-.83-1.35-1.58-1.9-2.44-1.56-2.44-1.05-5.51,1.06-6.8a6,6,0,0,1,7.91,1.88c2.26,3.9,4.21,8,7.68,11.15,2.47,2.26,5,4.48,7.51,6.69,1.4,1.24,1.73.44,1.9-.85A104.19,104.19,0,0,0,287.86,242.56Z"/><path class="cls-6" d="M241.5,287.65c-6.95,0-12.37-2.64-15.95-8.26-3.07-4.82-5.74-9.95-5.94-15.53-.23-6.85,2.95-12.79,8.74-17.13,10.27-7.7,23.52-3.83,28.85,8,1.74,3.88-.16,6.8-4.73,6.82-7,0-13.36,2.53-20.09,3.5-3.36.48-3.82,1.71-2.47,4.72.84,1.85,1.76,3.68,2.66,5.51a7.71,7.71,0,0,0,8.62,4.58c4.2-.56,8.09-1.73,9.73-6l1.44-3.7c.92-2.32,2.76-3,5.2-2.43a4.56,4.56,0,0,1,3.54,5.11C259.6,280.94,250.58,287.72,241.5,287.65Z"/><path class="cls-6" d="M179.64,268.16c.32,4.85-1,9.3-2.72,13.68a11.52,11.52,0,0,1-7.3,6.91c-9.68,3.12-18.74,2.21-26.54-4.64-3.7-3.25-4.56-7.47-5-11.79-.85-7.83-.28-15.53,6.39-21.26A25.2,25.2,0,0,1,166,245.64a14.24,14.24,0,0,1,9.39,7.36C177.88,257.79,180.25,262.7,179.64,268.16Z"/><path class="cls-6" d="M218.18,274.33c0,4.2,0,8.4,0,12.6,0,2.63-1.11,4.39-4.17,4.23s-5.33-2.56-5-5.33a82.16,82.16,0,0,0,.51-9.66,47.15,47.15,0,0,0-3-16.89c-1-2.61-2.34-3.17-5.08-2.44-7.33,1.94-11.15,8.3-9.94,16.22.76,5,1.11,10,1.42,15,.12,1.86-.92,3.31-3.3,3.34-2.87,0-5.33-1.91-5.5-4.48-.49-7.34-.86-14.68-1.39-22-.29-4-.78-8-1.22-12-.24-2.16,0-4.19,2.51-5a4.75,4.75,0,0,1,5.89,2c1,1.65,2.08,1.59,3.7.78,2.56-1.29,5-2.8,8.13-2.89,5.63-.17,9.49,2,11.82,6.9A45.37,45.37,0,0,1,218.18,274.33Z"/><path class="cls-5" d="M232.4,257c-1.5-.09-2.1-.4-1.23-1.86,2.55-4.29,9.19-6.1,13.48-3.58.64.37,1.31.77,1.36,1.56,0,.63-.58.82-1.07.94C240.76,255.08,236.58,256,232.4,257Z"/><path class="cls-5" d="M161.46,253.84c4.65,0,6.11,1,8.16,5,3.33,6.52,1.67,12.82-1,19-1.38,3.15-8.85,4.79-13.87,3.52-7.07-1.79-10.11-6.66-9.07-14.53C146.88,257.81,151.64,253.88,161.46,253.84Z"/><ellipse class="cls-4" cx="200.09" cy="50.59" rx="146.59" ry="50.59"/><ellipse class="cls-7" cx="201.07" cy="47.56" rx="132.55" ry="42.1"/><ellipse class="cls-2" cx="200.74" cy="38.77" rx="109.37" ry="28.47"/></g></g></svg>