<svg xmlns="http://www.w3.org/2000/svg" viewBox="0 0 801.5 801.64"><defs><style>.cls-1{isolation:isolate;}.cls-2,.cls-3{fill:#ffca08;}.cls-11,.cls-12,.cls-2,.cls-7,.cls-8,.cls-9{stroke:#832f0a;stroke-linecap:round;stroke-linejoin:round;}.cls-2,.cls-7,.cls-8,.cls-9{stroke-width:3px;}.cls-4{fill:#832f0a;}.cls-5{fill:#fdb816;}.cls-6{fill:#fee537;}.cls-10,.cls-7{fill:#ab6f22;}.cls-8,.cls-9{fill:#784e15;}.cls-9{mix-blend-mode:multiply;opacity:0.21;}.cls-11{fill:#9dcb3b;}.cls-11,.cls-12{stroke-width:0.28px;}.cls-12{fill:#5aa845;}</style></defs><g class="cls-1"><g id="Layer_1" data-name="Layer 1"><path class="cls-2" d="M378.19,488.75l-100.58,8.09c-75.42-3.23-103.71-33.42-103.71-33.42s15.71-45.81,57.09-45.81c9.44,18.86,53.44,23.71,133.58,12.93s80.67-45.27,80.67-45.27c15.68,6.09,46.88,44.4,69.88,90C488.5,485,438,498.38,378.19,488.75Z" transform="translate(-100 -99.86)"/><path class="cls-2" d="M364.57,430.54c-80.14,10.78-124.14,5.93-133.58-12.93,7.34-34,52.39-68.45,131.49-71.69,0,0,71.75,1.62,82.76,39.35C445.24,385.27,444.72,419.76,364.57,430.54Z" transform="translate(-100 -99.86)"/><path class="cls-2" d="M120.47,649.91l-1-.07A8.42,8.42,0,0,1,120.47,649.91Z" transform="translate(-100 -99.86)"/><path class="cls-2" d="M119.43,649.84l1,.07c44,41,115.24,40.42,115.24,40.42l197,3.78c77.52,16.71,112.09-14,112.09-14s32,17.25,29.34,60.37-56.05,73-56.05,73c-241,73-368.51-59.82-368.51-59.82s-35.88-31.54-42.69-69.27C101,651.85,115.37,649.8,119.43,649.84Z" transform="translate(-100 -99.86)"/><path class="cls-2" d="M451.53,596.55,225.75,563.67s-62.32,3.77-92.19-27.49c0,0-8.89-26.41,3.15-48.5s37.19-24.26,37.19-24.26,28.29,30.19,103.71,33.42l100.58-8.09C438,498.38,488.5,485,515.12,475.26c11.58,22.94,21.06,47.71,25.46,71.17,5.76,31.26-12.58,41-12.58,41S483,609.49,451.53,596.55Z" transform="translate(-100 -99.86)"/><path class="cls-2" d="M518.05,813.49s11,77.62-159.5,86.51c-120.22,0-207.43-105.91-209-146.33C149.54,753.67,277.09,886.53,518.05,813.49Z" transform="translate(-100 -99.86)"/><path class="cls-3" d="M476.58,697.59a208.16,208.16,0,0,1-43.6-5,1.33,1.33,0,0,0-.28,0l-197-3.78h-.17c-2.9,0-71.53-.45-114-40-.46-.51-5.5-6.27-10.37-17.09-4.69-10.41-10.16-27.77-9.63-51.35.92-40.69,26.28-42.75,31.35-42.75h0c8.5,8.67,33.2,27.65,86.48,27.65,3.48,0,5.7-.11,6.3-.14L451.13,598a61.39,61.39,0,0,0,23.16,4.1c24.1,0,48.6-10.71,53.49-13a118.45,118.45,0,0,1,14.69,14.74c7,8.42,15.46,21.28,16,34.76,1,25.87-14.54,40.19-14.7,40.33S522.18,697.59,476.58,697.59Z" transform="translate(-100 -99.86)"/><path class="cls-4" d="M132.29,539.18c24.81,24.92,69.06,27.64,87.1,27.64,3.26,0,5.44-.1,6.23-.13l225.11,32.78a63,63,0,0,0,23.56,4.14c23.51,0,46.73-9.73,53.26-12.7a118.9,118.9,0,0,1,13.8,14c6.84,8.22,15.1,20.77,15.61,33.81,1,25.11-14.05,39-14.19,39.14s-21,18.24-66.19,18.24a207,207,0,0,1-43.28-4.91,2.78,2.78,0,0,0-.57-.07l-197-3.77h-.2c-2.88,0-70.88-.46-113-39.53-.61-.69-5.46-6.35-10.14-16.79-8.32-18.57-9.72-37.75-9.43-50.57.85-37.86,23.29-41.09,29.25-41.27m.6-3c-4.63,0-31.89,1.8-32.85,44.21-1,46.36,20.43,69.53,20.43,69.53,42.87,39.91,111.6,40.43,115.1,40.43h.14l197,3.78a208.53,208.53,0,0,0,43.91,5c46.81,0,68.18-19,68.18-19S561,665.54,560,638.59s-32-51.2-32-51.2-26.95,13.22-53.71,13.22a59.74,59.74,0,0,1-22.76-4.06L225.75,563.67s-2.35.15-6.36.15c-16.63,0-61.77-2.45-85.83-27.64Z" transform="translate(-100 -99.86)"/><path class="cls-5" d="M181.75,747.6a15.33,15.33,0,1,0,15.33-15A15.15,15.15,0,0,0,181.75,747.6Z" transform="translate(-100 -99.86)"/><path class="cls-5" d="M165.26,737.9c0,3.35,2.1,6.06,4.71,6.06s4.71-2.71,4.71-6.06-2.11-6.06-4.71-6.06S165.26,734.55,165.26,737.9Z" transform="translate(-100 -99.86)"/><path class="cls-6" d="M127.54,618.65c0,8,6.86,14.55,15.32,14.55s15.33-6.51,15.33-14.55-6.87-14.55-15.33-14.55S127.54,610.61,127.54,618.65Z" transform="translate(-100 -99.86)"/><path class="cls-6" d="M124.39,594.39a5.92,5.92,0,1,0,5.9-6.46A6.2,6.2,0,0,0,124.39,594.39Z" transform="translate(-100 -99.86)"/><path class="cls-6" d="M159.75,523.65c0,6.92,6,12.53,13.36,12.53s13.36-5.61,13.36-12.53-6-12.53-13.36-12.53S159.75,516.73,159.75,523.65Z" transform="translate(-100 -99.86)"/><path class="cls-6" d="M150.33,504.25a5.89,5.89,0,1,0,5.89-6.06A6,6,0,0,0,150.33,504.25Z" transform="translate(-100 -99.86)"/><path class="cls-6" d="M398.62,377.72c0,6.25,5.45,11.32,12.18,11.32S423,384,423,377.72s-5.46-11.32-12.18-11.32S398.62,371.47,398.62,377.72Z" transform="translate(-100 -99.86)"/><path class="cls-6" d="M404.12,403.19c0,2.9,2.64,5.26,5.89,5.26s5.89-2.36,5.89-5.26-2.63-5.26-5.89-5.26S404.12,400.29,404.12,403.19Z" transform="translate(-100 -99.86)"/><path class="cls-6" d="M439.48,449.68c0,3.12,3.34,5.66,7.46,5.66s7.47-2.54,7.47-5.66-3.35-5.66-7.47-5.66S439.48,446.55,439.48,449.68Z" transform="translate(-100 -99.86)"/><path class="cls-6" d="M426.12,465.85a4.72,4.72,0,1,0,4.71-4.85A4.78,4.78,0,0,0,426.12,465.85Z" transform="translate(-100 -99.86)"/><path class="cls-6" d="M512.55,564.48c0,6.25,4.57,11.32,10.21,11.32S533,570.73,533,564.48s-4.56-11.32-10.21-11.32S512.55,558.23,512.55,564.48Z" transform="translate(-100 -99.86)"/><path class="cls-6" d="M507.05,581.46c0,1.79,1.76,3.23,3.93,3.23s3.93-1.44,3.93-3.23-1.76-3.23-3.93-3.23S507.05,579.67,507.05,581.46Z" transform="translate(-100 -99.86)"/><path class="cls-6" d="M501.55,645.33a14.54,14.54,0,1,0,14.54-14.55A14.54,14.54,0,0,0,501.55,645.33Z" transform="translate(-100 -99.86)"/><path class="cls-6" d="M495.27,673.22a6.29,6.29,0,1,0,6.28-6.06A6.16,6.16,0,0,0,495.27,673.22Z" transform="translate(-100 -99.86)"/><path class="cls-5" d="M531.41,750.84c0,7.81,5.27,14.14,11.78,14.14S555,758.65,555,750.84s-5.27-14.15-11.79-14.15S531.41,743,531.41,750.84Z" transform="translate(-100 -99.86)"/><path class="cls-5" d="M509.41,766.2c0,4.69,3.34,8.49,7.46,8.49s7.46-3.8,7.46-8.49-3.34-8.49-7.46-8.49S509.41,761.51,509.41,766.2Z" transform="translate(-100 -99.86)"/><path class="cls-5" d="M459.12,800.56c0,4,3.51,7.27,7.86,7.27s7.85-3.26,7.85-7.27-3.52-7.28-7.85-7.28A7.58,7.58,0,0,0,459.12,800.56Z" transform="translate(-100 -99.86)"/><path class="cls-5" d="M212.4,824c0,5.81,4.4,10.51,9.82,10.51S232,829.81,232,824s-4.39-10.51-9.82-10.51S212.4,818.2,212.4,824Z" transform="translate(-100 -99.86)"/><path class="cls-7" d="M235.39,545.25a155,155,0,0,0-11.2,58.31c0,75.61,52.76,136.9,117.86,136.9,42.42,0,79.6-26.05,100.35-65.12-18.85,46.45-59.51,78.6-106.63,78.6-65.1,0-117.87-61.29-117.87-136.9A153.09,153.09,0,0,1,235.39,545.25Z" transform="translate(-100 -99.86)"/><path class="cls-8" d="M342.05,740.46c-65.1,0-117.86-61.29-117.86-136.9a155,155,0,0,1,11.2-58.31c20.77-39.07,57.94-65.12,100.38-65.12,65.08,0,117.85,61.29,117.85,136.91a154.76,154.76,0,0,1-11.22,58.3C421.65,714.41,384.47,740.46,342.05,740.46Z" transform="translate(-100 -99.86)"/><path class="cls-9" d="M235.39,545.25a129.83,129.83,0,0,1,39-45,138.9,138.9,0,0,0-14.91,22.4,155,155,0,0,0-11.21,58.31c0,75.61,52.77,136.9,117.86,136.9,22.49,0,43.48-7.37,61.35-20.07C406,724,375.7,740.46,342.05,740.46c-65.1,0-117.86-61.29-117.86-136.9A155,155,0,0,1,235.39,545.25Z" transform="translate(-100 -99.86)"/><path class="cls-7" d="M351.87,267.77s-.39,63.06-14.93,81.25c-8.26,9.7-1.58,24.66,17.28,25.87s28.29-13.34,21.22-21-15.33-15.36-14.93-44.46.4-34.77.4-34.77Z" transform="translate(-100 -99.86)"/><path class="cls-10" d="M336.94,349c14.54-18.19,14.93-81.25,14.93-81.25l4,3.06c-.23,15.22-1.42,36.42-5.45,55.42-7.17,33.71-1.57,43.93,12.05,41.23,7.46-1.47,11.29-7.8,13.24-13.23,6.45,7.77-2.94,21.84-21.5,20.64C335.36,373.68,328.68,358.72,336.94,349Z" transform="translate(-100 -99.86)"/><path class="cls-7" d="M618.62,338.11S602.12,288,588,254.83s33.78,29.92,55,95.4C621,338.11,618.62,338.11,618.62,338.11Z" transform="translate(-100 -99.86)"/><path class="cls-7" d="M886.3,584.69c-121.53-204.81-356.2-310.45-508.11-359S211.61,207.4,239.9,217.11c124.67,47.43,346.77,202.65,386.58,271.64-57.62-31.26-113.15-21.55-87-14,170.77,12.94,242,278.12,242,278.12C797.25,813.22,945,707.58,886.3,584.69Z" transform="translate(-100 -99.86)"/><path class="cls-11" d="M592.43,255.91s59.06-35,36.66-59.29C609.71,175.6,595.05,230.58,592.43,255.91Z" transform="translate(-100 -99.86)"/><path class="cls-4" d="M593.48,254.57a.83.83,0,0,0,.6-.28c20.77-24.6,35.59-57,35.73-57.32a.83.83,0,0,0-.38-1.08.76.76,0,0,0-1,.39c-.15.33-14.87,32.52-35.51,56.95a.81.81,0,0,0,.08,1.13.75.75,0,0,0,.52.21Z" transform="translate(-100 -99.86)"/><path class="cls-12" d="M588.76,250.52s-12.57-23.17-44.52-31.26S507.05,261.84,588.76,250.52Z" transform="translate(-100 -99.86)"/><path class="cls-4" d="M588.76,251.33a.76.76,0,0,0,.59-.27.82.82,0,0,0-.06-1.14c-.27-.25-27.81-25.55-59.24-23.38a.81.81,0,0,0-.74.86.8.8,0,0,0,.84.75c30.77-2.09,57.82,22.72,58.09,23a.77.77,0,0,0,.52.21Z" transform="translate(-100 -99.86)"/><path class="cls-11" d="M592.43,255.91s5.24-76-31.43-81.39C528,171.29,572,238.67,592.43,255.91Z" transform="translate(-100 -99.86)"/><path class="cls-4" d="M592.43,256.72l.23,0a.81.81,0,0,0,.52-1c-.62-2.12-15.44-52.14-32.15-68.8a.78.78,0,0,0-1.12,0,.82.82,0,0,0,0,1.14c16.41,16.37,31.59,67.59,31.74,68.11a.78.78,0,0,0,.75.57Z" transform="translate(-100 -99.86)"/><path class="cls-4" d="M870.58,700.31a.68.68,0,0,0,.36-.1.81.81,0,0,0,.34-1.08c-45.55-90.09-90-154.73-116.49-193.35-14.92-21.7-25.69-37.38-24-39.91.24-.35,1.12-.37,2.37-.05,52.47,21.19,154.59,192,155.62,193.68a.78.78,0,0,0,1.08.26.83.83,0,0,0,.26-1.11c-1-1.73-103.42-173-156.48-194.36-.86-.23-3.15-.82-4.14.67-2.19,3.29,4.46,13.3,24,41.76C780,545.3,824.38,609.88,869.89,699.87a.77.77,0,0,0,.69.44Z" transform="translate(-100 -99.86)"/><path class="cls-4" d="M836,685.75a.75.75,0,0,0,.38-.1.81.81,0,0,0,.3-1.1c-1-1.89-104.52-189.6-170.86-265.33-13-13.69-18.81-24-15.5-27.71,7.67-8.49,58.3,14.39,123.36,70.91a.77.77,0,0,0,1.11-.1.81.81,0,0,0-.1-1.13c-62.54-54.36-116.35-80.93-125.52-70.78-4.13,4.57,1.23,14.92,15.5,29.92,66.2,75.57,169.6,263.13,170.65,265a.78.78,0,0,0,.68.41Z" transform="translate(-100 -99.86)"/><path class="cls-4" d="M794.1,720.25a.72.72,0,0,0,.29-.06.81.81,0,0,0,.45-1c-.7-1.82-70.48-182.71-181.39-309.63-27.11-29.46-39-54.74-31.12-66,7.1-10.12,29.65-7.33,60.32,7.45a.77.77,0,0,0,1-.39.82.82,0,0,0-.38-1.08c-31.87-15.36-54.56-17.89-62.25-6.93-8.5,12.11,3.18,37.55,31.22,68.05C723,537.31,792.68,717.93,793.37,719.74a.81.81,0,0,0,.73.51Z" transform="translate(-100 -99.86)"/><path class="cls-4" d="M626.48,454a.81.81,0,0,0,.49-.17.84.84,0,0,0,.13-1.14c-.86-1.1-86.86-111-248.59-184.57a.78.78,0,0,0-1,.41.82.82,0,0,0,.4,1.07c161.36,73.44,247.15,183,248,184.09a.77.77,0,0,0,.62.31Z" transform="translate(-100 -99.86)"/><path class="cls-4" d="M424.28,276.12a.78.78,0,0,0,.69-.41.82.82,0,0,0-.31-1.1c-1-.59-104.53-59.48-165.77-70.16a.77.77,0,0,0-.9.66.81.81,0,0,0,.63.94c61,10.63,164.24,69.38,165.28,70a.75.75,0,0,0,.38.1Z" transform="translate(-100 -99.86)"/><path class="cls-4" d="M542.67,330a.76.76,0,0,0,.64-.34.83.83,0,0,0-.18-1.12c-.62-.46-62.72-45.66-134.28-73.4a.78.78,0,0,0-1,.47.82.82,0,0,0,.46,1c71.37,27.67,133.31,72.75,133.92,73.2a.79.79,0,0,0,.46.15Z" transform="translate(-100 -99.86)"/><path class="cls-10" d="M732.29,583.62c83.83,175.46,182.38,104.91,160.18,16.1C933,716,796.6,810.75,781.53,752.86c0,0-71.24-265.18-242-278.12-26.19-7.54,29.34-17.25,87,14-39.81-69-261.91-224.21-386.58-271.64-6.48-2.23-10.7-5.52-11.53-8.7C331.43,245.88,609,363.79,732.29,583.62Z" transform="translate(-100 -99.86)"/><path class="cls-11" d="M539.88,470.88s-23.94-9.84-53.71,4.61S483.39,532.67,539.88,470.88Z" transform="translate(-100 -99.86)"/><path class="cls-4" d="M480.15,491.75a.77.77,0,0,0,.53-.21c22.57-21.58,58.8-19.86,59.16-19.86a.78.78,0,0,0,.83-.76.8.8,0,0,0-.74-.85c-.37,0-37.27-1.76-60.31,20.28a.82.82,0,0,0-.05,1.14.75.75,0,0,0,.58.26Z" transform="translate(-100 -99.86)"/><path class="cls-12" d="M542.45,470.54S513.2,481,500.69,512.91,549.4,555.52,542.45,470.54Z" transform="translate(-100 -99.86)"/><path class="cls-4" d="M509.35,529.07a.79.79,0,0,0,.78-.81c0-31.67,32.46-56.82,32.79-57.07a.83.83,0,0,0,.17-1.13.78.78,0,0,0-1.1-.16c-.34.25-33.43,25.88-33.43,58.36a.8.8,0,0,0,.79.81Z" transform="translate(-100 -99.86)"/><path class="cls-11" d="M542.3,470.77S508.4,403,474.35,418C444.52,432.92,516.14,467,542.3,470.77Z" transform="translate(-100 -99.86)"/><path class="cls-4" d="M542.3,471.58a.78.78,0,0,0,.59-.27.83.83,0,0,0-.06-1.14c-1.6-1.48-39.53-36.29-62.23-41.59a.78.78,0,0,0-.94.61.81.81,0,0,0,.6,1c22.3,5.2,61.13,40.85,61.52,41.21a.77.77,0,0,0,.52.21Z" transform="translate(-100 -99.86)"/><path class="cls-11" d="M228.68,185.65s-68.33-54.42-97.15-21.27C107.12,195.26,199.18,194.9,228.68,185.65Z" transform="translate(-100 -99.86)"/><path class="cls-4" d="M228.68,186.46a.79.79,0,0,0,.75-.58.81.81,0,0,0-.52-1c-2.4-.76-59.18-18.32-85.68-12.39a.79.79,0,0,0-.59,1,.77.77,0,0,0,.93.62c26.11-5.84,84.3,12.17,84.88,12.35a.66.66,0,0,0,.23,0Z" transform="translate(-100 -99.86)"/><path class="cls-12" d="M212.15,186.84s-34-9.14-65.44,12.85S166.54,271.58,212.15,186.84Z" transform="translate(-100 -99.86)"/><path class="cls-4" d="M145.46,220.62a.79.79,0,0,0,.66-.36c19.46-29.93,65.6-32.59,66.07-32.61a.81.81,0,0,0-.08-1.61c-.47,0-47.38,2.71-67.3,33.32a.82.82,0,0,0,.21,1.12.84.84,0,0,0,.44.14Z" transform="translate(-100 -99.86)"/><path class="cls-12" d="M235.3,209s-38.55-.94-66.66,30.65S207.37,311.17,235.3,209Z" transform="translate(-100 -99.86)"/><path class="cls-4" d="M172.23,262.21a.78.78,0,0,0,.73-.52c13.47-37,62.07-51.79,62.56-51.94a.81.81,0,0,0,.54-1,.77.77,0,0,0-1-.55c-.5.14-49.85,15.15-63.59,52.92a.8.8,0,0,0,.45,1,.66.66,0,0,0,.28,0Z" transform="translate(-100 -99.86)"/><path class="cls-11" d="M242.18,206.48s20,28.32,11.78,65.15S184.08,278.55,242.18,206.48Z" transform="translate(-100 -99.86)"/><path class="cls-4" d="M236.79,280.67a.8.8,0,0,0,.65-.34c19.79-29.23,5.63-73.66,5.48-74.1a.78.78,0,0,0-1-.51.8.8,0,0,0-.48,1c.14.44,14.05,44.11-5.29,72.66a.82.82,0,0,0,.2,1.13.72.72,0,0,0,.44.14Z" transform="translate(-100 -99.86)"/><path class="cls-12" d="M247.62,183.78s-39.57-79-79.3-61.53C133.51,139.61,217.09,179.33,247.62,183.78Z" transform="translate(-100 -99.86)"/><path class="cls-4" d="M247.62,184.59a.77.77,0,0,0,.58-.27.84.84,0,0,0-.06-1.14c-1.87-1.72-46.09-42.32-72.55-48.5a.81.81,0,0,0-.34,1.58c26.05,6.08,71.39,47.7,71.84,48.13a.81.81,0,0,0,.53.2Z" transform="translate(-100 -99.86)"/><path class="cls-11" d="M270.7,203.24s-29.92-32.62-76.94-30.75S168.69,261.4,270.7,203.24Z" transform="translate(-100 -99.86)"/><path class="cls-4" d="M270.7,204.05a.77.77,0,0,0,.68-.42.83.83,0,0,0-.3-1.1c-.51-.29-51.42-29.14-91.8-10.49a.83.83,0,0,0-.39,1.07.76.76,0,0,0,1,.41c39.64-18.32,89.89,10.14,90.4,10.42a.76.76,0,0,0,.38.11Z" transform="translate(-100 -99.86)"/><path class="cls-11" d="M263.92,203.92s15.13-42.06,59.11-59.27S379.92,216.38,263.92,203.92Z" transform="translate(-100 -99.86)"/><path class="cls-4" d="M263.92,204.73a.77.77,0,0,0,.62-.32c.35-.46,35.1-46,78-46,.42,0,.84,0,1.25,0a.84.84,0,0,0,.8-.8.79.79,0,0,0-.77-.82l-1.27,0c-43.67,0-78.86,46.15-79.22,46.62a.84.84,0,0,0,.14,1.14.78.78,0,0,0,.48.17Z" transform="translate(-100 -99.86)"/><path class="cls-11" d="M265.64,202.66s21.85-38.79,6.7-84.63S182.37,118.65,265.64,202.66Z" transform="translate(-100 -99.86)"/><path class="cls-4" d="M265.64,203.47a.78.78,0,0,0,.77-.63c.13-.58,12.47-59-16.41-93.52a.76.76,0,0,0-1.1-.08.83.83,0,0,0-.09,1.14c28.38,33.88,16.19,91.53,16.07,92.11a.8.8,0,0,0,.59,1,.43.43,0,0,0,.12,0Z" transform="translate(-100 -99.86)"/></g></g></svg>