<svg id="Layer_1" data-name="Layer 1" xmlns="http://www.w3.org/2000/svg" viewBox="0 0 900 250"><defs><style>.cls-1{fill:#b0907d;}.cls-2{fill:#9f7e6a;}.cls-3{fill:#6a4935;}.cls-4{fill:#81604c;}.cls-5{fill:#a1806c;}.cls-6{fill:#957460;}.cls-7{fill:#a2826e;}.cls-8{fill:#ae8e7b;}.cls-9{fill:#684733;}.cls-10{fill:#755440;}.cls-11{fill:#987763;}.cls-12{fill:#a58470;}.cls-13{fill:#b0907c;}.cls-14{fill:#a07f6b;}.cls-15{fill:#ad8d7a;}.cls-16{fill:#ad8c79;}</style></defs><path class="cls-1" d="M892.87,527.62c-1.47-9.55,5.74-7.48,10.62-7.73,10.92-.58,21.86-.68,32.8-1l.45,48a14.06,14.06,0,0,1-.71,3.21l-42.79.09Q893.06,548.91,892.87,527.62Z" transform="translate(-50 -375)"/><path class="cls-2" d="M893.24,570.21l42.8-.09q-.18,24.33-.35,48.65c-12.17-.13-24.34-.29-36.51-.39a21,21,0,0,1-16.11-7.3c0-1.16,0-2.31,0-3.47,8,.69,10.43-3.49,10.14-10.94-.35-8.76-.09-17.55-.1-26.33Z" transform="translate(-50 -375)"/><path class="cls-3" d="M935.69,618.77q.18-24.33.35-48.65a15.21,15.21,0,0,0,.71-3.21l12.59,3.42c.17,15.18.45,30.36.44,45.54,0,3.89-.49,8.13-5.61,9C939.4,625.66,937,623,935.69,618.77Z" transform="translate(-50 -375)"/><path class="cls-4" d="M949.34,570.33l-12.59-3.42q-.24-24-.46-48c9.23-11.1,13-4.32,13.44,5.11C950.44,539.43,949.55,554.9,949.34,570.33Z" transform="translate(-50 -375)"/><path class="cls-5" d="M892.87,527.62q.18,21.3.37,42.59l-.11.13-13.36,0-.1-.08q.06-20.19.11-40.38Z" transform="translate(-50 -375)"/><path class="cls-6" d="M879.77,570.36l13.36,0c0,8.78-.25,17.57.1,26.33.29,7.45-2.17,11.63-10.14,10.94C876.89,595.66,880.8,582.78,879.77,570.36Z" transform="translate(-50 -375)"/><path class="cls-7" d="M278.45,609.43c-26.12-.5-52.41,2.73-78.28-2.2C125.41,593,67.37,526.15,65.87,447.17l7.82-.46h30.7c3.22,35,15.93,66.12,42.4,88.88,21.9,18.84,45.91,35.19,77.77,32.39,18.9-1.67,40.57-.26,59.62-.24l148.65,2.56,225.62,0h222.2l.1.08c1,12.42-2.88,25.3,3.32,37.25l0,3.47L834,611H658.69l-253.16-.47Z" transform="translate(-50 -375)"/><path class="cls-8" d="M276.11,529c-11.82-.07-19.94.13-23.29.18a216.17,216.17,0,0,1-28.65-1.48c-45.48-6-72.18-34.55-78.24-80.89l-41.54-.11c3.22,35,15.92,66.12,42.4,88.88,21.9,18.84,45.91,35.19,77.77,32.39,18.9-1.67,38.08-.26,57.13-.24l.12-.11,153.52,2.67,222.24,0H880.65q0-20.19.11-40.38l-48.64-.07h-175l-251.39-.33Z" transform="translate(-50 -375)"/><path class="cls-8" d="M152.22,436.39c7.07-14.47,1.14-30,3.5-44.84l-51.35-1,.06,1.13,0,3.24v3.42l.06,34.61C120.06,438.72,137,424.94,152.22,436.39Z" transform="translate(-50 -375)"/><path class="cls-7" d="M104.46,433l-.06-34.61c-7.77,0-15.58.56-23.28-.12-9.39-.84-.44-4.44-.65-6.72l-24.11.18c1.78,14.92-3.5,30.34,3.16,44.9,12.79-6.93,12.79-6.93,14.18-.29,10-3.34,20.31-4,30.73-3.32Z" transform="translate(-50 -375)"/><path class="cls-9" d="M104.37,390.55l51.35,1c4.09-2.34,7.76-5.16,5.38-10.59-1.9-4.34-6.24-4.17-10.12-4.12-15.53.21-31.06.53-46.59.8Z" transform="translate(-50 -375)"/><path class="cls-10" d="M104.37,390.55l0-12.91c-14.67-.24-29.35-.61-44-.64-3.68,0-8.45-1-9.92,4.18s.73,8.85,5.91,10.5l24.11-.18H97.61l6.82.19Z" transform="translate(-50 -375)"/><path class="cls-11" d="M152.22,436.39c-15.2-11.45-32.16,2.33-47.76-3.44l0,0q0,6.87,0,13.75h0l41.54.11C148.46,443.62,152.08,441.08,152.22,436.39Z" transform="translate(-50 -375)"/><path class="cls-11" d="M73.7,436.29c-1.39-6.64-1.39-6.64-14.18.29.69,4.41,3.19,7.71,6.36,10.59l7.81-.46Q73.71,441.51,73.7,436.29Z" transform="translate(-50 -375)"/><path class="cls-11" d="M73.7,436.29q0,5.22,0,10.42h30.7q0-6.87,0-13.75C94,432.34,83.71,433,73.7,436.29Z" transform="translate(-50 -375)"/><path class="cls-12" d="M97.61,391.49H80.47c.21,2.28-8.74,5.88.65,6.72,7.7.68,15.51.13,23.28.12v-3.42C101.62,394.83,99.06,394.29,97.61,391.49Z" transform="translate(-50 -375)"/><path class="cls-13" d="M97.61,391.49c1.45,2.8,4,3.34,6.79,3.43l0-3.24Z" transform="translate(-50 -375)"/><path class="cls-14" d="M292.18,529.75c0,8.92,23,10.2,38.89,10.2,0-50.16-.08-44.38-.07-94.55l-.09-.07c-10,0-19.92,0-29.87-.16-3.67-.06-6.42-1.74-6.75-5.84-.4-4.88,2.16-7.38,6.79-7.46,9.95-.17,19.91-.12,29.87-.17l.09-.08,0-40.56-50.24-.71c1.92,22.07-2.37,42.67,9.47,46.49" transform="translate(-50 -375)"/><path class="cls-15" d="M371,455.63q.46-5,.92-10.07l-41-.16c0,50.17.08,44.39.07,94.55,26.76,0,39.63-1.72,40-10.3Z" transform="translate(-50 -375)"/><path class="cls-16" d="M331.07,391.06l0,40.56q15.76,0,31.53.06c5.53,0,11.54-.76,12.55,7.27,7.68-3.61,6.19-10.61,6.68-17.23.85-11.41-3.4-23.42,3.63-34.14a194,194,0,0,1-51.2,2.63A28.88,28.88,0,0,0,331.07,391.06Z" transform="translate(-50 -375)"/><path class="cls-9" d="M331.07,391.06a28.88,28.88,0,0,1,3.16-.85q0-6.33,0-12.67c-15.58-.19-31.17-.08-46.73-.68-12.82-.49-13.32,4.49-6.72,13.49Z" transform="translate(-50 -375)"/><path class="cls-10" d="M334.28,377.54q0,6.34,0,12.67a194,194,0,0,0,51.2-2.63c6-7.86,3.25-10.79-5.66-10.62C364.61,377.25,349.44,377.36,334.28,377.54Z" transform="translate(-50 -375)"/><path class="cls-5" d="M375.12,439c-1-8-7-7.25-12.55-7.27q-15.76,0-31.53-.06l-.09.08q0,6.81,0,13.63l.09.07,41,.16C374.86,444.25,374.81,441.51,375.12,439Z" transform="translate(-50 -375)"/><path class="cls-6" d="M330.91,445.33q0-6.81,0-13.63c-10,.05-25.76,0-35.72.17-4.63.08-7.18,2.58-6.79,7.46.34,4.1,3.09,5.78,6.75,5.83C305.14,445.32,321,445.29,330.91,445.33Z" transform="translate(-50 -375)"/><path class="cls-14" d="M518.83,527.92c0,8.92,23,10.2,38.89,10.2,0-50.16-.08-44.38-.07-94.54l-.09-.08c-10,0-19.92,0-29.87-.16-3.66-.06-6.42-1.73-6.75-5.84-.4-4.88,2.16-7.37,6.79-7.45,9.95-.18,19.91-.13,29.87-.18l.1-.08q0-20.28,0-40.56l-50.24-.71c1.92,22.07-2.37,42.68,9.47,46.49" transform="translate(-50 -375)"/><path class="cls-15" d="M597.69,453.81l.93-10.08-41-.15c0,50.16.08,44.38.07,94.54,26.76,0,39.63-1.71,40-10.3Z" transform="translate(-50 -375)"/><path class="cls-16" d="M557.72,389.23l0,40.57q15.76,0,31.54.05c5.53,0,11.53-.76,12.54,7.27,7.69-3.61,6.19-10.61,6.68-17.23.85-11.41-3.4-23.42,3.64-34.14a194.1,194.1,0,0,1-51.21,2.63A31.33,31.33,0,0,0,557.72,389.23Z" transform="translate(-50 -375)"/><path class="cls-9" d="M557.72,389.23a31.33,31.33,0,0,1,3.16-.85q0-6.33,0-12.66c-15.58-.2-31.17-.09-46.73-.69-12.82-.49-13.32,4.49-6.72,13.49Z" transform="translate(-50 -375)"/><path class="cls-10" d="M560.93,375.72q0,6.33,0,12.66a194.1,194.1,0,0,0,51.21-2.63c6-7.85,3.24-10.78-5.67-10.62C591.26,375.42,576.09,375.53,560.93,375.72Z" transform="translate(-50 -375)"/><path class="cls-5" d="M601.77,437.12c-1-8-7-7.25-12.54-7.27q-15.76,0-31.54-.05l-.09.07q0,6.83,0,13.63l.09.08,41,.15C601.51,442.43,601.46,439.69,601.77,437.12Z" transform="translate(-50 -375)"/><path class="cls-6" d="M557.56,443.5q0-6.81,0-13.63c-10,.05-25.76,0-35.72.17-4.63.08-7.18,2.58-6.79,7.46.34,4.1,3.09,5.78,6.75,5.83C531.8,443.49,547.6,443.46,557.56,443.5Z" transform="translate(-50 -375)"/><path class="cls-14" d="M745.49,527.92c0,8.92,23,10.2,38.88,10.2,0-50.16-.08-44.38-.07-94.54l-.09-.08c-10,0-19.91,0-29.87-.16-3.66-.06-6.41-1.73-6.75-5.84-.39-4.88,2.16-7.37,6.79-7.45,10-.18,19.91-.13,29.87-.18l.1-.08q0-20.28,0-40.56l-50.24-.71c1.92,22.07-2.37,42.68,9.48,46.49" transform="translate(-50 -375)"/><path class="cls-15" d="M824.34,453.81l.93-10.08-41-.15c0,50.16.08,44.38.07,94.54,26.76,0,39.64-1.71,40-10.3Z" transform="translate(-50 -375)"/><path class="cls-16" d="M784.37,389.23q0,20.28,0,40.57,15.76,0,31.53.05c5.53,0,11.54-.76,12.55,7.27,7.68-3.61,6.18-10.61,6.67-17.23.85-11.41-3.39-23.42,3.64-34.14a194.1,194.1,0,0,1-51.21,2.63A31.33,31.33,0,0,0,784.37,389.23Z" transform="translate(-50 -375)"/><path class="cls-9" d="M784.37,389.23a31.33,31.33,0,0,1,3.16-.85q0-6.33.05-12.66c-15.58-.2-31.16-.09-46.73-.69-12.81-.49-13.32,4.49-6.72,13.49Z" transform="translate(-50 -375)"/><path class="cls-10" d="M787.58,375.72q0,6.33-.05,12.66a194.1,194.1,0,0,0,51.21-2.63c6-7.85,3.24-10.78-5.67-10.62C817.91,375.42,802.75,375.53,787.58,375.72Z" transform="translate(-50 -375)"/><path class="cls-5" d="M828.43,437.12c-1-8-7-7.25-12.55-7.27q-15.76,0-31.53-.05l-.1.07q0,6.83,0,13.63l.09.08,41,.15C828.16,442.43,828.11,439.69,828.43,437.12Z" transform="translate(-50 -375)"/><path class="cls-6" d="M784.21,443.5q0-6.81,0-13.63c-10,.05-25.76,0-35.72.17-4.63.08-7.18,2.58-6.78,7.46.33,4.1,3.08,5.78,6.74,5.83C758.45,443.49,774.25,443.46,784.21,443.5Z" transform="translate(-50 -375)"/></svg>