<svg id="Layer_1" data-name="Layer 1" xmlns="http://www.w3.org/2000/svg" viewBox="0 0 800 652"><defs><style>.cls-1{fill:#e6eaf0;}.cls-2{fill:#464e5e;}.cls-3{fill:#888;}.cls-4{fill:#f2f4f7;}.cls-5{fill:#d6dae1;}</style></defs><path class="cls-1" d="M0,495H800a0,0,0,0,1,0,0v40a30,30,0,0,1-30,30H30A30,30,0,0,1,0,535V495a0,0,0,0,1,0,0Z"/><path class="cls-2" d="M870,174H130a29.85,29.85,0,0,0-30,29.7V669H900V203.7A29.85,29.85,0,0,0,870,174Zm0,455.4H130V213.6H870Z" transform="translate(-100 -174)"/><circle class="cls-1" cx="400" cy="20" r="7"/><circle class="cls-3" cx="400" cy="530" r="20"/><rect class="cls-1" x="270" y="642" width="260" height="10" rx="3"/><polygon class="cls-4" points="500 635 300 635 273 642 527 642 500 635"/><polygon class="cls-5" points="487.23 590.3 480 565 320 565 312.77 590.3 487.23 590.3"/><polygon class="cls-1" points="312.77 590.3 300 635 500 635 487.23 590.3 312.77 590.3"/></svg>